<?xml version="1.0" standalone="no"?>
 <!DOCTYPE svg PUBLIC "-//W3C//DTD SVG 1.1//EN" 
 "http://www.w3.org/Graphics/SVG/1.1/DTD/svg11.dtd"> 
<svg
  xmlns:svg="http://www.w3.org/2000/svg"
  xmlns="http://www.w3.org/2000/svg"
  xmlns:xlink="http://www.w3.org/1999/xlink"
  version="1.1"
  width="297.0022mm" height="210.0072mm" viewBox="0.0000 0.0000 297.0022 210.0072">
<title>SVG Image created as multiroomroom_board-F_Silkscreen.svg date 2024/10/06 11:07:28 </title>
  <desc>Image generated by PCBNEW </desc>
<g style="fill:#000000; fill-opacity:1.0000;stroke:#000000; stroke-opacity:1.0000;
stroke-linecap:round; stroke-linejoin:round;"
 transform="translate(0 0) scale(1 1)">
</g>
<g style="fill:none; 
stroke:#000000; stroke-width:0.1000; stroke-opacity:1; 
stroke-linecap:round; stroke-linejoin:round;">
<circle cx="136.1459" cy="126.2380" r="1.3443" /> 
<path style="fill:#000000; fill-opacity:1.0000; stroke:none;fill-rule:evenodd;"
d="M 143.4814,117.4668
141.9109,117.4668
141.8225,117.0629
141.8085,117.0489
140.8213,117.0489
140.7978,117.1569
140.7259,117.4668
139.1554,117.4668
139.5000,116.0000
141.0695,116.0000
141.5701,116.0000
141.3163,114.9511
141.0695,116.0000
139.5000,116.0000
140.2730,112.7102
139.7513,112.7102
139.9911,111.6613
142.1100,111.6613
Z" /> 
<path style="fill:#000000; fill-opacity:1.0000; stroke:none;fill-rule:evenodd;"
d="M 147.5396,115.9117
148.9433,115.9117
148.9590,115.8765
148.9768,115.8427
148.9969,115.8104
149.0191,115.7797
149.0434,115.7507
149.0696,115.7236
149.0977,115.6984
149.1277,115.6754
149.1595,115.6546
149.1930,115.6361
149.2281,115.6201
149.2648,115.6068
149.3029,115.5962
149.3425,115.5885
149.3835,115.5837
149.4257,115.5821
149.4257,115.5821
149.4517,115.5828
149.4773,115.5847
149.5024,115.5880
149.5271,115.5924
149.5512,115.5980
149.5749,115.6048
149.5981,115.6128
149.6206,115.6218
149.6426,115.6319
149.6640,115.6430
149.6847,115.6551
149.7047,115.6681
149.7240,115.6821
149.7426,115.6969
149.7605,115.7127
149.7775,115.7292
149.7938,115.7465
149.8092,115.7646
149.8238,115.7833
149.8374,115.8028
149.8502,115.8229
149.8620,115.8436
149.8728,115.8649
149.8826,115.8868
149.8914,115.9091
149.8992,115.9320
149.9059,115.9553
149.9115,115.9790
149.9159,116.0030
149.9192,116.0274
149.9213,116.0521
149.9221,116.0771
149.9215,116.1030
149.9196,116.1286
149.9166,116.1538
149.9123,116.1786
149.9069,116.2030
149.9004,116.2269
149.8928,116.2504
149.8841,116.2734
149.8743,116.2958
149.8636,116.3176
149.8519,116.3388
149.8392,116.3593
149.8256,116.3792
149.8111,116.3983
149.7957,116.4167
149.7795,116.4344
149.7624,116.4512
149.7446,116.4671
149.7260,116.4822
149.7067,116.4964
149.6867,116.5096
149.6661,116.5219
149.6447,116.5331
149.6228,116.5433
149.6003,116.5524
149.5772,116.5604
149.5536,116.5673
149.5295,116.5730
149.5049,116.5775
149.4798,116.5807
149.4544,116.5827
149.4285,116.5834
149.4048,116.5829
149.3813,116.5814
149.3583,116.5791
149.3355,116.5758
149.3132,116.5716
149.2913,116.5666
149.2699,116.5607
149.2488,116.5539
149.2283,116.5464
149.2083,116.5380
149.1887,116.5289
149.1697,116.5190
149.1513,116.5084
149.1334,116.4970
149.1162,116.4850
149.0995,116.4722
149.0835,116.4588
149.0682,116.4448
149.0535,116.4301
149.0395,116.4148
149.0262,116.3989
149.0137,116.3824
149.0019,116.3654
148.9910,116.3479
148.9808,116.3298
148.9714,116.3113
148.9629,116.2923
148.9552,116.2728
148.9484,116.2529
148.9425,116.2326
148.9376,116.2118
148.9335,116.1907
147.4275,116.1907
146.7824,115.5316
143.9273,115.5316
143.8642,115.2666
146.8946,115.2666
Z" /> 
<path style="fill:#000000; fill-opacity:1.0000; stroke:none;fill-rule:evenodd;"
d="M 134.2967,114.1270
134.3179,114.1283
134.3389,114.1305
134.3597,114.1335
134.3802,114.1373
134.4004,114.1419
134.4204,114.1474
134.4401,114.1536
134.4594,114.1605
134.4784,114.1683
134.4970,114.1767
134.5151,114.1858
134.5329,114.1957
134.5502,114.2062
134.5670,114.2174
134.5834,114.2293
134.5992,114.2417
134.6144,114.2548
134.6291,114.2685
134.6432,114.2828
134.6567,114.2976
134.6695,114.3130
134.6817,114.3290
134.6932,114.3454
134.7040,114.3624
134.7141,114.3798
134.7234,114.3978
134.7319,114.4162
134.7396,114.4350
134.7465,114.4542
134.7526,114.4739
134.7578,114.4939
138.9562,114.4939
138.8903,114.7716
134.7578,114.7716
134.7526,114.7917
134.7465,114.8113
134.7396,114.8306
134.7319,114.8494
134.7234,114.8679
134.7141,114.8858
134.7040,114.9033
134.6932,114.9203
134.6695,114.9528
134.6432,114.9832
134.6144,115.0113
134.5833,115.0370
134.5502,115.0601
134.5151,115.0806
134.4784,115.0984
134.4401,115.1131
134.4004,115.1249
134.3597,115.1334
134.3389,115.1364
134.3179,115.1386
134.2967,115.1400
134.2754,115.1404
134.2496,115.1397
134.2242,115.1378
134.1991,115.1345
134.1744,115.1300
134.1501,115.1243
134.1262,115.1175
134.1028,115.1095
134.0799,115.1003
134.0576,115.0901
134.0359,115.0789
134.0147,115.0667
133.9942,115.0534
133.9744,115.0393
133.9553,115.0242
133.9370,115.0082
133.9194,114.9914
133.9026,114.9738
133.8867,114.9554
133.8716,114.9362
133.8574,114.9164
133.8442,114.8958
133.8320,114.8746
133.8208,114.8528
133.8106,114.8304
133.8015,114.8075
133.7935,114.7840
133.7866,114.7600
133.7809,114.7356
133.7764,114.7108
133.7732,114.6856
133.7712,114.6600
133.7705,114.6342
133.7712,114.6080
133.7732,114.5822
133.7764,114.5568
133.7809,114.5318
133.7866,114.5073
133.7935,114.4832
133.8015,114.4596
133.8106,114.4365
133.8208,114.4140
133.8320,114.3922
133.8442,114.3709
133.8574,114.3503
133.8716,114.3304
133.8867,114.3112
133.9026,114.2928
133.9194,114.2752
133.9370,114.2584
133.9553,114.2424
133.9744,114.2274
133.9942,114.2132
134.0147,114.2000
134.0359,114.1878
134.0576,114.1766
134.0799,114.1664
134.1028,114.1573
134.1262,114.1494
134.1501,114.1425
134.1744,114.1368
134.1991,114.1324
134.2242,114.1292
134.2496,114.1272
134.2754,114.1265
Z" /> 
<path style="fill:#000000; fill-opacity:1.0000; stroke:none;fill-rule:evenodd;"
d="M 138.7122,115.5316
138.7122,115.5302
135.8600,115.5302
135.2149,116.1893
133.7089,116.1893
133.7047,116.2105
133.6996,116.2314
133.6936,116.2518
133.6868,116.2718
133.6790,116.2914
133.6705,116.3104
133.6610,116.3290
133.6508,116.3471
133.6398,116.3646
133.6280,116.3817
133.6155,116.3981
133.6023,116.4140
133.5883,116.4293
133.5736,116.4439
133.5583,116.4580
133.5423,116.4713
133.5257,116.4841
133.5085,116.4961
133.4907,116.5074
133.4723,116.5180
133.4533,116.5278
133.4338,116.5369
133.4138,116.5452
133.3933,116.5527
133.3724,116.5594
133.3509,116.5653
133.3291,116.5703
133.3068,116.5745
133.2841,116.5777
133.2610,116.5801
133.2376,116.5815
133.2138,116.5820
133.1880,116.5813
133.1625,116.5793
133.1375,116.5761
133.1129,116.5716
133.0888,116.5659
133.0652,116.5590
133.0421,116.5510
133.0196,116.5419
132.9976,116.5317
132.9763,116.5205
132.9556,116.5082
132.9356,116.4950
132.9163,116.4808
132.8978,116.4657
132.8800,116.4498
132.8629,116.4330
132.8467,116.4153
132.8313,116.3969
132.8168,116.3778
132.8032,116.3579
132.7905,116.3374
132.7788,116.3162
132.7681,116.2944
132.7583,116.2720
132.7496,116.2490
132.7420,116.2255
132.7355,116.2016
132.7301,116.1772
132.7258,116.1524
132.7227,116.1272
132.7209,116.1016
132.7202,116.0757
132.7209,116.0509
132.7227,116.0263
132.7258,116.0020
132.7301,115.9780
132.7355,115.9544
132.7420,115.9312
132.7496,115.9085
132.7583,115.8862
132.7680,115.8644
132.7788,115.8432
132.7905,115.8225
132.8032,115.8025
132.8168,115.7830
132.8313,115.7643
132.8467,115.7463
132.8629,115.7290
132.8799,115.7125
132.8978,115.6968
132.9163,115.6820
132.9356,115.6680
132.9556,115.6550
132.9763,115.6429
132.9976,115.6318
133.0196,115.6218
133.0421,115.6128
133.0652,115.6048
133.0888,115.5980
133.1129,115.5924
133.1375,115.5880
133.1625,115.5847
133.1880,115.5828
133.2138,115.5821
133.2351,115.5825
133.2561,115.5837
133.2767,115.5857
133.2970,115.5885
133.3170,115.5920
133.3366,115.5962
133.3559,115.6011
133.3748,115.6068
133.3933,115.6131
133.4115,115.6201
133.4292,115.6278
133.4466,115.6361
133.4635,115.6450
133.4801,115.6546
133.4962,115.6647
133.5118,115.6754
133.5271,115.6866
133.5418,115.6984
133.5561,115.7107
133.5700,115.7236
133.5833,115.7369
133.5962,115.7507
133.6086,115.7650
133.6205,115.7797
133.6318,115.7949
133.6427,115.8104
133.6530,115.8264
133.6627,115.8427
133.6806,115.8765
133.6962,115.9117
135.0999,115.9117
135.7450,115.2666
138.7753,115.2666
Z" /> 
<path style="fill:#000000; fill-opacity:1.0000; stroke:none;fill-rule:evenodd;"
d="M 149.6548,112.6842
149.6803,112.6862
149.7054,112.6894
149.7301,112.6939
149.7544,112.6995
149.7782,112.7064
149.8016,112.7143
149.8245,112.7234
149.8468,112.7335
149.8686,112.7447
149.8898,112.7569
149.9103,112.7700
149.9301,112.7841
149.9492,112.7991
149.9676,112.8150
149.9852,112.8317
150.0021,112.8492
150.0180,112.8675
150.0331,112.8866
150.0473,112.9063
150.0606,112.9268
150.0729,112.9478
150.0842,112.9695
150.0944,112.9918
150.1036,113.0146
150.1117,113.0380
150.1187,113.0618
150.1245,113.0861
150.1291,113.1107
150.1324,113.1358
150.1345,113.1613
150.1353,113.1870
150.1346,113.2131
150.1327,113.2388
150.1294,113.2640
150.1249,113.2888
150.1192,113.3131
150.1124,113.3368
150.1044,113.3600
150.0952,113.3827
150.0850,113.4047
150.0738,113.4261
150.0616,113.4468
150.0483,113.4669
150.0342,113.4862
150.0191,113.5048
150.0031,113.5226
149.9863,113.5397
149.9687,113.5559
149.9503,113.5713
149.9311,113.5858
149.9113,113.5993
149.8907,113.6120
149.8695,113.6237
149.8477,113.6344
149.8253,113.6441
149.8024,113.6528
149.7789,113.6604
149.7549,113.6669
149.7305,113.6722
149.7057,113.6765
149.6805,113.6795
149.6549,113.6814
149.6291,113.6820
149.6090,113.6816
149.5891,113.6805
149.5694,113.6787
149.5499,113.6762
149.5306,113.6730
149.5116,113.6690
149.4928,113.6644
149.4742,113.6591
149.4560,113.6532
149.4380,113.6466
149.4204,113.6393
149.4032,113.6314
149.3862,113.6229
149.3697,113.6138
149.3536,113.6040
149.3379,113.5937
149.3227,113.5827
149.3079,113.5712
149.2935,113.5591
149.2797,113.5464
149.2664,113.5332
149.2536,113.5195
149.2414,113.5052
149.2297,113.4903
149.2187,113.4750
149.2082,113.4591
149.1984,113.4428
149.1892,113.4260
149.1807,113.4086
149.1728,113.3908
149.1657,113.3726
149.1593,113.3539
147.7304,113.3539
147.0839,114.0116
143.5698,114.0116
143.5053,113.7339
146.9563,113.7339
147.6154,113.0874
149.1341,113.0874
149.1394,113.0663
149.1455,113.0455
149.1525,113.0250
149.1603,113.0049
149.1783,112.9658
149.1994,112.9285
149.2233,112.8931
149.2499,112.8598
149.2790,112.8288
149.3106,112.8003
149.3443,112.7745
149.3801,112.7515
149.3988,112.7411
149.4178,112.7315
149.4373,112.7227
149.4573,112.7147
149.4776,112.7076
149.4983,112.7014
149.5193,112.6960
149.5407,112.6916
149.5624,112.6881
149.5843,112.6856
149.6066,112.6841
149.6291,112.6836
Z" /> 
<path style="fill:#000000; fill-opacity:1.0000; stroke:none;fill-rule:evenodd;"
d="M 133.0330,112.6855
133.0553,112.6870
133.0772,112.6895
133.0990,112.6930
133.1204,112.6974
133.1414,112.7028
133.1622,112.7090
133.1825,112.7161
133.2025,112.7241
133.2220,112.7329
133.2411,112.7425
133.2598,112.7529
133.2780,112.7640
133.2957,112.7759
133.3129,112.7885
133.3295,112.8017
133.3456,112.8157
133.3611,112.8302
133.3760,112.8454
133.3903,112.8612
133.4039,112.8776
133.4169,112.8945
133.4292,112.9120
133.4408,112.9299
133.4516,112.9483
133.4618,112.9672
133.4711,112.9865
133.4796,113.0063
133.4874,113.0264
133.4943,113.0469
133.5003,113.0677
133.5055,113.0888
135.0242,113.0888
135.6833,113.7353
139.1343,113.7353
139.0698,114.0130
135.5557,114.0130
134.9092,113.3553
133.4803,113.3553
133.4739,113.3740
133.4667,113.3922
133.4589,113.4100
133.4504,113.4274
133.4314,113.4606
133.4098,113.4918
133.3860,113.5209
133.3599,113.5479
133.3317,113.5727
133.3017,113.5952
133.2698,113.6154
133.2364,113.6332
133.2015,113.6484
133.1653,113.6611
133.1280,113.6712
133.0896,113.6785
133.0504,113.6831
133.0105,113.6848
132.9846,113.6842
132.9591,113.6823
132.9339,113.6792
132.9090,113.6750
132.8846,113.6696
132.8607,113.6630
132.8372,113.6554
132.8143,113.6467
132.7919,113.6370
132.7701,113.6262
132.7489,113.6145
132.7283,113.6018
132.7085,113.5881
132.6893,113.5736
132.6709,113.5582
132.6533,113.5420
132.6365,113.5249
132.6205,113.5070
132.6054,113.4884
132.5912,113.4691
132.5780,113.4490
132.5658,113.4283
132.5545,113.4069
132.5443,113.3849
132.5352,113.3623
132.5272,113.3391
132.5203,113.3154
132.5146,113.2912
132.5102,113.2665
132.5069,113.2414
132.5049,113.2158
132.5043,113.1898
132.5049,113.1639
132.5069,113.1384
132.5102,113.1132
132.5146,113.0884
132.5203,113.0640
132.5272,113.0401
132.5352,113.0167
132.5443,112.9938
132.5545,112.9714
132.5658,112.9497
132.5780,112.9286
132.5912,112.9081
132.6054,112.8883
132.6205,112.8692
132.6365,112.8508
132.6533,112.8333
132.6709,112.8165
132.6893,112.8006
132.7085,112.7856
132.7283,112.7715
132.7489,112.7583
132.7701,112.7461
132.7919,112.7350
132.8143,112.7248
132.8372,112.7157
132.8607,112.7078
132.8846,112.7009
132.9090,112.6953
132.9339,112.6908
132.9591,112.6876
132.9846,112.6856
133.0105,112.6850
Z" /> 
</g>
<g style="fill:none; 
stroke:#000000; stroke-width:0.1000; stroke-opacity:1; 
stroke-linecap:round; stroke-linejoin:round;">
<circle cx="175.0568" cy="65.2272" r="1.3443" /> 
<circle cx="175.0079" cy="126.2380" r="1.3443" /> 
<path style="fill:#000000; fill-opacity:1.0000; stroke:none;fill-rule:evenodd;"
d="M 148.3887,114.1272
148.4142,114.1292
148.4394,114.1324
148.4643,114.1369
148.4887,114.1426
148.5126,114.1495
148.5361,114.1575
148.5590,114.1666
148.5814,114.1768
148.6032,114.1881
148.6244,114.2003
148.6450,114.2136
148.6649,114.2278
148.6840,114.2429
148.7024,114.2589
148.7200,114.2757
148.7368,114.2934
148.7528,114.3118
148.7679,114.3310
148.7821,114.3509
148.7953,114.3715
148.8075,114.3928
148.8188,114.4147
148.8290,114.4371
148.8381,114.4602
148.8461,114.4837
148.8530,114.5077
148.8587,114.5322
148.8631,114.5572
148.8664,114.5825
148.8684,114.6082
148.8690,114.6342
148.8684,114.6601
148.8664,114.6856
148.8631,114.7108
148.8587,114.7356
148.8530,114.7600
148.8461,114.7840
148.8381,114.8075
148.8290,114.8304
148.8188,114.8528
148.8075,114.8746
148.7953,114.8958
148.7821,114.9164
148.7679,114.9362
148.7528,114.9554
148.7368,114.9738
148.7200,114.9914
148.7024,115.0082
148.6840,115.0242
148.6649,115.0393
148.6450,115.0534
148.6244,115.0667
148.6032,115.0789
148.5814,115.0901
148.5590,115.1003
148.5361,115.1095
148.5126,115.1175
148.4887,115.1243
148.4643,115.1300
148.4394,115.1345
148.4142,115.1378
148.3887,115.1397
148.3628,115.1404
148.3415,115.1399
148.3203,115.1386
148.2993,115.1364
148.2786,115.1333
148.2581,115.1295
148.2378,115.1247
148.2179,115.1192
148.1983,115.1129
148.1790,115.1059
148.1601,115.0981
148.1415,115.0895
148.1234,115.0803
148.1057,115.0703
148.0884,115.0597
148.0716,115.0484
148.0553,115.0365
148.0396,115.0239
148.0243,115.0107
148.0097,114.9969
147.9956,114.9826
147.9821,114.9677
147.9692,114.9522
147.9570,114.9362
147.9455,114.9197
147.9347,114.9028
147.9246,114.8853
147.9152,114.8674
147.9067,114.8490
147.8989,114.8303
147.8919,114.8111
147.8857,114.7915
147.8804,114.7716
143.7479,114.7716
143.6819,114.4939
147.8804,114.4939
147.8857,114.4740
147.8919,114.4545
147.8989,114.4353
147.9067,114.4166
147.9152,114.3982
147.9246,114.3804
147.9347,114.3630
147.9455,114.3460
147.9692,114.3137
147.9956,114.2834
148.0243,114.2554
148.0553,114.2298
148.0884,114.2067
148.1234,114.1862
148.1601,114.1685
148.1983,114.1538
148.2378,114.1421
148.2786,114.1335
148.2993,114.1305
148.3203,114.1283
148.3415,114.1270
148.3628,114.1265
Z" /> 
</g>
<g style="fill:none; 
stroke:#000000; stroke-width:0.3000; stroke-opacity:1; 
stroke-linecap:round; stroke-linejoin:round;">
<g transform="rotate(-90.000000 179.8320 83.7412)">
<text x="179.8320" y="83.7412"
textLength="14.3095" font-size="2.6667" lengthAdjust="spacingAndGlyphs"
text-anchor="start" opacity="0">ENCODER</text>
</g>
<g class="stroked-text"><desc>ENCODER</desc>
<path d="M178.5240 83.0676
L178.5240 82.4009
" />
<path d="M179.5716 82.1152
L179.5716 83.0676
" />
<path d="M179.5716 83.0676
L177.5716 83.0676
" />
<path d="M177.5716 83.0676
L177.5716 82.1152
" />
<path d="M179.5716 81.2581
L177.5716 81.2581
" />
<path d="M177.5716 81.2581
L179.5716 80.1152
" />
<path d="M179.5716 80.1152
L177.5716 80.1152
" />
<path d="M179.3812 78.0200
L179.4764 78.1152
" />
<path d="M179.4764 78.1152
L179.5716 78.4009
" />
<path d="M179.5716 78.4009
L179.5716 78.5914
" />
<path d="M179.5716 78.5914
L179.4764 78.8771
" />
<path d="M179.4764 78.8771
L179.2859 79.0676
" />
<path d="M179.2859 79.0676
L179.0954 79.1628
" />
<path d="M179.0954 79.1628
L178.7145 79.2581
" />
<path d="M178.7145 79.2581
L178.4288 79.2581
" />
<path d="M178.4288 79.2581
L178.0478 79.1628
" />
<path d="M178.0478 79.1628
L177.8574 79.0676
" />
<path d="M177.8574 79.0676
L177.6669 78.8771
" />
<path d="M177.6669 78.8771
L177.5716 78.5914
" />
<path d="M177.5716 78.5914
L177.5716 78.4009
" />
<path d="M177.5716 78.4009
L177.6669 78.1152
" />
<path d="M177.6669 78.1152
L177.7621 78.0200
" />
<path d="M177.5716 76.7819
L177.5716 76.4009
" />
<path d="M177.5716 76.4009
L177.6669 76.2105
" />
<path d="M177.6669 76.2105
L177.8574 76.0200
" />
<path d="M177.8574 76.0200
L178.2383 75.9247
" />
<path d="M178.2383 75.9247
L178.9050 75.9247
" />
<path d="M178.9050 75.9247
L179.2859 76.0200
" />
<path d="M179.2859 76.0200
L179.4764 76.2105
" />
<path d="M179.4764 76.2105
L179.5716 76.4009
" />
<path d="M179.5716 76.4009
L179.5716 76.7819
" />
<path d="M179.5716 76.7819
L179.4764 76.9724
" />
<path d="M179.4764 76.9724
L179.2859 77.1628
" />
<path d="M179.2859 77.1628
L178.9050 77.2581
" />
<path d="M178.9050 77.2581
L178.2383 77.2581
" />
<path d="M178.2383 77.2581
L177.8574 77.1628
" />
<path d="M177.8574 77.1628
L177.6669 76.9724
" />
<path d="M177.6669 76.9724
L177.5716 76.7819
" />
<path d="M179.5716 75.0676
L177.5716 75.0676
" />
<path d="M177.5716 75.0676
L177.5716 74.5914
" />
<path d="M177.5716 74.5914
L177.6669 74.3057
" />
<path d="M177.6669 74.3057
L177.8574 74.1152
" />
<path d="M177.8574 74.1152
L178.0478 74.0200
" />
<path d="M178.0478 74.0200
L178.4288 73.9247
" />
<path d="M178.4288 73.9247
L178.7145 73.9247
" />
<path d="M178.7145 73.9247
L179.0954 74.0200
" />
<path d="M179.0954 74.0200
L179.2859 74.1152
" />
<path d="M179.2859 74.1152
L179.4764 74.3057
" />
<path d="M179.4764 74.3057
L179.5716 74.5914
" />
<path d="M179.5716 74.5914
L179.5716 75.0676
" />
<path d="M178.5240 73.0676
L178.5240 72.4009
" />
<path d="M179.5716 72.1152
L179.5716 73.0676
" />
<path d="M179.5716 73.0676
L177.5716 73.0676
" />
<path d="M177.5716 73.0676
L177.5716 72.1152
" />
<path d="M179.5716 70.1152
L178.6193 70.7819
" />
<path d="M179.5716 71.2581
L177.5716 71.2581
" />
<path d="M177.5716 71.2581
L177.5716 70.4962
" />
<path d="M177.5716 70.4962
L177.6669 70.3057
" />
<path d="M177.6669 70.3057
L177.7621 70.2105
" />
<path d="M177.7621 70.2105
L177.9526 70.1152
" />
<path d="M177.9526 70.1152
L178.2383 70.1152
" />
<path d="M178.2383 70.1152
L178.4288 70.2105
" />
<path d="M178.4288 70.2105
L178.5240 70.3057
" />
<path d="M178.5240 70.3057
L178.6193 70.4962
" />
<path d="M178.6193 70.4962
L178.6193 71.2581
" />
</g><g transform="rotate(-90.000000 179.8320 107.0845)">
<text x="179.8320" y="107.0845"
textLength="12.1190" font-size="2.6667" lengthAdjust="spacingAndGlyphs"
text-anchor="start" opacity="0">+ 5V -</text>
</g>
<g class="stroked-text"><desc>+ 5V -</desc>
<path d="M178.8097 106.4110
L178.8097 104.8872
" />
<path d="M179.5716 105.6491
L178.0478 105.6491
" />
<path d="M177.5716 101.4586
L177.5716 102.4110
" />
<path d="M177.5716 102.4110
L178.5240 102.5062
" />
<path d="M178.5240 102.5062
L178.4288 102.4110
" />
<path d="M178.4288 102.4110
L178.3335 102.2205
" />
<path d="M178.3335 102.2205
L178.3335 101.7443
" />
<path d="M178.3335 101.7443
L178.4288 101.5538
" />
<path d="M178.4288 101.5538
L178.5240 101.4586
" />
<path d="M178.5240 101.4586
L178.7145 101.3633
" />
<path d="M178.7145 101.3633
L179.1907 101.3633
" />
<path d="M179.1907 101.3633
L179.3812 101.4586
" />
<path d="M179.3812 101.4586
L179.4764 101.5538
" />
<path d="M179.4764 101.5538
L179.5716 101.7443
" />
<path d="M179.5716 101.7443
L179.5716 102.2205
" />
<path d="M179.5716 102.2205
L179.4764 102.4110
" />
<path d="M179.4764 102.4110
L179.3812 102.5062
" />
<path d="M177.5716 100.7919
L179.5716 100.1253
" />
<path d="M179.5716 100.1253
L177.5716 99.4586
" />
<path d="M178.8097 97.2681
L178.8097 95.7443
" />
</g><g transform="rotate(-90.000000 179.8320 123.1440)">
<text x="179.8320" y="123.1440"
textLength="13.7381" font-size="2.6667" lengthAdjust="spacingAndGlyphs"
text-anchor="start" opacity="0">SPEAKER</text>
</g>
<g class="stroked-text"><desc>SPEAKER</desc>
<path d="M179.4764 122.5657
L179.5716 122.2800
" />
<path d="M179.5716 122.2800
L179.5716 121.8038
" />
<path d="M179.5716 121.8038
L179.4764 121.6133
" />
<path d="M179.4764 121.6133
L179.3812 121.5181
" />
<path d="M179.3812 121.5181
L179.1907 121.4229
" />
<path d="M179.1907 121.4229
L179.0002 121.4229
" />
<path d="M179.0002 121.4229
L178.8097 121.5181
" />
<path d="M178.8097 121.5181
L178.7145 121.6133
" />
<path d="M178.7145 121.6133
L178.6193 121.8038
" />
<path d="M178.6193 121.8038
L178.5240 122.1848
" />
<path d="M178.5240 122.1848
L178.4288 122.3753
" />
<path d="M178.4288 122.3753
L178.3335 122.4705
" />
<path d="M178.3335 122.4705
L178.1431 122.5657
" />
<path d="M178.1431 122.5657
L177.9526 122.5657
" />
<path d="M177.9526 122.5657
L177.7621 122.4705
" />
<path d="M177.7621 122.4705
L177.6669 122.3753
" />
<path d="M177.6669 122.3753
L177.5716 122.1848
" />
<path d="M177.5716 122.1848
L177.5716 121.7086
" />
<path d="M177.5716 121.7086
L177.6669 121.4229
" />
<path d="M179.5716 120.5657
L177.5716 120.5657
" />
<path d="M177.5716 120.5657
L177.5716 119.8038
" />
<path d="M177.5716 119.8038
L177.6669 119.6133
" />
<path d="M177.6669 119.6133
L177.7621 119.5181
" />
<path d="M177.7621 119.5181
L177.9526 119.4229
" />
<path d="M177.9526 119.4229
L178.2383 119.4229
" />
<path d="M178.2383 119.4229
L178.4288 119.5181
" />
<path d="M178.4288 119.5181
L178.5240 119.6133
" />
<path d="M178.5240 119.6133
L178.6193 119.8038
" />
<path d="M178.6193 119.8038
L178.6193 120.5657
" />
<path d="M178.5240 118.5657
L178.5240 117.8991
" />
<path d="M179.5716 117.6133
L179.5716 118.5657
" />
<path d="M179.5716 118.5657
L177.5716 118.5657
" />
<path d="M177.5716 118.5657
L177.5716 117.6133
" />
<path d="M179.0002 116.8514
L179.0002 115.8991
" />
<path d="M179.5716 117.0419
L177.5716 116.3753
" />
<path d="M177.5716 116.3753
L179.5716 115.7086
" />
<path d="M179.5716 115.0419
L177.5716 115.0419
" />
<path d="M179.5716 113.8991
L178.4288 114.7562
" />
<path d="M177.5716 113.8991
L178.7145 115.0419
" />
<path d="M178.5240 113.0419
L178.5240 112.3752
" />
<path d="M179.5716 112.0895
L179.5716 113.0419
" />
<path d="M179.5716 113.0419
L177.5716 113.0419
" />
<path d="M177.5716 113.0419
L177.5716 112.0895
" />
<path d="M179.5716 110.0895
L178.6193 110.7562
" />
<path d="M179.5716 111.2324
L177.5716 111.2324
" />
<path d="M177.5716 111.2324
L177.5716 110.4705
" />
<path d="M177.5716 110.4705
L177.6669 110.2800
" />
<path d="M177.6669 110.2800
L177.7621 110.1848
" />
<path d="M177.7621 110.1848
L177.9526 110.0895
" />
<path d="M177.9526 110.0895
L178.2383 110.0895
" />
<path d="M178.2383 110.0895
L178.4288 110.1848
" />
<path d="M178.4288 110.1848
L178.5240 110.2800
" />
<path d="M178.5240 110.2800
L178.6193 110.4705
" />
<path d="M178.6193 110.4705
L178.6193 111.2324
" />
</g></g> 
</svg>
