M48
; DRILL file {KiCad 8.0.1-8.0.1-0~ubuntu20.04.1} date 2024-09-17T23:04:18+0200
; FORMAT={-:-/ absolute / inch / decimal}
; #@! TF.CreationDate,2024-09-17T23:04:18+02:00
; #@! TF.GenerationSoftware,Kicad,Pcbnew,8.0.1-8.0.1-0~ubuntu20.04.1
; #@! TF.FileFunction,MixedPlating,1,2
FMAT,2
INCH
; #@! TA.AperFunction,Plated,PTH,ComponentDrill
T1C0.0394
; #@! TA.AperFunction,Plated,PTH,ComponentDrill
T2C0.1220
%
G90
G05
T1
X5.3333Y-2.4652
X5.3333Y-2.5652
X5.3333Y-2.6652
X5.3333Y-2.7652
X5.3333Y-2.8652
X5.3333Y-2.9652
X5.3333Y-3.0652
X5.3333Y-3.1652
X5.3333Y-3.2652
X5.3333Y-3.3652
X5.3333Y-3.4652
X5.3333Y-3.5652
X5.3333Y-3.6652
X5.3333Y-3.7652
X5.3333Y-3.8652
X5.3333Y-3.9652
X5.3333Y-4.0652
X5.3333Y-4.1652
X5.3333Y-4.2652
X5.4841Y-2.4661
X5.4841Y-2.5661
X5.4841Y-2.6661
X5.4841Y-2.7661
X5.4841Y-2.8661
X5.4841Y-2.9661
X5.4841Y-3.0661
X5.4841Y-3.1661
X5.4841Y-3.2661
X5.4841Y-3.3661
X5.4841Y-3.4661
X5.4841Y-3.5661
X5.4841Y-3.6661
X5.4841Y-3.7661
X5.4841Y-3.8661
X5.4841Y-3.9661
X5.4841Y-4.0661
X5.4841Y-4.1661
X5.4841Y-4.2661
X5.5396Y-4.7372
X5.8396Y-4.7372
X5.99Y-4.4385
X5.99Y-4.5385
X5.99Y-4.6385
X5.99Y-4.7385
X5.99Y-4.8385
X5.99Y-4.9385
X5.99Y-5.0385
X6.484Y-4.166
X6.484Y-4.266
X6.4841Y-2.4661
X6.4841Y-2.5661
X6.4841Y-2.6661
X6.4841Y-2.7661
X6.4841Y-2.8661
X6.4841Y-2.9661
X6.4841Y-3.0661
X6.4841Y-3.1661
X6.4841Y-3.2661
X6.4841Y-3.3661
X6.4841Y-3.4661
X6.4841Y-3.5661
X6.4841Y-3.6661
X6.4841Y-3.7661
X6.4841Y-3.8661
X6.4841Y-3.9661
X6.4841Y-4.0661
X6.49Y-4.6696
X6.49Y-4.8074
X6.6333Y-2.465
X6.6333Y-2.565
X6.6333Y-2.665
X6.6333Y-2.765
X6.6333Y-2.865
X6.6333Y-2.965
X6.6333Y-3.065
X6.6333Y-3.165
X6.6333Y-3.265
X6.6333Y-3.365
X6.6333Y-3.465
X6.6333Y-3.565
X6.6333Y-3.665
X6.6333Y-3.765
X6.6333Y-3.865
X6.6333Y-3.965
X6.6333Y-4.065
X6.6333Y-4.165
X6.6333Y-4.265
X6.868Y-2.8676
X6.868Y-2.966
X6.868Y-3.0644
X6.868Y-3.1629
X6.868Y-3.9281
X6.868Y-4.0266
X6.868Y-4.5285
X6.868Y-4.627
T2
X5.36Y-4.97
X6.89Y-4.97
X6.8917Y-2.5679
M30
