G04 #@! TF.GenerationSoftware,KiCad,Pcbnew,8.0.1-8.0.1-0~ubuntu20.04.1*
G04 #@! TF.CreationDate,2024-10-06T11:07:13+02:00*
G04 #@! TF.ProjectId,multiroomroom_board,6d756c74-6972-46f6-9f6d-726f6f6d5f62,rev?*
G04 #@! TF.SameCoordinates,Original*
G04 #@! TF.FileFunction,Copper,L2,Bot*
G04 #@! TF.FilePolarity,Positive*
%FSLAX46Y46*%
G04 Gerber Fmt 4.6, Leading zero omitted, Abs format (unit mm)*
G04 Created by KiCad (PCBNEW 8.0.1-8.0.1-0~ubuntu20.04.1) date 2024-10-06 11:07:13*
%MOMM*%
%LPD*%
G01*
G04 APERTURE LIST*
G04 #@! TA.AperFunction,ComponentPad*
%ADD10O,3.000000X1.700000*%
G04 #@! TD*
G04 #@! TA.AperFunction,ComponentPad*
%ADD11C,3.300000*%
G04 #@! TD*
G04 #@! TA.AperFunction,Conductor*
%ADD12C,0.800000*%
G04 #@! TD*
G04 APERTURE END LIST*
D10*
G04 #@! TO.P,U2,1,LRC*
G04 #@! TO.N,BCK*
X152146000Y-112739000D03*
G04 #@! TO.P,U2,2,BCLK*
G04 #@! TO.N,LRCK*
X152146000Y-115279000D03*
G04 #@! TO.P,U2,3,DIN*
G04 #@! TO.N,DIN*
X152146000Y-117819000D03*
G04 #@! TO.P,U2,4,GAIN*
G04 #@! TO.N,Net-(U2-GAIN)*
X152146000Y-120359000D03*
G04 #@! TO.P,U2,5,SD*
G04 #@! TO.N,unconnected-(U2-SD-Pad5)*
X152146000Y-122899000D03*
G04 #@! TO.P,U2,6,GND*
G04 #@! TO.N,GND*
X152146000Y-125439000D03*
G04 #@! TO.P,U2,7,VCC*
G04 #@! TO.N,+5V*
X152146000Y-127979000D03*
G04 #@! TO.P,U2,8,OUT-*
G04 #@! TO.N,Net-(J2-Pin_1)*
X164846000Y-118609000D03*
G04 #@! TO.P,U2,9,OUT+*
G04 #@! TO.N,Net-(J2-Pin_2)*
X164846000Y-122109000D03*
G04 #@! TD*
G04 #@! TO.P,J5,1,Pin_1*
G04 #@! TO.N,ENCODER B*
X174447200Y-72836400D03*
G04 #@! TO.P,J5,2,Pin_2*
G04 #@! TO.N,ENCODER A*
X174447200Y-75336400D03*
G04 #@! TO.P,J5,3,Pin_3*
G04 #@! TO.N,ENCODER SW*
X174447200Y-77836400D03*
G04 #@! TO.P,J5,4,Pin_4*
G04 #@! TO.N,GND*
X174447200Y-80336400D03*
G04 #@! TD*
D11*
G04 #@! TO.P,REF\u002A\u002A,*
G04 #@! TO.N,*
X175050000Y-65225000D03*
G04 #@! TD*
G04 #@! TO.P,REF\u002A\u002A,*
G04 #@! TO.N,*
X136144000Y-126238000D03*
G04 #@! TD*
D10*
G04 #@! TO.P,R1,1*
G04 #@! TO.N,GND*
X140707000Y-120325000D03*
G04 #@! TO.P,R1,2*
G04 #@! TO.N,Net-(U2-GAIN)*
X148327000Y-120325000D03*
G04 #@! TD*
D11*
G04 #@! TO.P,REF\u002A\u002A,*
G04 #@! TO.N,*
X175006000Y-126238000D03*
G04 #@! TD*
D10*
G04 #@! TO.P,U1,1,3V3*
G04 #@! TO.N,+3.3V*
X139297280Y-62639120D03*
G04 #@! TO.P,U1,2,CHIP_PU*
G04 #@! TO.N,EN*
X139297280Y-65179120D03*
G04 #@! TO.P,U1,3,SENSOR_VP/GPIO36/ADC1_CH0*
G04 #@! TO.N,SENSOR_VP*
X139297280Y-67719120D03*
G04 #@! TO.P,U1,4,SENSOR_VN/GPIO39/ADC1_CH3*
G04 #@! TO.N,SENSOR_VN*
X139297280Y-70259120D03*
G04 #@! TO.P,U1,5,VDET_1/GPIO34/ADC1_CH6*
G04 #@! TO.N,D34*
X139297280Y-72799120D03*
G04 #@! TO.P,U1,6,VDET_2/GPIO35/ADC1_CH7*
G04 #@! TO.N,D35*
X139297280Y-75339120D03*
G04 #@! TO.P,U1,7,32K_XP/GPIO32/ADC1_CH4*
G04 #@! TO.N,DIN*
X139297280Y-77879120D03*
G04 #@! TO.P,U1,8,32K_XN/GPIO33/ADC1_CH5*
G04 #@! TO.N,LRCK*
X139297280Y-80419120D03*
G04 #@! TO.P,U1,9,DAC_1/ADC2_CH8/GPIO25*
G04 #@! TO.N,BCK*
X139297280Y-82959120D03*
G04 #@! TO.P,U1,10,DAC_2/ADC2_CH9/GPIO26*
G04 #@! TO.N,D26*
X139297280Y-85499120D03*
G04 #@! TO.P,U1,11,ADC2_CH7/GPIO27*
G04 #@! TO.N,D27*
X139297280Y-88039120D03*
G04 #@! TO.P,U1,12,MTMS/GPIO14/ADC2_CH6*
G04 #@! TO.N,D14*
X139297280Y-90579120D03*
G04 #@! TO.P,U1,13,MTDI/GPIO12/ADC2_CH5*
G04 #@! TO.N,D12*
X139297280Y-93119120D03*
G04 #@! TO.P,U1,14,GND*
G04 #@! TO.N,GND*
X139297280Y-95659120D03*
G04 #@! TO.P,U1,15,MTCK/GPIO13/ADC2_CH4*
G04 #@! TO.N,D13*
X139297280Y-98199120D03*
G04 #@! TO.P,U1,16,SD_DATA2/GPIO9*
G04 #@! TO.N,SD2*
X139297280Y-100739120D03*
G04 #@! TO.P,U1,17,SD_DATA3/GPIO10*
G04 #@! TO.N,SD3*
X139297280Y-103279120D03*
G04 #@! TO.P,U1,18,CMD*
G04 #@! TO.N,CMD*
X139297280Y-105819120D03*
G04 #@! TO.P,U1,19,5V*
G04 #@! TO.N,+5V*
X139297280Y-108359120D03*
G04 #@! TO.P,U1,20,SD_CLK/GPIO6*
G04 #@! TO.N,CLK*
X164693600Y-108356400D03*
G04 #@! TO.P,U1,21,SD_DATA0/GPIO7*
G04 #@! TO.N,SD0*
X164693600Y-105816400D03*
G04 #@! TO.P,U1,22,SD_DATA1/GPIO8*
G04 #@! TO.N,SD1*
X164697280Y-103279120D03*
G04 #@! TO.P,U1,23,MTDO/GPIO15/ADC2_CH3*
G04 #@! TO.N,D15*
X164697280Y-100739120D03*
G04 #@! TO.P,U1,24,ADC2_CH2/GPIO2*
G04 #@! TO.N,D2*
X164697280Y-98199120D03*
G04 #@! TO.P,U1,25,GPIO0/BOOT/ADC2_CH1*
G04 #@! TO.N,D0*
X164697280Y-95659120D03*
G04 #@! TO.P,U1,26,ADC2_CH0/GPIO4*
G04 #@! TO.N,DISLAY CS*
X164697280Y-93119120D03*
G04 #@! TO.P,U1,27,GPIO16*
G04 #@! TO.N,D16*
X164697280Y-90579120D03*
G04 #@! TO.P,U1,28,GPIO17*
G04 #@! TO.N,D17*
X164697280Y-88039120D03*
G04 #@! TO.P,U1,29,GPIO5*
G04 #@! TO.N,DISLAY DC*
X164697280Y-85499120D03*
G04 #@! TO.P,U1,30,GPIO18*
G04 #@! TO.N,DISPLAY CLK*
X164697280Y-82959120D03*
G04 #@! TO.P,U1,31,GPIO19*
G04 #@! TO.N,DISPLAY DATA*
X164697280Y-80419120D03*
G04 #@! TO.P,U1,32,GND*
G04 #@! TO.N,GND*
X164697280Y-77879120D03*
G04 #@! TO.P,U1,33,GPIO21*
G04 #@! TO.N,ENCODER SW*
X164697280Y-75339120D03*
G04 #@! TO.P,U1,34,U0RXD/GPIO3*
G04 #@! TO.N,RX*
X164697280Y-72799120D03*
G04 #@! TO.P,U1,35,U0TXD/GPIO1*
G04 #@! TO.N,TX*
X164697280Y-70259120D03*
G04 #@! TO.P,U1,36,GPIO22*
G04 #@! TO.N,ENCODER A*
X164697280Y-67719120D03*
G04 #@! TO.P,U1,37,GPIO23*
G04 #@! TO.N,ENCODER B*
X164697280Y-65179120D03*
G04 #@! TO.P,U1,38,GND*
G04 #@! TO.N,GND*
X164697280Y-62639120D03*
G04 #@! TD*
G04 #@! TO.P,J2,1,Pin_1*
G04 #@! TO.N,Net-(J2-Pin_1)*
X174447200Y-115025000D03*
G04 #@! TO.P,J2,2,Pin_2*
G04 #@! TO.N,Net-(J2-Pin_2)*
X174447200Y-117525000D03*
G04 #@! TD*
G04 #@! TO.P,J7,1,Pin_1*
G04 #@! TO.N,GND*
X168485000Y-62611880D03*
G04 #@! TO.P,J7,2,Pin_2*
G04 #@! TO.N,ENCODER B*
X168485000Y-65151880D03*
G04 #@! TO.P,J7,3,Pin_3*
G04 #@! TO.N,ENCODER A*
X168485000Y-67691880D03*
G04 #@! TO.P,J7,4,Pin_4*
G04 #@! TO.N,TX*
X168485000Y-70231880D03*
G04 #@! TO.P,J7,5,Pin_5*
G04 #@! TO.N,RX*
X168485000Y-72771880D03*
G04 #@! TO.P,J7,6,Pin_6*
G04 #@! TO.N,ENCODER SW*
X168485000Y-75311880D03*
G04 #@! TO.P,J7,7,Pin_7*
G04 #@! TO.N,GND*
X168485000Y-77851880D03*
G04 #@! TO.P,J7,8,Pin_8*
G04 #@! TO.N,DISPLAY DATA*
X168485000Y-80391880D03*
G04 #@! TO.P,J7,9,Pin_9*
G04 #@! TO.N,DISPLAY CLK*
X168485000Y-82931880D03*
G04 #@! TO.P,J7,10,Pin_10*
G04 #@! TO.N,DISLAY DC*
X168485000Y-85471880D03*
G04 #@! TO.P,J7,11,Pin_11*
G04 #@! TO.N,D17*
X168485000Y-88011880D03*
G04 #@! TO.P,J7,12,Pin_12*
G04 #@! TO.N,D16*
X168485000Y-90551880D03*
G04 #@! TO.P,J7,13,Pin_13*
G04 #@! TO.N,DISLAY CS*
X168485000Y-93091880D03*
G04 #@! TO.P,J7,14,Pin_14*
G04 #@! TO.N,D0*
X168485000Y-95631880D03*
G04 #@! TO.P,J7,15,Pin_15*
G04 #@! TO.N,D2*
X168485000Y-98171880D03*
G04 #@! TO.P,J7,16,Pin_16*
G04 #@! TO.N,D15*
X168485000Y-100711880D03*
G04 #@! TO.P,J7,17,Pin_17*
G04 #@! TO.N,SD1*
X168485000Y-103251880D03*
G04 #@! TO.P,J7,18,Pin_18*
G04 #@! TO.N,SD0*
X168485000Y-105791880D03*
G04 #@! TO.P,J7,19,Pin_19*
G04 #@! TO.N,CLK*
X168485000Y-108331880D03*
G04 #@! TD*
G04 #@! TO.P,J1,1,Pin_1*
G04 #@! TO.N,GND*
X174447200Y-99775000D03*
G04 #@! TO.P,J1,2,Pin_2*
G04 #@! TO.N,+5V*
X174447200Y-102275000D03*
G04 #@! TD*
G04 #@! TO.P,J6,1,Pin_1*
G04 #@! TO.N,+3.3V*
X135465000Y-62616880D03*
G04 #@! TO.P,J6,2,Pin_2*
G04 #@! TO.N,EN*
X135465000Y-65156880D03*
G04 #@! TO.P,J6,3,Pin_3*
G04 #@! TO.N,SENSOR_VP*
X135465000Y-67696880D03*
G04 #@! TO.P,J6,4,Pin_4*
G04 #@! TO.N,SENSOR_VN*
X135465000Y-70236880D03*
G04 #@! TO.P,J6,5,Pin_5*
G04 #@! TO.N,D34*
X135465000Y-72776880D03*
G04 #@! TO.P,J6,6,Pin_6*
G04 #@! TO.N,D35*
X135465000Y-75316880D03*
G04 #@! TO.P,J6,7,Pin_7*
G04 #@! TO.N,DIN*
X135465000Y-77856880D03*
G04 #@! TO.P,J6,8,Pin_8*
G04 #@! TO.N,LRCK*
X135465000Y-80396880D03*
G04 #@! TO.P,J6,9,Pin_9*
G04 #@! TO.N,BCK*
X135465000Y-82936880D03*
G04 #@! TO.P,J6,10,Pin_10*
G04 #@! TO.N,D26*
X135465000Y-85476880D03*
G04 #@! TO.P,J6,11,Pin_11*
G04 #@! TO.N,D27*
X135465000Y-88016880D03*
G04 #@! TO.P,J6,12,Pin_12*
G04 #@! TO.N,D14*
X135465000Y-90556880D03*
G04 #@! TO.P,J6,13,Pin_13*
G04 #@! TO.N,D12*
X135465000Y-93096880D03*
G04 #@! TO.P,J6,14,Pin_14*
G04 #@! TO.N,GND*
X135465000Y-95636880D03*
G04 #@! TO.P,J6,15,Pin_15*
G04 #@! TO.N,D13*
X135465000Y-98176880D03*
G04 #@! TO.P,J6,16,Pin_16*
G04 #@! TO.N,SD2*
X135465000Y-100716880D03*
G04 #@! TO.P,J6,17,Pin_17*
G04 #@! TO.N,SD3*
X135465000Y-103256880D03*
G04 #@! TO.P,J6,18,Pin_18*
G04 #@! TO.N,CMD*
X135465000Y-105796880D03*
G04 #@! TO.P,J6,19,Pin_19*
G04 #@! TO.N,+5V*
X135465000Y-108336880D03*
G04 #@! TD*
D12*
G04 #@! TO.N,ENCODER SW*
X164675000Y-75311880D02*
X168485000Y-75311880D01*
X173398062Y-77836400D02*
X170873542Y-75311880D01*
X174447200Y-77836400D02*
X173398062Y-77836400D01*
X170873542Y-75311880D02*
X168485000Y-75311880D01*
G04 #@! TO.N,D12*
X139270000Y-93096880D02*
X139275000Y-93091880D01*
X135465000Y-93096880D02*
X139270000Y-93096880D01*
G04 #@! TO.N,DISPLAY CLK*
X164675000Y-82931880D02*
X168485000Y-82931880D01*
G04 #@! TO.N,D14*
X135465000Y-90556880D02*
X139270000Y-90556880D01*
X139270000Y-90556880D02*
X139275000Y-90551880D01*
G04 #@! TO.N,SENSOR_VN*
X135465000Y-70236880D02*
X139270000Y-70236880D01*
X139270000Y-70236880D02*
X139275000Y-70231880D01*
G04 #@! TO.N,DISLAY CS*
X168485000Y-93091880D02*
X164675000Y-93091880D01*
G04 #@! TO.N,ENCODER B*
X169494138Y-65151880D02*
X172785000Y-68442742D01*
X172785000Y-68442742D02*
X172785000Y-71693000D01*
X173928400Y-72836400D02*
X174447200Y-72836400D01*
X168485000Y-65151880D02*
X169494138Y-65151880D01*
X172785000Y-71693000D02*
X173928400Y-72836400D01*
X164675000Y-65151880D02*
X168485000Y-65151880D01*
X173856880Y-72771880D02*
X174800000Y-72771880D01*
G04 #@! TO.N,SENSOR_VP*
X135465000Y-67696880D02*
X139270000Y-67696880D01*
X139270000Y-67696880D02*
X139275000Y-67691880D01*
G04 #@! TO.N,DISPLAY DATA*
X164675000Y-80391880D02*
X168485000Y-80391880D01*
G04 #@! TO.N,EN*
X139270000Y-65156880D02*
X139275000Y-65151880D01*
X135465000Y-65156880D02*
X139270000Y-65156880D01*
G04 #@! TO.N,D34*
X139270000Y-72776880D02*
X139275000Y-72771880D01*
X135465000Y-72776880D02*
X139270000Y-72776880D01*
G04 #@! TO.N,D13*
X135465000Y-98176880D02*
X139270000Y-98176880D01*
X139270000Y-98176880D02*
X139275000Y-98171880D01*
G04 #@! TO.N,ENCODER A*
X169494138Y-67691880D02*
X168485000Y-67691880D01*
X173160804Y-75336400D02*
X171185000Y-73360596D01*
X171185000Y-69382742D02*
X169494138Y-67691880D01*
X174447200Y-75336400D02*
X173160804Y-75336400D01*
X171185000Y-73360596D02*
X171185000Y-69382742D01*
X164675000Y-67691880D02*
X168485000Y-67691880D01*
G04 #@! TO.N,D35*
X139270000Y-75316880D02*
X139275000Y-75311880D01*
X135465000Y-75316880D02*
X139270000Y-75316880D01*
G04 #@! TO.N,+5V*
X167677000Y-127979000D02*
X177147200Y-118508800D01*
X144503000Y-127979000D02*
X167677000Y-127979000D01*
X177147200Y-118508800D02*
X177147200Y-104597200D01*
X177147200Y-104597200D02*
X174825000Y-102275000D01*
X135465000Y-108336880D02*
X135465000Y-119015000D01*
X135465000Y-108336880D02*
X139270000Y-108336880D01*
X144466000Y-128016000D02*
X144503000Y-127979000D01*
X135465000Y-119015000D02*
X144466000Y-128016000D01*
X139270000Y-108336880D02*
X139275000Y-108331880D01*
G04 #@! TO.N,DISLAY DC*
X164675000Y-85471880D02*
X168485000Y-85471880D01*
G04 #@! TO.N,Net-(J2-Pin_1)*
X168816396Y-115925000D02*
X172498062Y-115925000D01*
X173398062Y-115025000D02*
X174447200Y-115025000D01*
X172498062Y-115925000D02*
X173398062Y-115025000D01*
X164846000Y-118609000D02*
X166132396Y-118609000D01*
X166132396Y-118609000D02*
X168816396Y-115925000D01*
G04 #@! TO.N,+3.3V*
X135465000Y-62616880D02*
X139270000Y-62616880D01*
X139270000Y-62616880D02*
X139275000Y-62611880D01*
G04 #@! TO.N,D27*
X135465000Y-88016880D02*
X139270000Y-88016880D01*
X139270000Y-88016880D02*
X139275000Y-88011880D01*
G04 #@! TO.N,D26*
X135465000Y-85476880D02*
X139270000Y-85476880D01*
X139270000Y-85476880D02*
X139275000Y-85471880D01*
G04 #@! TO.N,CMD*
X139270000Y-105796880D02*
X139275000Y-105791880D01*
X135465000Y-105796880D02*
X139270000Y-105796880D01*
G04 #@! TO.N,D2*
X168485000Y-98171880D02*
X164675000Y-98171880D01*
G04 #@! TO.N,DIN*
X141224138Y-78791880D02*
X140284138Y-77851880D01*
X140284138Y-77851880D02*
X139275000Y-77851880D01*
X152146000Y-117819000D02*
X153155138Y-117819000D01*
X139270000Y-77856880D02*
X135465000Y-77856880D01*
X157775000Y-113199138D02*
X157775000Y-84425000D01*
X152141880Y-78791880D02*
X141224138Y-78791880D01*
X153155138Y-117819000D02*
X157775000Y-113199138D01*
X139275000Y-77851880D02*
X139270000Y-77856880D01*
X157775000Y-84425000D02*
X152141880Y-78791880D01*
G04 #@! TO.N,LRCK*
X153199000Y-115279000D02*
X156175000Y-112303000D01*
X156175000Y-112303000D02*
X156175000Y-85087742D01*
X151479138Y-80391880D02*
X139275000Y-80391880D01*
X156175000Y-85087742D02*
X151479138Y-80391880D01*
X139275000Y-80391880D02*
X139270000Y-80396880D01*
X139270000Y-80396880D02*
X135465000Y-80396880D01*
X152146000Y-115279000D02*
X153199000Y-115279000D01*
G04 #@! TO.N,BCK*
X135465000Y-82936880D02*
X139270000Y-82936880D01*
X150816396Y-81991880D02*
X154575000Y-85750484D01*
X139297280Y-82959120D02*
X140306418Y-82959120D01*
X154575000Y-111640258D02*
X153476258Y-112739000D01*
X140306418Y-82959120D02*
X141273658Y-81991880D01*
X154575000Y-85750484D02*
X154575000Y-111640258D01*
X141273658Y-81991880D02*
X150816396Y-81991880D01*
X139270000Y-82936880D02*
X139275000Y-82931880D01*
X153476258Y-112739000D02*
X152146000Y-112739000D01*
G04 #@! TO.N,SD0*
X168482280Y-105789160D02*
X168485000Y-105791880D01*
X164671320Y-105789160D02*
X168482280Y-105789160D01*
G04 #@! TO.N,CLK*
X168482280Y-108329160D02*
X168485000Y-108331880D01*
X164671320Y-108329160D02*
X168482280Y-108329160D01*
G04 #@! TO.N,SD1*
X164675000Y-103251880D02*
X168485000Y-103251880D01*
G04 #@! TO.N,TX*
X164675000Y-70231880D02*
X168485000Y-70231880D01*
G04 #@! TO.N,RX*
X164675000Y-72771880D02*
X168485000Y-72771880D01*
G04 #@! TO.N,D15*
X164675000Y-100711880D02*
X168485000Y-100711880D01*
G04 #@! TO.N,D16*
X164675000Y-90551880D02*
X168485000Y-90551880D01*
G04 #@! TO.N,D17*
X168485000Y-88011880D02*
X164675000Y-88011880D01*
G04 #@! TO.N,D0*
X164675000Y-95631880D02*
X168485000Y-95631880D01*
G04 #@! TO.N,SD2*
X135465000Y-100716880D02*
X139270000Y-100716880D01*
X139270000Y-100716880D02*
X139275000Y-100711880D01*
G04 #@! TO.N,SD3*
X135465000Y-103256880D02*
X139270000Y-103256880D01*
X139270000Y-103256880D02*
X139275000Y-103251880D01*
G04 #@! TO.N,Net-(J2-Pin_2)*
X169479138Y-117525000D02*
X164895138Y-122109000D01*
X164895138Y-122109000D02*
X164846000Y-122109000D01*
X174447200Y-117525000D02*
X169479138Y-117525000D01*
G04 #@! TO.N,Net-(U2-GAIN)*
X152425862Y-120325000D02*
X152459862Y-120359000D01*
X148361000Y-120359000D02*
X148327000Y-120325000D01*
X152146000Y-120359000D02*
X148361000Y-120359000D01*
G04 #@! TD*
G04 #@! TA.AperFunction,Conductor*
G04 #@! TO.N,GND*
G36*
X133289818Y-61019528D02*
G01*
X133401046Y-61076202D01*
X133489318Y-61164474D01*
X133545992Y-61275702D01*
X133565520Y-61399000D01*
X133545992Y-61522298D01*
X133489318Y-61633526D01*
X133403365Y-61751829D01*
X133285422Y-61983304D01*
X133285421Y-61983307D01*
X133205140Y-62230385D01*
X133184820Y-62358685D01*
X133164500Y-62486983D01*
X133164500Y-62746777D01*
X133175012Y-62813146D01*
X133205140Y-63003374D01*
X133285421Y-63250452D01*
X133285422Y-63250455D01*
X133403365Y-63481930D01*
X133527185Y-63652354D01*
X133583859Y-63763583D01*
X133603387Y-63886881D01*
X133583858Y-64010179D01*
X133527185Y-64121406D01*
X133403365Y-64291829D01*
X133285422Y-64523304D01*
X133285421Y-64523307D01*
X133205140Y-64770385D01*
X133184820Y-64898685D01*
X133164500Y-65026983D01*
X133164500Y-65286777D01*
X133194980Y-65479224D01*
X133205140Y-65543374D01*
X133285421Y-65790452D01*
X133285422Y-65790455D01*
X133403365Y-66021930D01*
X133527185Y-66192354D01*
X133583859Y-66303583D01*
X133603387Y-66426881D01*
X133583858Y-66550179D01*
X133527185Y-66661406D01*
X133403365Y-66831829D01*
X133285422Y-67063304D01*
X133285421Y-67063307D01*
X133205140Y-67310385D01*
X133184820Y-67438685D01*
X133164500Y-67566983D01*
X133164500Y-67826777D01*
X133188523Y-67978457D01*
X133205140Y-68083374D01*
X133285421Y-68330452D01*
X133285422Y-68330455D01*
X133403365Y-68561930D01*
X133527185Y-68732354D01*
X133583859Y-68843583D01*
X133603387Y-68966881D01*
X133583858Y-69090179D01*
X133527185Y-69201406D01*
X133403365Y-69371829D01*
X133285422Y-69603304D01*
X133285421Y-69603307D01*
X133205140Y-69850385D01*
X133184820Y-69978685D01*
X133164500Y-70106983D01*
X133164500Y-70366777D01*
X133194980Y-70559224D01*
X133205140Y-70623374D01*
X133285421Y-70870452D01*
X133285422Y-70870455D01*
X133403365Y-71101930D01*
X133527185Y-71272354D01*
X133583859Y-71383583D01*
X133603387Y-71506881D01*
X133583858Y-71630179D01*
X133527185Y-71741406D01*
X133403365Y-71911829D01*
X133285422Y-72143304D01*
X133285421Y-72143307D01*
X133205140Y-72390385D01*
X133195713Y-72449905D01*
X133164500Y-72646983D01*
X133164500Y-72906777D01*
X133173927Y-72966297D01*
X133205140Y-73163374D01*
X133285421Y-73410452D01*
X133285422Y-73410455D01*
X133403365Y-73641930D01*
X133527185Y-73812354D01*
X133583859Y-73923583D01*
X133603387Y-74046881D01*
X133583858Y-74170179D01*
X133527185Y-74281406D01*
X133403365Y-74451829D01*
X133285422Y-74683304D01*
X133285421Y-74683307D01*
X133205140Y-74930385D01*
X133184820Y-75058685D01*
X133164500Y-75186983D01*
X133164500Y-75446777D01*
X133194980Y-75639224D01*
X133205140Y-75703374D01*
X133285421Y-75950452D01*
X133285422Y-75950455D01*
X133403365Y-76181930D01*
X133527185Y-76352354D01*
X133583859Y-76463583D01*
X133603387Y-76586881D01*
X133583858Y-76710179D01*
X133527185Y-76821406D01*
X133403365Y-76991829D01*
X133285422Y-77223304D01*
X133285421Y-77223307D01*
X133205140Y-77470385D01*
X133185977Y-77591380D01*
X133164500Y-77726983D01*
X133164500Y-77986777D01*
X133178016Y-78072113D01*
X133205140Y-78243374D01*
X133285421Y-78490452D01*
X133285422Y-78490455D01*
X133403365Y-78721930D01*
X133527185Y-78892354D01*
X133583859Y-79003583D01*
X133603387Y-79126881D01*
X133583858Y-79250179D01*
X133527185Y-79361406D01*
X133403365Y-79531829D01*
X133285422Y-79763304D01*
X133285421Y-79763307D01*
X133205140Y-80010385D01*
X133184820Y-80138685D01*
X133164500Y-80266983D01*
X133164500Y-80526777D01*
X133182972Y-80643407D01*
X133205140Y-80783374D01*
X133285421Y-81030452D01*
X133285422Y-81030455D01*
X133403365Y-81261930D01*
X133527185Y-81432354D01*
X133583859Y-81543583D01*
X133603387Y-81666881D01*
X133583858Y-81790179D01*
X133527185Y-81901406D01*
X133403365Y-82071829D01*
X133285422Y-82303304D01*
X133285421Y-82303307D01*
X133205140Y-82550385D01*
X133184820Y-82678685D01*
X133164500Y-82806983D01*
X133164500Y-83066777D01*
X133184393Y-83192380D01*
X133205140Y-83323374D01*
X133285421Y-83570452D01*
X133285422Y-83570455D01*
X133403365Y-83801930D01*
X133527185Y-83972354D01*
X133583859Y-84083583D01*
X133603387Y-84206881D01*
X133583858Y-84330179D01*
X133527185Y-84441406D01*
X133403365Y-84611829D01*
X133285422Y-84843304D01*
X133285421Y-84843307D01*
X133205140Y-85090385D01*
X133184820Y-85218685D01*
X133164500Y-85346983D01*
X133164500Y-85606777D01*
X133194980Y-85799224D01*
X133205140Y-85863374D01*
X133285421Y-86110452D01*
X133285422Y-86110455D01*
X133403365Y-86341930D01*
X133527185Y-86512354D01*
X133583859Y-86623583D01*
X133603387Y-86746881D01*
X133583858Y-86870179D01*
X133527185Y-86981406D01*
X133403365Y-87151829D01*
X133285422Y-87383304D01*
X133285421Y-87383307D01*
X133205140Y-87630385D01*
X133184820Y-87758685D01*
X133164500Y-87886983D01*
X133164500Y-88146777D01*
X133194980Y-88339224D01*
X133205140Y-88403374D01*
X133285421Y-88650452D01*
X133285422Y-88650455D01*
X133403365Y-88881930D01*
X133527185Y-89052354D01*
X133583859Y-89163583D01*
X133603387Y-89286881D01*
X133583858Y-89410179D01*
X133527185Y-89521406D01*
X133403365Y-89691829D01*
X133285422Y-89923304D01*
X133285421Y-89923307D01*
X133205140Y-90170385D01*
X133184820Y-90298685D01*
X133164500Y-90426983D01*
X133164500Y-90686777D01*
X133194980Y-90879224D01*
X133205140Y-90943374D01*
X133285421Y-91190452D01*
X133285422Y-91190455D01*
X133403365Y-91421930D01*
X133527185Y-91592354D01*
X133583859Y-91703583D01*
X133603387Y-91826881D01*
X133583858Y-91950179D01*
X133527185Y-92061406D01*
X133403365Y-92231829D01*
X133285422Y-92463304D01*
X133285421Y-92463307D01*
X133205140Y-92710385D01*
X133184820Y-92838685D01*
X133164500Y-92966983D01*
X133164500Y-93226777D01*
X133194980Y-93419224D01*
X133205140Y-93483374D01*
X133285421Y-93730452D01*
X133285422Y-93730455D01*
X133403365Y-93961930D01*
X133527494Y-94132779D01*
X133584168Y-94244008D01*
X133603696Y-94367305D01*
X133584167Y-94490603D01*
X133527496Y-94601828D01*
X133403796Y-94772089D01*
X133403792Y-94772094D01*
X133285886Y-95003495D01*
X133210056Y-95236880D01*
X135157894Y-95236880D01*
X135064901Y-95329873D01*
X134999075Y-95443887D01*
X134965000Y-95571054D01*
X134965000Y-95702706D01*
X134999075Y-95829873D01*
X135064901Y-95943887D01*
X135157894Y-96036880D01*
X133210056Y-96036880D01*
X133285886Y-96270264D01*
X133403792Y-96501665D01*
X133403797Y-96501672D01*
X133527495Y-96671930D01*
X133584168Y-96783159D01*
X133603696Y-96906457D01*
X133584167Y-97029754D01*
X133527495Y-97140979D01*
X133403365Y-97311830D01*
X133285422Y-97543304D01*
X133285421Y-97543307D01*
X133205140Y-97790385D01*
X133184820Y-97918685D01*
X133164500Y-98046983D01*
X133164500Y-98306777D01*
X133194980Y-98499224D01*
X133205140Y-98563374D01*
X133285421Y-98810452D01*
X133285422Y-98810455D01*
X133403365Y-99041930D01*
X133527185Y-99212354D01*
X133583859Y-99323583D01*
X133603387Y-99446881D01*
X133583858Y-99570179D01*
X133527185Y-99681406D01*
X133403365Y-99851829D01*
X133285422Y-100083304D01*
X133285421Y-100083307D01*
X133205140Y-100330385D01*
X133192787Y-100408384D01*
X133164500Y-100586983D01*
X133164500Y-100846777D01*
X133173132Y-100901276D01*
X133205140Y-101103374D01*
X133285421Y-101350452D01*
X133285422Y-101350455D01*
X133403365Y-101581930D01*
X133527185Y-101752354D01*
X133583859Y-101863583D01*
X133603387Y-101986881D01*
X133583858Y-102110179D01*
X133527185Y-102221406D01*
X133403365Y-102391829D01*
X133285422Y-102623304D01*
X133285421Y-102623307D01*
X133205140Y-102870385D01*
X133199092Y-102908572D01*
X133164500Y-103126983D01*
X133164500Y-103386777D01*
X133187807Y-103533932D01*
X133205140Y-103643374D01*
X133285421Y-103890452D01*
X133285422Y-103890455D01*
X133403365Y-104121930D01*
X133527185Y-104292354D01*
X133583859Y-104403583D01*
X133603387Y-104526881D01*
X133583858Y-104650179D01*
X133527185Y-104761406D01*
X133403365Y-104931829D01*
X133285422Y-105163304D01*
X133285421Y-105163307D01*
X133205140Y-105410385D01*
X133184820Y-105538685D01*
X133164500Y-105666983D01*
X133164500Y-105926777D01*
X133194980Y-106119224D01*
X133205140Y-106183374D01*
X133285421Y-106430452D01*
X133285422Y-106430455D01*
X133403365Y-106661930D01*
X133527185Y-106832354D01*
X133583859Y-106943583D01*
X133603387Y-107066881D01*
X133583858Y-107190179D01*
X133527185Y-107301406D01*
X133403365Y-107471829D01*
X133285422Y-107703304D01*
X133285421Y-107703307D01*
X133205140Y-107950385D01*
X133184820Y-108078685D01*
X133164500Y-108206983D01*
X133164500Y-108466777D01*
X133194980Y-108659224D01*
X133205140Y-108723374D01*
X133285421Y-108970452D01*
X133285422Y-108970455D01*
X133403365Y-109201930D01*
X133419524Y-109224171D01*
X133556069Y-109412109D01*
X133739771Y-109595811D01*
X133949949Y-109748514D01*
X134046645Y-109797783D01*
X134147635Y-109871157D01*
X134221011Y-109972151D01*
X134259588Y-110090875D01*
X134264500Y-110153293D01*
X134264500Y-118920519D01*
X134264500Y-119109481D01*
X134294060Y-119296118D01*
X134294061Y-119296123D01*
X134352452Y-119475830D01*
X134438241Y-119644201D01*
X134549306Y-119797069D01*
X134549310Y-119797074D01*
X143683926Y-128931690D01*
X143836801Y-129042760D01*
X144005168Y-129128547D01*
X144184882Y-129186940D01*
X144371518Y-129216500D01*
X144371519Y-129216500D01*
X144371521Y-129216500D01*
X144560478Y-129216500D01*
X144560481Y-129216500D01*
X144747118Y-129186940D01*
X144747122Y-129186938D01*
X144762601Y-129184487D01*
X144762981Y-129186888D01*
X144825330Y-129179500D01*
X150210705Y-129179500D01*
X150334003Y-129199028D01*
X150445230Y-129255701D01*
X150630949Y-129390634D01*
X150862428Y-129508579D01*
X151109507Y-129588860D01*
X151366103Y-129629500D01*
X151366106Y-129629500D01*
X152925894Y-129629500D01*
X152925897Y-129629500D01*
X153182493Y-129588860D01*
X153429572Y-129508579D01*
X153661051Y-129390634D01*
X153846769Y-129255701D01*
X153957997Y-129199028D01*
X154081295Y-129179500D01*
X167771478Y-129179500D01*
X167771481Y-129179500D01*
X167958118Y-129149940D01*
X168137832Y-129091547D01*
X168306199Y-129005760D01*
X168459074Y-128894690D01*
X171923192Y-125430571D01*
X172024179Y-125357201D01*
X172142904Y-125318625D01*
X172267738Y-125318625D01*
X172386463Y-125357201D01*
X172487457Y-125430577D01*
X172560833Y-125531571D01*
X172599409Y-125650296D01*
X172599409Y-125775130D01*
X172597254Y-125787477D01*
X172570016Y-125930261D01*
X172570016Y-125930263D01*
X172570016Y-125930264D01*
X172550655Y-126238000D01*
X172570016Y-126545736D01*
X172627794Y-126848619D01*
X172674527Y-126992451D01*
X172723077Y-127141872D01*
X172854367Y-127420875D01*
X173019582Y-127681213D01*
X173216129Y-127918798D01*
X173336898Y-128032207D01*
X173440904Y-128129876D01*
X173440907Y-128129878D01*
X173440908Y-128129879D01*
X173440913Y-128129884D01*
X173690348Y-128311108D01*
X173690354Y-128311112D01*
X173690360Y-128311116D01*
X173960565Y-128459663D01*
X173960567Y-128459664D01*
X174200326Y-128554591D01*
X174247257Y-128573172D01*
X174545914Y-128649854D01*
X174851828Y-128688500D01*
X174851832Y-128688500D01*
X175160168Y-128688500D01*
X175160172Y-128688500D01*
X175466086Y-128649854D01*
X175764743Y-128573172D01*
X176051435Y-128459663D01*
X176321640Y-128311116D01*
X176324354Y-128309143D01*
X176571086Y-128129884D01*
X176571088Y-128129881D01*
X176571096Y-128129876D01*
X176795869Y-127918799D01*
X176992416Y-127681216D01*
X177157635Y-127420871D01*
X177288922Y-127141873D01*
X177384206Y-126848619D01*
X177441984Y-126545736D01*
X177461345Y-126238000D01*
X177441984Y-125930264D01*
X177384206Y-125627381D01*
X177288922Y-125334127D01*
X177157635Y-125055129D01*
X177147336Y-125038901D01*
X177083938Y-124939000D01*
X176992416Y-124794784D01*
X176914661Y-124700795D01*
X176795870Y-124557201D01*
X176632672Y-124403948D01*
X176571096Y-124346124D01*
X176571092Y-124346121D01*
X176571091Y-124346120D01*
X176571086Y-124346115D01*
X176321651Y-124164891D01*
X176321645Y-124164887D01*
X176308992Y-124157931D01*
X176208874Y-124102890D01*
X176051432Y-124016335D01*
X175764752Y-123902831D01*
X175764750Y-123902830D01*
X175764744Y-123902828D01*
X175764743Y-123902828D01*
X175466086Y-123826146D01*
X175160172Y-123787500D01*
X174851828Y-123787500D01*
X174723261Y-123803741D01*
X174536569Y-123827326D01*
X174411796Y-123823404D01*
X174294341Y-123781118D01*
X174195703Y-123704606D01*
X174125536Y-123601357D01*
X174090708Y-123481479D01*
X174094630Y-123356706D01*
X174136916Y-123239251D01*
X174204419Y-123149344D01*
X178062890Y-119290874D01*
X178173960Y-119137999D01*
X178259747Y-118969632D01*
X178318140Y-118789918D01*
X178347700Y-118603282D01*
X178347700Y-118414319D01*
X178347700Y-104502719D01*
X178318140Y-104316082D01*
X178259747Y-104136368D01*
X178173960Y-103968001D01*
X178133778Y-103912695D01*
X178062891Y-103815128D01*
X176864564Y-102616801D01*
X176791188Y-102515807D01*
X176752612Y-102397082D01*
X176747700Y-102334665D01*
X176747700Y-102145105D01*
X176745691Y-102132418D01*
X176707060Y-101888507D01*
X176626779Y-101641428D01*
X176508834Y-101409949D01*
X176399235Y-101259099D01*
X176342562Y-101147871D01*
X176323034Y-101024574D01*
X176342563Y-100901276D01*
X176399235Y-100790049D01*
X176508406Y-100639785D01*
X176508407Y-100639785D01*
X176626313Y-100408384D01*
X176702144Y-100175000D01*
X174754306Y-100175000D01*
X174847299Y-100082007D01*
X174913125Y-99967993D01*
X174947200Y-99840826D01*
X174947200Y-99709174D01*
X174913125Y-99582007D01*
X174847299Y-99467993D01*
X174754305Y-99374999D01*
X174847200Y-99374999D01*
X174847201Y-99375000D01*
X176702144Y-99375000D01*
X176626313Y-99141615D01*
X176508406Y-98910214D01*
X176355752Y-98700101D01*
X176172098Y-98516447D01*
X175961985Y-98363793D01*
X175961980Y-98363790D01*
X175730584Y-98245887D01*
X175730579Y-98245885D01*
X175483577Y-98165629D01*
X175227055Y-98125000D01*
X174847201Y-98125000D01*
X174847200Y-98125001D01*
X174847200Y-99374999D01*
X174754305Y-99374999D01*
X174754207Y-99374901D01*
X174640193Y-99309075D01*
X174513026Y-99275000D01*
X174381374Y-99275000D01*
X174254207Y-99309075D01*
X174140193Y-99374901D01*
X174047101Y-99467993D01*
X173981275Y-99582007D01*
X173947200Y-99709174D01*
X173947200Y-99840826D01*
X173981275Y-99967993D01*
X174047101Y-100082007D01*
X174140094Y-100175000D01*
X172192256Y-100175000D01*
X172268086Y-100408384D01*
X172385992Y-100639784D01*
X172495165Y-100790050D01*
X172551838Y-100901279D01*
X172571365Y-101024577D01*
X172551836Y-101147875D01*
X172495164Y-101259099D01*
X172385565Y-101409950D01*
X172267622Y-101641424D01*
X172267621Y-101641427D01*
X172187340Y-101888505D01*
X172171759Y-101986881D01*
X172146700Y-102145103D01*
X172146700Y-102404897D01*
X172164266Y-102515807D01*
X172187340Y-102661494D01*
X172267621Y-102908572D01*
X172267622Y-102908575D01*
X172385565Y-103140050D01*
X172385566Y-103140051D01*
X172538269Y-103350229D01*
X172721971Y-103533931D01*
X172932149Y-103686634D01*
X173163628Y-103804579D01*
X173410707Y-103884860D01*
X173667303Y-103925500D01*
X174612465Y-103925500D01*
X174735763Y-103945028D01*
X174846991Y-104001702D01*
X174894600Y-104042364D01*
X175829835Y-104977598D01*
X175903212Y-105078592D01*
X175941788Y-105197316D01*
X175946700Y-105259734D01*
X175946700Y-113021304D01*
X175927172Y-113144602D01*
X175870498Y-113255830D01*
X175782226Y-113344102D01*
X175670998Y-113400776D01*
X175547700Y-113420304D01*
X175485284Y-113415392D01*
X175393000Y-113400776D01*
X175227097Y-113374500D01*
X173667303Y-113374500D01*
X173513345Y-113398884D01*
X173410705Y-113415140D01*
X173163627Y-113495421D01*
X173163624Y-113495422D01*
X172932149Y-113613365D01*
X172721973Y-113766067D01*
X172538267Y-113949773D01*
X172385565Y-114159949D01*
X172267623Y-114391422D01*
X172267618Y-114391436D01*
X172265335Y-114398463D01*
X172261980Y-114405045D01*
X172261622Y-114405912D01*
X172261553Y-114405883D01*
X172208660Y-114509691D01*
X172168003Y-114557294D01*
X172117665Y-114607633D01*
X172016673Y-114681010D01*
X171897948Y-114719587D01*
X171835527Y-114724500D01*
X168910877Y-114724500D01*
X168721914Y-114724500D01*
X168535278Y-114754060D01*
X168535272Y-114754061D01*
X168355565Y-114812452D01*
X168187194Y-114898241D01*
X168034326Y-115009306D01*
X168034317Y-115009314D01*
X166166094Y-116877535D01*
X166065101Y-116950911D01*
X165946376Y-116989487D01*
X165821545Y-116989487D01*
X165625897Y-116958500D01*
X164066103Y-116958500D01*
X163912145Y-116982884D01*
X163809505Y-116999140D01*
X163562427Y-117079421D01*
X163562424Y-117079422D01*
X163330949Y-117197365D01*
X163120773Y-117350067D01*
X162937067Y-117533773D01*
X162784365Y-117743949D01*
X162666422Y-117975424D01*
X162666421Y-117975427D01*
X162586140Y-118222505D01*
X162586140Y-118222507D01*
X162545500Y-118479103D01*
X162545500Y-118738897D01*
X162573133Y-118913366D01*
X162586140Y-118995494D01*
X162666421Y-119242572D01*
X162666422Y-119242575D01*
X162784365Y-119474050D01*
X162857346Y-119574500D01*
X162937069Y-119684229D01*
X163120771Y-119867931D01*
X163199320Y-119925000D01*
X163343631Y-120029848D01*
X163342581Y-120031292D01*
X163422884Y-120099880D01*
X163488106Y-120206322D01*
X163517244Y-120327708D01*
X163507445Y-120452158D01*
X163459669Y-120567488D01*
X163378593Y-120662411D01*
X163343469Y-120687929D01*
X163343631Y-120688152D01*
X163120773Y-120850067D01*
X162937067Y-121033773D01*
X162784365Y-121243949D01*
X162666422Y-121475424D01*
X162666421Y-121475427D01*
X162586140Y-121722505D01*
X162571628Y-121814133D01*
X162545500Y-121979103D01*
X162545500Y-122238897D01*
X162557012Y-122311583D01*
X162586140Y-122495494D01*
X162666421Y-122742572D01*
X162666422Y-122742575D01*
X162679939Y-122769103D01*
X162784366Y-122974051D01*
X162937069Y-123184229D01*
X163120771Y-123367931D01*
X163330949Y-123520634D01*
X163562428Y-123638579D01*
X163809507Y-123718860D01*
X164066103Y-123759500D01*
X164066106Y-123759500D01*
X165625894Y-123759500D01*
X165625897Y-123759500D01*
X165882493Y-123718860D01*
X166129572Y-123638579D01*
X166361051Y-123520634D01*
X166571229Y-123367931D01*
X166754931Y-123184229D01*
X166907634Y-122974051D01*
X167025579Y-122742572D01*
X167105860Y-122495493D01*
X167146500Y-122238897D01*
X167146500Y-121979103D01*
X167120370Y-121814127D01*
X167120370Y-121689298D01*
X167158946Y-121570573D01*
X167232322Y-121469579D01*
X167232323Y-121469578D01*
X169859539Y-118842364D01*
X169960532Y-118768988D01*
X170079257Y-118730412D01*
X170141674Y-118725500D01*
X172511905Y-118725500D01*
X172635203Y-118745028D01*
X172746430Y-118801701D01*
X172932149Y-118936634D01*
X173163628Y-119054579D01*
X173410707Y-119134860D01*
X173667303Y-119175500D01*
X173819464Y-119175500D01*
X173942762Y-119195028D01*
X174053990Y-119251702D01*
X174142262Y-119339974D01*
X174198936Y-119451202D01*
X174218464Y-119574500D01*
X174198936Y-119697798D01*
X174142262Y-119809026D01*
X174101600Y-119856636D01*
X167296600Y-126661636D01*
X167195606Y-126735012D01*
X167076881Y-126773588D01*
X167014464Y-126778500D01*
X154616438Y-126778500D01*
X154493140Y-126758972D01*
X154381912Y-126702298D01*
X154293640Y-126614026D01*
X154236966Y-126502798D01*
X154217438Y-126379500D01*
X154236966Y-126256202D01*
X154260927Y-126198357D01*
X154325112Y-126072387D01*
X154400944Y-125839000D01*
X152453106Y-125839000D01*
X152546099Y-125746007D01*
X152611925Y-125631993D01*
X152646000Y-125504826D01*
X152646000Y-125373174D01*
X152611925Y-125246007D01*
X152546099Y-125131993D01*
X152453106Y-125039000D01*
X154400944Y-125039000D01*
X154325113Y-124805615D01*
X154207207Y-124574214D01*
X154207202Y-124574207D01*
X154083504Y-124403949D01*
X154026831Y-124292721D01*
X154007303Y-124169423D01*
X154026832Y-124046125D01*
X154083504Y-123934900D01*
X154207634Y-123764051D01*
X154325579Y-123532572D01*
X154405860Y-123285493D01*
X154446500Y-123028897D01*
X154446500Y-122769103D01*
X154405860Y-122512507D01*
X154325579Y-122265428D01*
X154207634Y-122033949D01*
X154083814Y-121863525D01*
X154027141Y-121752298D01*
X154007612Y-121629001D01*
X154027140Y-121505703D01*
X154083812Y-121394476D01*
X154207634Y-121224051D01*
X154325579Y-120992572D01*
X154405860Y-120745493D01*
X154446500Y-120488897D01*
X154446500Y-120229103D01*
X154405860Y-119972507D01*
X154325579Y-119725428D01*
X154207634Y-119493949D01*
X154083814Y-119323525D01*
X154027141Y-119212298D01*
X154007612Y-119089001D01*
X154027140Y-118965703D01*
X154083812Y-118854476D01*
X154207634Y-118684051D01*
X154325579Y-118452572D01*
X154347116Y-118386286D01*
X154403788Y-118275061D01*
X154444445Y-118227455D01*
X158690689Y-113981212D01*
X158692660Y-113978500D01*
X158714098Y-113948992D01*
X158773403Y-113867368D01*
X158780143Y-113858090D01*
X158801760Y-113828338D01*
X158887547Y-113659970D01*
X158897772Y-113628500D01*
X158945940Y-113480256D01*
X158975500Y-113293619D01*
X158975500Y-84330519D01*
X158945940Y-84143882D01*
X158887547Y-83964168D01*
X158801760Y-83795801D01*
X158690690Y-83642927D01*
X158557073Y-83509310D01*
X152923954Y-77876190D01*
X152923950Y-77876187D01*
X152923949Y-77876186D01*
X152771081Y-77765121D01*
X152602710Y-77679332D01*
X152423003Y-77620941D01*
X152422999Y-77620940D01*
X152422998Y-77620940D01*
X152236361Y-77591380D01*
X152236358Y-77591380D01*
X141886673Y-77591380D01*
X141763375Y-77571852D01*
X141652147Y-77515178D01*
X141604541Y-77474519D01*
X141593343Y-77463321D01*
X141519969Y-77362330D01*
X141496010Y-77304487D01*
X141483322Y-77265440D01*
X141476859Y-77245548D01*
X141358914Y-77014069D01*
X141235094Y-76843645D01*
X141178421Y-76732418D01*
X141158892Y-76609121D01*
X141178420Y-76485823D01*
X141235092Y-76374596D01*
X141358914Y-76204171D01*
X141476859Y-75972692D01*
X141557140Y-75725613D01*
X141597780Y-75469017D01*
X141597780Y-75209223D01*
X141557140Y-74952627D01*
X141476859Y-74705548D01*
X141358914Y-74474069D01*
X141235094Y-74303645D01*
X141178421Y-74192418D01*
X141158892Y-74069121D01*
X141178420Y-73945823D01*
X141235092Y-73834596D01*
X141358914Y-73664171D01*
X141476859Y-73432692D01*
X141557140Y-73185613D01*
X141597780Y-72929017D01*
X141597780Y-72669223D01*
X141557140Y-72412627D01*
X141476859Y-72165548D01*
X141358914Y-71934069D01*
X141235094Y-71763645D01*
X141178421Y-71652418D01*
X141158892Y-71529121D01*
X141178420Y-71405823D01*
X141235092Y-71294596D01*
X141358914Y-71124171D01*
X141476859Y-70892692D01*
X141557140Y-70645613D01*
X141597780Y-70389017D01*
X141597780Y-70129223D01*
X141557140Y-69872627D01*
X141476859Y-69625548D01*
X141358914Y-69394069D01*
X141235094Y-69223645D01*
X141178421Y-69112418D01*
X141158892Y-68989121D01*
X141178420Y-68865823D01*
X141235092Y-68754596D01*
X141358914Y-68584171D01*
X141476859Y-68352692D01*
X141557140Y-68105613D01*
X141597780Y-67849017D01*
X141597780Y-67589223D01*
X141557140Y-67332627D01*
X141476859Y-67085548D01*
X141358914Y-66854069D01*
X141235094Y-66683645D01*
X141178421Y-66572418D01*
X141158892Y-66449121D01*
X141178420Y-66325823D01*
X141235092Y-66214596D01*
X141358914Y-66044171D01*
X141476859Y-65812692D01*
X141557140Y-65565613D01*
X141597780Y-65309017D01*
X141597780Y-65049223D01*
X141557140Y-64792627D01*
X141476859Y-64545548D01*
X141358914Y-64314069D01*
X141235094Y-64143645D01*
X141178421Y-64032418D01*
X141158892Y-63909121D01*
X141178420Y-63785823D01*
X141235092Y-63674596D01*
X141358914Y-63504171D01*
X141476859Y-63272692D01*
X141557140Y-63025613D01*
X141597780Y-62769017D01*
X141597780Y-62509223D01*
X141557140Y-62252627D01*
X141476859Y-62005548D01*
X141358914Y-61774069D01*
X141339316Y-61747094D01*
X141256804Y-61633526D01*
X141200130Y-61522297D01*
X141180602Y-61398999D01*
X141200131Y-61275701D01*
X141256805Y-61164473D01*
X141345076Y-61076202D01*
X141456305Y-61019528D01*
X141579602Y-61000000D01*
X162415577Y-61000000D01*
X162538875Y-61019528D01*
X162650103Y-61076202D01*
X162738375Y-61164474D01*
X162795049Y-61275702D01*
X162814577Y-61399000D01*
X162795049Y-61522298D01*
X162738376Y-61633525D01*
X162636073Y-61774334D01*
X162636072Y-61774334D01*
X162518166Y-62005735D01*
X162442336Y-62239120D01*
X164390174Y-62239120D01*
X164297181Y-62332113D01*
X164231355Y-62446127D01*
X164197280Y-62573294D01*
X164197280Y-62704946D01*
X164231355Y-62832113D01*
X164297181Y-62946127D01*
X164390174Y-63039120D01*
X162442336Y-63039120D01*
X162518166Y-63272504D01*
X162636072Y-63503905D01*
X162636077Y-63503912D01*
X162759775Y-63674170D01*
X162816448Y-63785399D01*
X162835976Y-63908697D01*
X162816447Y-64031994D01*
X162759775Y-64143219D01*
X162635645Y-64314070D01*
X162517702Y-64545544D01*
X162517701Y-64545547D01*
X162437420Y-64792625D01*
X162437420Y-64792627D01*
X162400303Y-65026983D01*
X162396780Y-65049225D01*
X162396780Y-65309014D01*
X162437420Y-65565614D01*
X162517701Y-65812692D01*
X162517702Y-65812695D01*
X162635645Y-66044170D01*
X162759465Y-66214594D01*
X162816139Y-66325823D01*
X162835667Y-66449121D01*
X162816138Y-66572419D01*
X162759465Y-66683646D01*
X162635645Y-66854069D01*
X162517702Y-67085544D01*
X162517701Y-67085547D01*
X162437420Y-67332625D01*
X162437420Y-67332627D01*
X162400303Y-67566983D01*
X162396780Y-67589225D01*
X162396780Y-67849014D01*
X162437420Y-68105614D01*
X162517701Y-68352692D01*
X162517702Y-68352695D01*
X162635645Y-68584170D01*
X162759465Y-68754594D01*
X162816139Y-68865823D01*
X162835667Y-68989121D01*
X162816138Y-69112419D01*
X162759465Y-69223646D01*
X162635645Y-69394069D01*
X162517702Y-69625544D01*
X162517701Y-69625547D01*
X162437420Y-69872625D01*
X162437420Y-69872627D01*
X162400303Y-70106983D01*
X162396780Y-70129225D01*
X162396780Y-70389014D01*
X162437420Y-70645614D01*
X162517701Y-70892692D01*
X162517702Y-70892695D01*
X162635645Y-71124170D01*
X162759465Y-71294594D01*
X162816139Y-71405823D01*
X162835667Y-71529121D01*
X162816138Y-71652419D01*
X162759465Y-71763646D01*
X162635645Y-71934069D01*
X162517702Y-72165544D01*
X162517701Y-72165547D01*
X162437420Y-72412625D01*
X162417100Y-72540925D01*
X162396780Y-72669223D01*
X162396780Y-72929017D01*
X162427260Y-73121464D01*
X162437420Y-73185614D01*
X162517701Y-73432692D01*
X162517702Y-73432695D01*
X162635645Y-73664170D01*
X162759465Y-73834594D01*
X162816139Y-73945823D01*
X162835667Y-74069121D01*
X162816138Y-74192419D01*
X162759465Y-74303646D01*
X162635645Y-74474069D01*
X162517702Y-74705544D01*
X162517701Y-74705547D01*
X162437420Y-74952625D01*
X162437420Y-74952627D01*
X162397211Y-75206505D01*
X162396780Y-75209225D01*
X162396780Y-75469014D01*
X162437420Y-75725614D01*
X162517701Y-75972692D01*
X162517702Y-75972695D01*
X162635645Y-76204170D01*
X162759774Y-76375019D01*
X162816448Y-76486248D01*
X162835976Y-76609545D01*
X162816447Y-76732843D01*
X162759776Y-76844068D01*
X162636076Y-77014329D01*
X162636072Y-77014334D01*
X162518166Y-77245735D01*
X162442336Y-77479120D01*
X164390174Y-77479120D01*
X164297181Y-77572113D01*
X164231355Y-77686127D01*
X164197280Y-77813294D01*
X164197280Y-77944946D01*
X164231355Y-78072113D01*
X164297181Y-78186127D01*
X164390174Y-78279120D01*
X162442336Y-78279120D01*
X162518166Y-78512504D01*
X162636072Y-78743905D01*
X162636077Y-78743912D01*
X162759775Y-78914170D01*
X162816448Y-79025399D01*
X162835976Y-79148697D01*
X162816447Y-79271994D01*
X162759775Y-79383219D01*
X162635645Y-79554070D01*
X162517702Y-79785544D01*
X162517701Y-79785547D01*
X162437420Y-80032625D01*
X162417100Y-80160925D01*
X162400303Y-80266983D01*
X162396780Y-80289225D01*
X162396780Y-80549014D01*
X162437420Y-80805614D01*
X162517701Y-81052692D01*
X162517702Y-81052695D01*
X162635645Y-81284170D01*
X162759465Y-81454594D01*
X162816139Y-81565823D01*
X162835667Y-81689121D01*
X162816138Y-81812419D01*
X162759465Y-81923646D01*
X162635645Y-82094069D01*
X162517702Y-82325544D01*
X162517701Y-82325547D01*
X162437420Y-82572625D01*
X162437420Y-82572627D01*
X162400303Y-82806983D01*
X162396780Y-82829225D01*
X162396780Y-83089014D01*
X162437420Y-83345614D01*
X162517701Y-83592692D01*
X162517702Y-83592695D01*
X162635645Y-83824170D01*
X162759465Y-83994594D01*
X162816139Y-84105823D01*
X162835667Y-84229121D01*
X162816138Y-84352419D01*
X162759465Y-84463646D01*
X162635645Y-84634069D01*
X162517702Y-84865544D01*
X162517701Y-84865547D01*
X162437420Y-85112625D01*
X162437420Y-85112627D01*
X162400303Y-85346983D01*
X162396780Y-85369225D01*
X162396780Y-85629014D01*
X162437420Y-85885614D01*
X162517701Y-86132692D01*
X162517702Y-86132695D01*
X162635645Y-86364170D01*
X162759465Y-86534594D01*
X162816139Y-86645823D01*
X162835667Y-86769121D01*
X162816138Y-86892419D01*
X162759465Y-87003646D01*
X162635645Y-87174069D01*
X162517702Y-87405544D01*
X162517701Y-87405547D01*
X162437420Y-87652625D01*
X162437420Y-87652627D01*
X162400303Y-87886983D01*
X162396780Y-87909225D01*
X162396780Y-88169014D01*
X162437420Y-88425614D01*
X162517701Y-88672692D01*
X162517702Y-88672695D01*
X162635645Y-88904170D01*
X162759465Y-89074594D01*
X162816139Y-89185823D01*
X162835667Y-89309121D01*
X162816138Y-89432419D01*
X162759465Y-89543646D01*
X162635645Y-89714069D01*
X162517702Y-89945544D01*
X162517701Y-89945547D01*
X162437420Y-90192625D01*
X162437420Y-90192627D01*
X162400303Y-90426983D01*
X162396780Y-90449225D01*
X162396780Y-90709014D01*
X162437420Y-90965614D01*
X162517701Y-91212692D01*
X162517702Y-91212695D01*
X162635645Y-91444170D01*
X162759465Y-91614594D01*
X162816139Y-91725823D01*
X162835667Y-91849121D01*
X162816138Y-91972419D01*
X162759465Y-92083646D01*
X162635645Y-92254069D01*
X162517702Y-92485544D01*
X162517701Y-92485547D01*
X162437420Y-92732625D01*
X162437420Y-92732627D01*
X162400303Y-92966983D01*
X162396780Y-92989225D01*
X162396780Y-93249014D01*
X162437420Y-93505614D01*
X162517701Y-93752692D01*
X162517702Y-93752695D01*
X162635645Y-93984170D01*
X162759465Y-94154594D01*
X162816139Y-94265823D01*
X162835667Y-94389121D01*
X162816138Y-94512419D01*
X162759465Y-94623646D01*
X162635645Y-94794069D01*
X162517702Y-95025544D01*
X162517701Y-95025547D01*
X162437420Y-95272625D01*
X162437420Y-95272627D01*
X162396780Y-95529223D01*
X162396780Y-95789017D01*
X162421309Y-95943887D01*
X162437420Y-96045614D01*
X162517701Y-96292692D01*
X162517702Y-96292695D01*
X162635645Y-96524170D01*
X162759465Y-96694594D01*
X162816139Y-96805823D01*
X162835667Y-96929121D01*
X162816138Y-97052419D01*
X162759465Y-97163646D01*
X162635645Y-97334069D01*
X162517702Y-97565544D01*
X162517701Y-97565547D01*
X162437420Y-97812625D01*
X162437420Y-97812627D01*
X162396780Y-98069223D01*
X162396780Y-98329017D01*
X162402288Y-98363793D01*
X162437420Y-98585614D01*
X162517701Y-98832692D01*
X162517702Y-98832695D01*
X162635645Y-99064170D01*
X162759465Y-99234594D01*
X162816139Y-99345823D01*
X162835667Y-99469121D01*
X162816138Y-99592419D01*
X162759465Y-99703646D01*
X162635645Y-99874069D01*
X162517702Y-100105544D01*
X162517701Y-100105547D01*
X162437420Y-100352625D01*
X162437420Y-100352627D01*
X162396780Y-100609223D01*
X162396780Y-100869017D01*
X162401890Y-100901279D01*
X162437420Y-101125614D01*
X162517701Y-101372692D01*
X162517702Y-101372695D01*
X162635645Y-101604170D01*
X162759465Y-101774594D01*
X162816139Y-101885823D01*
X162835667Y-102009121D01*
X162816138Y-102132419D01*
X162759465Y-102243646D01*
X162635645Y-102414069D01*
X162517702Y-102645544D01*
X162517701Y-102645547D01*
X162437420Y-102892625D01*
X162434894Y-102908575D01*
X162400303Y-103126983D01*
X162396780Y-103149225D01*
X162396780Y-103409014D01*
X162437420Y-103665614D01*
X162517701Y-103912692D01*
X162517702Y-103912695D01*
X162635645Y-104144170D01*
X162756637Y-104310701D01*
X162813311Y-104421929D01*
X162832839Y-104545227D01*
X162813310Y-104668525D01*
X162756637Y-104779752D01*
X162631968Y-104951344D01*
X162631967Y-104951346D01*
X162514022Y-105182824D01*
X162514021Y-105182827D01*
X162433740Y-105429905D01*
X162433309Y-105432627D01*
X162393100Y-105686503D01*
X162393100Y-105946297D01*
X162393531Y-105949017D01*
X162433740Y-106202894D01*
X162514021Y-106449972D01*
X162514022Y-106449975D01*
X162631965Y-106681450D01*
X162755785Y-106851874D01*
X162812459Y-106963103D01*
X162831987Y-107086401D01*
X162812458Y-107209699D01*
X162755785Y-107320926D01*
X162631965Y-107491349D01*
X162514022Y-107722824D01*
X162514021Y-107722827D01*
X162433740Y-107969905D01*
X162433309Y-107972627D01*
X162393100Y-108226503D01*
X162393100Y-108486297D01*
X162393531Y-108489017D01*
X162433740Y-108742894D01*
X162514021Y-108989972D01*
X162514022Y-108989975D01*
X162622020Y-109201931D01*
X162631966Y-109221451D01*
X162784669Y-109431629D01*
X162968371Y-109615331D01*
X163178549Y-109768034D01*
X163410028Y-109885979D01*
X163657107Y-109966260D01*
X163913703Y-110006900D01*
X163913706Y-110006900D01*
X165473494Y-110006900D01*
X165473497Y-110006900D01*
X165730093Y-109966260D01*
X165977172Y-109885979D01*
X166208651Y-109768034D01*
X166371650Y-109649608D01*
X166482875Y-109592936D01*
X166606173Y-109573407D01*
X166729471Y-109592935D01*
X166840699Y-109649609D01*
X166840700Y-109649609D01*
X166969949Y-109743514D01*
X167201428Y-109861459D01*
X167448507Y-109941740D01*
X167705103Y-109982380D01*
X167705106Y-109982380D01*
X169264894Y-109982380D01*
X169264897Y-109982380D01*
X169521493Y-109941740D01*
X169768572Y-109861459D01*
X170000051Y-109743514D01*
X170210229Y-109590811D01*
X170393931Y-109407109D01*
X170546634Y-109196931D01*
X170664579Y-108965452D01*
X170744860Y-108718373D01*
X170785500Y-108461777D01*
X170785500Y-108201983D01*
X170744860Y-107945387D01*
X170664579Y-107698308D01*
X170546634Y-107466829D01*
X170422814Y-107296405D01*
X170366141Y-107185178D01*
X170346612Y-107061881D01*
X170366140Y-106938583D01*
X170422812Y-106827356D01*
X170546634Y-106656931D01*
X170664579Y-106425452D01*
X170744860Y-106178373D01*
X170785500Y-105921777D01*
X170785500Y-105661983D01*
X170744860Y-105405387D01*
X170664579Y-105158308D01*
X170546634Y-104926829D01*
X170422814Y-104756405D01*
X170366141Y-104645178D01*
X170346612Y-104521881D01*
X170366140Y-104398583D01*
X170422812Y-104287356D01*
X170546634Y-104116931D01*
X170664579Y-103885452D01*
X170744860Y-103638373D01*
X170785500Y-103381777D01*
X170785500Y-103121983D01*
X170744860Y-102865387D01*
X170664579Y-102618308D01*
X170546634Y-102386829D01*
X170422814Y-102216405D01*
X170366141Y-102105178D01*
X170346612Y-101981881D01*
X170366140Y-101858583D01*
X170422812Y-101747356D01*
X170546634Y-101576931D01*
X170664579Y-101345452D01*
X170744860Y-101098373D01*
X170785500Y-100841777D01*
X170785500Y-100581983D01*
X170744860Y-100325387D01*
X170664579Y-100078308D01*
X170546634Y-99846829D01*
X170422814Y-99676405D01*
X170366141Y-99565178D01*
X170346612Y-99441881D01*
X170357205Y-99375000D01*
X172192256Y-99375000D01*
X174047199Y-99375000D01*
X174047200Y-99374999D01*
X174047200Y-98125001D01*
X174047199Y-98125000D01*
X173667345Y-98125000D01*
X173410822Y-98165629D01*
X173163820Y-98245885D01*
X173163815Y-98245887D01*
X172932419Y-98363790D01*
X172932414Y-98363793D01*
X172722301Y-98516447D01*
X172538647Y-98700101D01*
X172385993Y-98910214D01*
X172385992Y-98910214D01*
X172268086Y-99141615D01*
X172192256Y-99375000D01*
X170357205Y-99375000D01*
X170366140Y-99318583D01*
X170422812Y-99207356D01*
X170546634Y-99036931D01*
X170664579Y-98805452D01*
X170744860Y-98558373D01*
X170785500Y-98301777D01*
X170785500Y-98041983D01*
X170744860Y-97785387D01*
X170664579Y-97538308D01*
X170546634Y-97306829D01*
X170422814Y-97136405D01*
X170366141Y-97025178D01*
X170346612Y-96901881D01*
X170366140Y-96778583D01*
X170422812Y-96667356D01*
X170546634Y-96496931D01*
X170664579Y-96265452D01*
X170744860Y-96018373D01*
X170785500Y-95761777D01*
X170785500Y-95501983D01*
X170744860Y-95245387D01*
X170664579Y-94998308D01*
X170546634Y-94766829D01*
X170422814Y-94596405D01*
X170366141Y-94485178D01*
X170346612Y-94361881D01*
X170366140Y-94238583D01*
X170422812Y-94127356D01*
X170546634Y-93956931D01*
X170664579Y-93725452D01*
X170744860Y-93478373D01*
X170785500Y-93221777D01*
X170785500Y-92961983D01*
X170744860Y-92705387D01*
X170664579Y-92458308D01*
X170546634Y-92226829D01*
X170422814Y-92056405D01*
X170366141Y-91945178D01*
X170346612Y-91821881D01*
X170366140Y-91698583D01*
X170422812Y-91587356D01*
X170546634Y-91416931D01*
X170664579Y-91185452D01*
X170744860Y-90938373D01*
X170785500Y-90681777D01*
X170785500Y-90421983D01*
X170744860Y-90165387D01*
X170664579Y-89918308D01*
X170546634Y-89686829D01*
X170422814Y-89516405D01*
X170366141Y-89405178D01*
X170346612Y-89281881D01*
X170366140Y-89158583D01*
X170422812Y-89047356D01*
X170546634Y-88876931D01*
X170664579Y-88645452D01*
X170744860Y-88398373D01*
X170785500Y-88141777D01*
X170785500Y-87881983D01*
X170744860Y-87625387D01*
X170664579Y-87378308D01*
X170546634Y-87146829D01*
X170422814Y-86976405D01*
X170366141Y-86865178D01*
X170346612Y-86741881D01*
X170366140Y-86618583D01*
X170422812Y-86507356D01*
X170546634Y-86336931D01*
X170664579Y-86105452D01*
X170744860Y-85858373D01*
X170785500Y-85601777D01*
X170785500Y-85341983D01*
X170744860Y-85085387D01*
X170664579Y-84838308D01*
X170546634Y-84606829D01*
X170422814Y-84436405D01*
X170366141Y-84325178D01*
X170346612Y-84201881D01*
X170366140Y-84078583D01*
X170422812Y-83967356D01*
X170546634Y-83796931D01*
X170664579Y-83565452D01*
X170744860Y-83318373D01*
X170785500Y-83061777D01*
X170785500Y-82801983D01*
X170744860Y-82545387D01*
X170664579Y-82298308D01*
X170546634Y-82066829D01*
X170422814Y-81896405D01*
X170366141Y-81785178D01*
X170346612Y-81661881D01*
X170366140Y-81538583D01*
X170422812Y-81427356D01*
X170546634Y-81256931D01*
X170664579Y-81025452D01*
X170744860Y-80778373D01*
X170751508Y-80736400D01*
X172192256Y-80736400D01*
X172268086Y-80969784D01*
X172385993Y-81201185D01*
X172538647Y-81411298D01*
X172722301Y-81594952D01*
X172932414Y-81747606D01*
X172932419Y-81747609D01*
X173163815Y-81865512D01*
X173163820Y-81865514D01*
X173410822Y-81945770D01*
X173667345Y-81986400D01*
X174047199Y-81986400D01*
X174047200Y-81986399D01*
X174847200Y-81986399D01*
X174847201Y-81986400D01*
X175227055Y-81986400D01*
X175483577Y-81945770D01*
X175730579Y-81865514D01*
X175730584Y-81865512D01*
X175961980Y-81747609D01*
X175961985Y-81747606D01*
X176172098Y-81594952D01*
X176355752Y-81411298D01*
X176508406Y-81201185D01*
X176508407Y-81201185D01*
X176626313Y-80969784D01*
X176702144Y-80736400D01*
X174847201Y-80736400D01*
X174847200Y-80736401D01*
X174847200Y-81986399D01*
X174047200Y-81986399D01*
X174047200Y-80736401D01*
X174047199Y-80736400D01*
X172192256Y-80736400D01*
X170751508Y-80736400D01*
X170785500Y-80521777D01*
X170785500Y-80261983D01*
X170744860Y-80005387D01*
X170664579Y-79758308D01*
X170546634Y-79526829D01*
X170422504Y-79355979D01*
X170365831Y-79244752D01*
X170346303Y-79121454D01*
X170365831Y-78998156D01*
X170422504Y-78886929D01*
X170546206Y-78716665D01*
X170546207Y-78716665D01*
X170664113Y-78485264D01*
X170739944Y-78251880D01*
X168792106Y-78251880D01*
X168885099Y-78158887D01*
X168950925Y-78044873D01*
X168985000Y-77917706D01*
X168985000Y-77786054D01*
X168950925Y-77658887D01*
X168885099Y-77544873D01*
X168792106Y-77451880D01*
X170752091Y-77451880D01*
X170795933Y-77408038D01*
X170907162Y-77351364D01*
X171030459Y-77331835D01*
X171153757Y-77351363D01*
X171264986Y-77408036D01*
X171312597Y-77448699D01*
X172168001Y-78304103D01*
X172241377Y-78405097D01*
X172265333Y-78462932D01*
X172267619Y-78469969D01*
X172385565Y-78701450D01*
X172495163Y-78852299D01*
X172551837Y-78963528D01*
X172571365Y-79086826D01*
X172551836Y-79210124D01*
X172495165Y-79321348D01*
X172385996Y-79471609D01*
X172385992Y-79471614D01*
X172268086Y-79703015D01*
X172192256Y-79936400D01*
X174140094Y-79936400D01*
X174047101Y-80029393D01*
X173981275Y-80143407D01*
X173947200Y-80270574D01*
X173947200Y-80402226D01*
X173981275Y-80529393D01*
X174047101Y-80643407D01*
X174140193Y-80736499D01*
X174254207Y-80802325D01*
X174381374Y-80836400D01*
X174513026Y-80836400D01*
X174640193Y-80802325D01*
X174754207Y-80736499D01*
X174847299Y-80643407D01*
X174913125Y-80529393D01*
X174947200Y-80402226D01*
X174947200Y-80270574D01*
X174913125Y-80143407D01*
X174847299Y-80029393D01*
X174754306Y-79936400D01*
X176702144Y-79936400D01*
X176626313Y-79703015D01*
X176508407Y-79471614D01*
X176508402Y-79471607D01*
X176399235Y-79321349D01*
X176342562Y-79210120D01*
X176323034Y-79086822D01*
X176342563Y-78963525D01*
X176399236Y-78852299D01*
X176508834Y-78701451D01*
X176626779Y-78469972D01*
X176707060Y-78222893D01*
X176747700Y-77966297D01*
X176747700Y-77706503D01*
X176707060Y-77449907D01*
X176626779Y-77202828D01*
X176530601Y-77014068D01*
X176508836Y-76971352D01*
X176508834Y-76971349D01*
X176399542Y-76820921D01*
X176342872Y-76709698D01*
X176323343Y-76586400D01*
X176342871Y-76463103D01*
X176399545Y-76351874D01*
X176508834Y-76201451D01*
X176626779Y-75969972D01*
X176707060Y-75722893D01*
X176747700Y-75466297D01*
X176747700Y-75206503D01*
X176707060Y-74949907D01*
X176626779Y-74702828D01*
X176510220Y-74474069D01*
X176508836Y-74471352D01*
X176494652Y-74451829D01*
X176399542Y-74320921D01*
X176342872Y-74209698D01*
X176323343Y-74086400D01*
X176342871Y-73963103D01*
X176399545Y-73851874D01*
X176508834Y-73701451D01*
X176626779Y-73469972D01*
X176707060Y-73222893D01*
X176747700Y-72966297D01*
X176747700Y-72706503D01*
X176707060Y-72449907D01*
X176626779Y-72202828D01*
X176508834Y-71971349D01*
X176356131Y-71761171D01*
X176172429Y-71577469D01*
X176075271Y-71506880D01*
X175962250Y-71424765D01*
X175730775Y-71306822D01*
X175730772Y-71306821D01*
X175483694Y-71226540D01*
X175419544Y-71216380D01*
X175227097Y-71185900D01*
X175227094Y-71185900D01*
X174384500Y-71185900D01*
X174261202Y-71166372D01*
X174149974Y-71109698D01*
X174061702Y-71021426D01*
X174005028Y-70910198D01*
X173985500Y-70786900D01*
X173985500Y-68348263D01*
X173985500Y-68348261D01*
X173955940Y-68161624D01*
X173936486Y-68101753D01*
X173916958Y-67978457D01*
X173936486Y-67855160D01*
X173993159Y-67743931D01*
X174081430Y-67655659D01*
X174192658Y-67598984D01*
X174315956Y-67579455D01*
X174415181Y-67591990D01*
X174589914Y-67636854D01*
X174895828Y-67675500D01*
X174895832Y-67675500D01*
X175204168Y-67675500D01*
X175204172Y-67675500D01*
X175510086Y-67636854D01*
X175808743Y-67560172D01*
X176095435Y-67446663D01*
X176365640Y-67298116D01*
X176368354Y-67296143D01*
X176615086Y-67116884D01*
X176615088Y-67116881D01*
X176615096Y-67116876D01*
X176839869Y-66905799D01*
X177036416Y-66668216D01*
X177201635Y-66407871D01*
X177332922Y-66128873D01*
X177428206Y-65835619D01*
X177485984Y-65532736D01*
X177505345Y-65225000D01*
X177485984Y-64917264D01*
X177428206Y-64614381D01*
X177332922Y-64321127D01*
X177201635Y-64042129D01*
X177036416Y-63781784D01*
X176929342Y-63652354D01*
X176839870Y-63544201D01*
X176710720Y-63422921D01*
X176615096Y-63333124D01*
X176615092Y-63333121D01*
X176615091Y-63333120D01*
X176615086Y-63333115D01*
X176365651Y-63151891D01*
X176365645Y-63151887D01*
X176095432Y-63003335D01*
X175808752Y-62889831D01*
X175808750Y-62889830D01*
X175808744Y-62889828D01*
X175808743Y-62889828D01*
X175510086Y-62813146D01*
X175204172Y-62774500D01*
X174895828Y-62774500D01*
X174589914Y-62813146D01*
X174291249Y-62889830D01*
X174291247Y-62889831D01*
X174004567Y-63003335D01*
X173734354Y-63151887D01*
X173734348Y-63151891D01*
X173484913Y-63333115D01*
X173484908Y-63333120D01*
X173260129Y-63544201D01*
X173063582Y-63781786D01*
X172898367Y-64042124D01*
X172767077Y-64321127D01*
X172703010Y-64518307D01*
X172671794Y-64614381D01*
X172660098Y-64675695D01*
X172614016Y-64917263D01*
X172594655Y-65225000D01*
X172614016Y-65532740D01*
X172614018Y-65532750D01*
X172616443Y-65545464D01*
X172620360Y-65670237D01*
X172585528Y-65790114D01*
X172515357Y-65893360D01*
X172416715Y-65969868D01*
X172299259Y-66012150D01*
X172174486Y-66016067D01*
X172054609Y-65981235D01*
X171951363Y-65911064D01*
X171942372Y-65902350D01*
X170783451Y-64743428D01*
X170710075Y-64642435D01*
X170686116Y-64584591D01*
X170664579Y-64518307D01*
X170624258Y-64439174D01*
X170546634Y-64286829D01*
X170422504Y-64115979D01*
X170365831Y-64004752D01*
X170346303Y-63881454D01*
X170365831Y-63758156D01*
X170422504Y-63646929D01*
X170546206Y-63476665D01*
X170546207Y-63476665D01*
X170664113Y-63245264D01*
X170739944Y-63011880D01*
X168792106Y-63011880D01*
X168885099Y-62918887D01*
X168950925Y-62804873D01*
X168985000Y-62677706D01*
X168985000Y-62546054D01*
X168950925Y-62418887D01*
X168885099Y-62304873D01*
X168792106Y-62211880D01*
X170739944Y-62211880D01*
X170664113Y-61978495D01*
X170546207Y-61747094D01*
X170546202Y-61747087D01*
X170463695Y-61633524D01*
X170407022Y-61522295D01*
X170387494Y-61398997D01*
X170407023Y-61275700D01*
X170463698Y-61164472D01*
X170551970Y-61076201D01*
X170663199Y-61019528D01*
X170786494Y-61000000D01*
X179434728Y-61000000D01*
X179558026Y-61019528D01*
X179669254Y-61076202D01*
X179716864Y-61116864D01*
X179883136Y-61283136D01*
X179956512Y-61384130D01*
X179995088Y-61502855D01*
X180000000Y-61565272D01*
X180000000Y-130434728D01*
X179980472Y-130558026D01*
X179923798Y-130669254D01*
X179883136Y-130716864D01*
X179716864Y-130883136D01*
X179615870Y-130956512D01*
X179497145Y-130995088D01*
X179434728Y-131000000D01*
X132565272Y-131000000D01*
X132441974Y-130980472D01*
X132330746Y-130923798D01*
X132283136Y-130883136D01*
X132116864Y-130716864D01*
X132043488Y-130615870D01*
X132004912Y-130497145D01*
X132000000Y-130434728D01*
X132000000Y-126238000D01*
X133688655Y-126238000D01*
X133708016Y-126545736D01*
X133765794Y-126848619D01*
X133812527Y-126992451D01*
X133861077Y-127141872D01*
X133992367Y-127420875D01*
X134157582Y-127681213D01*
X134354129Y-127918798D01*
X134474898Y-128032207D01*
X134578904Y-128129876D01*
X134578907Y-128129878D01*
X134578908Y-128129879D01*
X134578913Y-128129884D01*
X134828348Y-128311108D01*
X134828354Y-128311112D01*
X134828360Y-128311116D01*
X135098565Y-128459663D01*
X135098567Y-128459664D01*
X135338326Y-128554591D01*
X135385257Y-128573172D01*
X135683914Y-128649854D01*
X135989828Y-128688500D01*
X135989832Y-128688500D01*
X136298168Y-128688500D01*
X136298172Y-128688500D01*
X136604086Y-128649854D01*
X136902743Y-128573172D01*
X137189435Y-128459663D01*
X137459640Y-128311116D01*
X137462354Y-128309143D01*
X137709086Y-128129884D01*
X137709088Y-128129881D01*
X137709096Y-128129876D01*
X137933869Y-127918799D01*
X138130416Y-127681216D01*
X138295635Y-127420871D01*
X138426922Y-127141873D01*
X138522206Y-126848619D01*
X138579984Y-126545736D01*
X138599345Y-126238000D01*
X138579984Y-125930264D01*
X138522206Y-125627381D01*
X138426922Y-125334127D01*
X138295635Y-125055129D01*
X138285336Y-125038901D01*
X138221938Y-124939000D01*
X138130416Y-124794784D01*
X138052661Y-124700795D01*
X137933870Y-124557201D01*
X137770672Y-124403948D01*
X137709096Y-124346124D01*
X137709092Y-124346121D01*
X137709091Y-124346120D01*
X137709086Y-124346115D01*
X137459651Y-124164891D01*
X137459645Y-124164887D01*
X137446992Y-124157931D01*
X137346874Y-124102890D01*
X137189432Y-124016335D01*
X136902752Y-123902831D01*
X136902750Y-123902830D01*
X136902744Y-123902828D01*
X136902743Y-123902828D01*
X136604086Y-123826146D01*
X136298172Y-123787500D01*
X135989828Y-123787500D01*
X135705619Y-123823404D01*
X135683914Y-123826146D01*
X135385249Y-123902830D01*
X135385247Y-123902831D01*
X135098567Y-124016335D01*
X134828354Y-124164887D01*
X134828348Y-124164891D01*
X134578913Y-124346115D01*
X134578908Y-124346120D01*
X134354129Y-124557201D01*
X134157582Y-124794786D01*
X133992367Y-125055124D01*
X133861077Y-125334127D01*
X133765794Y-125627382D01*
X133708017Y-125930261D01*
X133708016Y-125930264D01*
X133688655Y-126238000D01*
X132000000Y-126238000D01*
X132000000Y-61565272D01*
X132019528Y-61441974D01*
X132076202Y-61330746D01*
X132116864Y-61283136D01*
X132283136Y-61116864D01*
X132384130Y-61043488D01*
X132502855Y-61004912D01*
X132565272Y-61000000D01*
X133166520Y-61000000D01*
X133289818Y-61019528D01*
G37*
G04 #@! TD.AperFunction*
G04 #@! TA.AperFunction,Conductor*
G36*
X150277158Y-83211908D02*
G01*
X150388386Y-83268582D01*
X150435996Y-83309244D01*
X153257636Y-86130883D01*
X153331012Y-86231877D01*
X153369588Y-86350602D01*
X153374500Y-86413019D01*
X153374500Y-110692382D01*
X153354972Y-110815680D01*
X153298298Y-110926908D01*
X153210026Y-111015180D01*
X153098798Y-111071854D01*
X152975500Y-111091382D01*
X152941604Y-111088719D01*
X152941525Y-111089730D01*
X152925897Y-111088500D01*
X151366103Y-111088500D01*
X151212145Y-111112884D01*
X151109505Y-111129140D01*
X150862427Y-111209421D01*
X150862424Y-111209422D01*
X150630949Y-111327365D01*
X150420773Y-111480067D01*
X150237067Y-111663773D01*
X150084365Y-111873949D01*
X149966422Y-112105424D01*
X149966421Y-112105427D01*
X149886140Y-112352505D01*
X149886140Y-112352507D01*
X149845500Y-112609103D01*
X149845500Y-112868897D01*
X149875980Y-113061344D01*
X149886140Y-113125494D01*
X149966421Y-113372572D01*
X149966422Y-113372575D01*
X150084365Y-113604050D01*
X150208185Y-113774474D01*
X150264859Y-113885703D01*
X150284387Y-114009001D01*
X150264858Y-114132299D01*
X150208185Y-114243526D01*
X150084365Y-114413949D01*
X149966422Y-114645424D01*
X149966421Y-114645427D01*
X149886140Y-114892505D01*
X149845500Y-115149105D01*
X149845500Y-115408894D01*
X149886140Y-115665494D01*
X149966421Y-115912572D01*
X149966422Y-115912575D01*
X150084365Y-116144050D01*
X150208185Y-116314474D01*
X150264859Y-116425703D01*
X150284387Y-116549001D01*
X150264858Y-116672299D01*
X150208185Y-116783526D01*
X150084365Y-116953949D01*
X149966422Y-117185424D01*
X149966421Y-117185427D01*
X149886140Y-117432505D01*
X149886140Y-117432507D01*
X149845500Y-117689103D01*
X149845500Y-117948897D01*
X149886140Y-118205493D01*
X149886141Y-118205496D01*
X149890985Y-118220404D01*
X149910513Y-118343702D01*
X149890984Y-118467000D01*
X149834310Y-118578228D01*
X149746038Y-118666500D01*
X149634810Y-118723173D01*
X149511512Y-118742701D01*
X149388217Y-118723173D01*
X149363498Y-118715141D01*
X149363494Y-118715140D01*
X149363493Y-118715140D01*
X149106897Y-118674500D01*
X147547103Y-118674500D01*
X147393145Y-118698884D01*
X147290505Y-118715140D01*
X147043427Y-118795421D01*
X147043424Y-118795422D01*
X146811949Y-118913365D01*
X146601773Y-119066067D01*
X146418067Y-119249773D01*
X146265365Y-119459949D01*
X146147422Y-119691424D01*
X146147421Y-119691427D01*
X146067140Y-119938505D01*
X146067140Y-119938507D01*
X146026500Y-120195103D01*
X146026500Y-120454897D01*
X146046222Y-120579421D01*
X146067140Y-120711494D01*
X146147421Y-120958572D01*
X146147422Y-120958575D01*
X146265230Y-121189785D01*
X146265366Y-121190051D01*
X146418069Y-121400229D01*
X146601771Y-121583931D01*
X146811949Y-121736634D01*
X147043428Y-121854579D01*
X147290507Y-121934860D01*
X147547103Y-121975500D01*
X147547106Y-121975500D01*
X149106894Y-121975500D01*
X149106897Y-121975500D01*
X149363493Y-121934860D01*
X149412914Y-121918801D01*
X149536212Y-121899272D01*
X149659509Y-121918799D01*
X149770739Y-121975472D01*
X149859011Y-122063743D01*
X149915685Y-122174971D01*
X149935215Y-122298269D01*
X149915688Y-122421566D01*
X149915687Y-122421567D01*
X149886141Y-122512499D01*
X149845500Y-122769105D01*
X149845500Y-123028894D01*
X149886140Y-123285494D01*
X149966421Y-123532572D01*
X149966422Y-123532575D01*
X150084365Y-123764050D01*
X150208494Y-123934899D01*
X150265168Y-124046128D01*
X150284696Y-124169425D01*
X150265167Y-124292723D01*
X150208496Y-124403948D01*
X150084796Y-124574209D01*
X150084792Y-124574214D01*
X149966886Y-124805615D01*
X149891056Y-125039000D01*
X151838894Y-125039000D01*
X151745901Y-125131993D01*
X151680075Y-125246007D01*
X151646000Y-125373174D01*
X151646000Y-125504826D01*
X151680075Y-125631993D01*
X151745901Y-125746007D01*
X151838894Y-125839000D01*
X149891056Y-125839000D01*
X149966887Y-126072387D01*
X150031073Y-126198357D01*
X150069649Y-126317082D01*
X150069650Y-126441916D01*
X150031074Y-126560641D01*
X149957698Y-126661635D01*
X149856705Y-126735011D01*
X149737980Y-126773587D01*
X149675562Y-126778500D01*
X145091536Y-126778500D01*
X144968238Y-126758972D01*
X144857010Y-126702298D01*
X144809400Y-126661636D01*
X140803900Y-122656136D01*
X140730524Y-122555142D01*
X140691948Y-122436417D01*
X140691948Y-122311583D01*
X140730524Y-122192858D01*
X140803900Y-122091864D01*
X140904894Y-122018488D01*
X141023619Y-121979912D01*
X141086036Y-121975000D01*
X141486855Y-121975000D01*
X141743377Y-121934370D01*
X141990379Y-121854114D01*
X141990384Y-121854112D01*
X142221780Y-121736209D01*
X142221785Y-121736206D01*
X142431898Y-121583552D01*
X142615552Y-121399898D01*
X142768206Y-121189785D01*
X142768207Y-121189785D01*
X142886113Y-120958384D01*
X142961944Y-120725000D01*
X141014106Y-120725000D01*
X141107099Y-120632007D01*
X141172925Y-120517993D01*
X141207000Y-120390826D01*
X141207000Y-120259174D01*
X141172925Y-120132007D01*
X141107099Y-120017993D01*
X141014105Y-119924999D01*
X141107000Y-119924999D01*
X141107001Y-119925000D01*
X142961944Y-119925000D01*
X142886113Y-119691615D01*
X142768206Y-119460214D01*
X142615552Y-119250101D01*
X142431898Y-119066447D01*
X142221785Y-118913793D01*
X142221780Y-118913790D01*
X141990384Y-118795887D01*
X141990379Y-118795885D01*
X141743377Y-118715629D01*
X141486855Y-118675000D01*
X141107001Y-118675000D01*
X141107000Y-118675001D01*
X141107000Y-119924999D01*
X141014105Y-119924999D01*
X141014007Y-119924901D01*
X140899993Y-119859075D01*
X140772826Y-119825000D01*
X140641174Y-119825000D01*
X140514007Y-119859075D01*
X140399993Y-119924901D01*
X140307000Y-120017894D01*
X140307000Y-118675001D01*
X140306999Y-118675000D01*
X139927145Y-118675000D01*
X139670622Y-118715629D01*
X139423620Y-118795885D01*
X139423615Y-118795887D01*
X139192219Y-118913790D01*
X139192214Y-118913793D01*
X138982101Y-119066447D01*
X138798447Y-119250101D01*
X138645793Y-119460214D01*
X138645790Y-119460219D01*
X138544809Y-119658405D01*
X138471433Y-119759398D01*
X138370439Y-119832774D01*
X138251715Y-119871350D01*
X138126880Y-119871350D01*
X138008155Y-119832773D01*
X137907162Y-119759398D01*
X136782364Y-118634600D01*
X136708988Y-118533606D01*
X136670412Y-118414881D01*
X136665500Y-118352464D01*
X136665500Y-110153293D01*
X136685028Y-110029995D01*
X136741702Y-109918767D01*
X136829974Y-109830495D01*
X136883350Y-109797785D01*
X136980051Y-109748514D01*
X137131315Y-109638614D01*
X137242534Y-109581945D01*
X137365832Y-109562416D01*
X137489130Y-109581944D01*
X137600354Y-109638614D01*
X137782229Y-109770754D01*
X138013708Y-109888699D01*
X138260787Y-109968980D01*
X138517383Y-110009620D01*
X138517386Y-110009620D01*
X140077174Y-110009620D01*
X140077177Y-110009620D01*
X140333773Y-109968980D01*
X140580852Y-109888699D01*
X140812331Y-109770754D01*
X141022509Y-109618051D01*
X141206211Y-109434349D01*
X141358914Y-109224171D01*
X141476859Y-108992692D01*
X141557140Y-108745613D01*
X141597780Y-108489017D01*
X141597780Y-108229223D01*
X141557140Y-107972627D01*
X141476859Y-107725548D01*
X141358914Y-107494069D01*
X141235094Y-107323645D01*
X141178421Y-107212418D01*
X141158892Y-107089121D01*
X141178420Y-106965823D01*
X141235092Y-106854596D01*
X141358914Y-106684171D01*
X141476859Y-106452692D01*
X141557140Y-106205613D01*
X141597780Y-105949017D01*
X141597780Y-105689223D01*
X141557140Y-105432627D01*
X141476859Y-105185548D01*
X141358914Y-104954069D01*
X141235094Y-104783645D01*
X141178421Y-104672418D01*
X141158892Y-104549121D01*
X141178420Y-104425823D01*
X141235092Y-104314596D01*
X141358914Y-104144171D01*
X141476859Y-103912692D01*
X141557140Y-103665613D01*
X141597780Y-103409017D01*
X141597780Y-103149223D01*
X141557140Y-102892627D01*
X141476859Y-102645548D01*
X141358914Y-102414069D01*
X141235094Y-102243645D01*
X141178421Y-102132418D01*
X141158892Y-102009121D01*
X141178420Y-101885823D01*
X141235092Y-101774596D01*
X141358914Y-101604171D01*
X141476859Y-101372692D01*
X141557140Y-101125613D01*
X141597780Y-100869017D01*
X141597780Y-100609223D01*
X141557140Y-100352627D01*
X141476859Y-100105548D01*
X141358914Y-99874069D01*
X141235094Y-99703645D01*
X141178421Y-99592418D01*
X141158892Y-99469121D01*
X141178420Y-99345823D01*
X141235092Y-99234596D01*
X141358914Y-99064171D01*
X141476859Y-98832692D01*
X141557140Y-98585613D01*
X141597780Y-98329017D01*
X141597780Y-98069223D01*
X141557140Y-97812627D01*
X141476859Y-97565548D01*
X141358914Y-97334069D01*
X141234784Y-97163219D01*
X141178111Y-97051992D01*
X141158583Y-96928694D01*
X141178111Y-96805396D01*
X141234784Y-96694169D01*
X141358486Y-96523905D01*
X141358487Y-96523905D01*
X141476393Y-96292504D01*
X141552224Y-96059120D01*
X139604386Y-96059120D01*
X139697379Y-95966127D01*
X139763205Y-95852113D01*
X139797280Y-95724946D01*
X139797280Y-95593294D01*
X139763205Y-95466127D01*
X139697379Y-95352113D01*
X139604386Y-95259120D01*
X141552224Y-95259120D01*
X141476393Y-95025735D01*
X141358487Y-94794334D01*
X141358482Y-94794327D01*
X141234784Y-94624069D01*
X141178111Y-94512841D01*
X141158583Y-94389543D01*
X141178112Y-94266245D01*
X141234784Y-94155020D01*
X141358914Y-93984171D01*
X141476859Y-93752692D01*
X141557140Y-93505613D01*
X141597780Y-93249017D01*
X141597780Y-92989223D01*
X141557140Y-92732627D01*
X141476859Y-92485548D01*
X141358914Y-92254069D01*
X141235094Y-92083645D01*
X141178421Y-91972418D01*
X141158892Y-91849121D01*
X141178420Y-91725823D01*
X141235092Y-91614596D01*
X141358914Y-91444171D01*
X141476859Y-91212692D01*
X141557140Y-90965613D01*
X141597780Y-90709017D01*
X141597780Y-90449223D01*
X141557140Y-90192627D01*
X141476859Y-89945548D01*
X141358914Y-89714069D01*
X141235094Y-89543645D01*
X141178421Y-89432418D01*
X141158892Y-89309121D01*
X141178420Y-89185823D01*
X141235092Y-89074596D01*
X141358914Y-88904171D01*
X141476859Y-88672692D01*
X141557140Y-88425613D01*
X141597780Y-88169017D01*
X141597780Y-87909223D01*
X141557140Y-87652627D01*
X141476859Y-87405548D01*
X141358914Y-87174069D01*
X141235094Y-87003645D01*
X141178421Y-86892418D01*
X141158892Y-86769121D01*
X141178420Y-86645823D01*
X141235092Y-86534596D01*
X141358914Y-86364171D01*
X141476859Y-86132692D01*
X141557140Y-85885613D01*
X141597780Y-85629017D01*
X141597780Y-85369223D01*
X141557140Y-85112627D01*
X141476859Y-84865548D01*
X141358914Y-84634069D01*
X141235094Y-84463645D01*
X141178421Y-84352418D01*
X141158892Y-84229121D01*
X141178420Y-84105823D01*
X141235092Y-83994596D01*
X141358914Y-83824171D01*
X141476859Y-83592692D01*
X141498396Y-83526406D01*
X141555068Y-83415181D01*
X141595734Y-83367567D01*
X141654060Y-83309242D01*
X141755054Y-83235867D01*
X141873779Y-83197292D01*
X141936193Y-83192380D01*
X150153860Y-83192380D01*
X150277158Y-83211908D01*
G37*
G04 #@! TD.AperFunction*
G04 #@! TA.AperFunction,Conductor*
G36*
X137743787Y-95256408D02*
G01*
X137749110Y-95259120D01*
X138990174Y-95259120D01*
X138897181Y-95352113D01*
X138831355Y-95466127D01*
X138797280Y-95593294D01*
X138797280Y-95724946D01*
X138831355Y-95852113D01*
X138897181Y-95966127D01*
X138990174Y-96059120D01*
X137141791Y-96059120D01*
X137018493Y-96039592D01*
X137013170Y-96036880D01*
X135772106Y-96036880D01*
X135865099Y-95943887D01*
X135930925Y-95829873D01*
X135965000Y-95702706D01*
X135965000Y-95571054D01*
X135930925Y-95443887D01*
X135865099Y-95329873D01*
X135772106Y-95236880D01*
X137620489Y-95236880D01*
X137743787Y-95256408D01*
G37*
G04 #@! TD.AperFunction*
G04 #@! TA.AperFunction,Conductor*
G36*
X168084901Y-77544873D02*
G01*
X168019075Y-77658887D01*
X167985000Y-77786054D01*
X167985000Y-77917706D01*
X168019075Y-78044873D01*
X168084901Y-78158887D01*
X168177894Y-78251880D01*
X166978905Y-78251880D01*
X166910186Y-78274208D01*
X166847769Y-78279120D01*
X165004386Y-78279120D01*
X165097379Y-78186127D01*
X165163205Y-78072113D01*
X165197280Y-77944946D01*
X165197280Y-77813294D01*
X165163205Y-77686127D01*
X165097379Y-77572113D01*
X165004386Y-77479120D01*
X166203375Y-77479120D01*
X166272094Y-77456792D01*
X166334511Y-77451880D01*
X168177894Y-77451880D01*
X168084901Y-77544873D01*
G37*
G04 #@! TD.AperFunction*
G04 #@! TA.AperFunction,Conductor*
G36*
X168084901Y-62304873D02*
G01*
X168019075Y-62418887D01*
X167985000Y-62546054D01*
X167985000Y-62677706D01*
X168019075Y-62804873D01*
X168084901Y-62918887D01*
X168177894Y-63011880D01*
X166978905Y-63011880D01*
X166910186Y-63034208D01*
X166847769Y-63039120D01*
X165004386Y-63039120D01*
X165097379Y-62946127D01*
X165163205Y-62832113D01*
X165197280Y-62704946D01*
X165197280Y-62573294D01*
X165163205Y-62446127D01*
X165097379Y-62332113D01*
X165004386Y-62239120D01*
X166203375Y-62239120D01*
X166272094Y-62216792D01*
X166334511Y-62211880D01*
X168177894Y-62211880D01*
X168084901Y-62304873D01*
G37*
G04 #@! TD.AperFunction*
G04 #@! TD*
M02*
