<?xml version="1.0" standalone="no"?>
<!DOCTYPE svg PUBLIC "-//W3C//DTD SVG 1.1//EN"
"http://www.w3.org/Graphics/SVG/1.1/DTD/svg11.dtd">
<svg width="187.654" height="270.803" viewBox="0 0 3909.45 5641.73" version="1.1"
xmlns="http://www.w3.org/2000/svg"
xmlns:xlink="http://www.w3.org/1999/xlink">
<circle cx="3407.26" cy="997.011" r="39.4" style=""/>
<circle cx="3407.26" cy="1193.81" r="39.4" style=""/>
<circle cx="3407.26" cy="1390.61" r="39.4" style=""/>
<circle cx="3407.26" cy="1587.61" r="39.4" style=""/>
<circle cx="2937.86" cy="1191.81" r="39.4" style=""/>
<circle cx="2937.86" cy="991.811" r="39.4" style=""/>
<circle cx="2937.86" cy="791.811" r="39.4" style=""/>
<circle cx="2937.86" cy="591.811" r="39.4" style=""/>
<circle cx="2937.86" cy="391.811" r="39.4" style=""/>
<circle cx="2937.86" cy="191.811" r="39.4" style=""/>
<circle cx="2639.46" cy="194.011" r="39.4" style=""/>
<circle cx="2639.46" cy="394.011" r="39.4" style=""/>
<circle cx="2639.46" cy="594.011" r="39.4" style=""/>
<circle cx="2639.46" cy="794.011" r="39.4" style=""/>
<circle cx="2639.46" cy="994.011" r="39.4" style=""/>
<circle cx="2639.46" cy="1194.01" r="39.4" style=""/>
<circle cx="2639.46" cy="1394.01" r="39.4" style=""/>
<circle cx="2937.86" cy="1391.81" r="39.4" style=""/>
<circle cx="2937.86" cy="1591.81" r="39.4" style=""/>
<circle cx="2639.46" cy="1594.01" r="39.4" style=""/>
<circle cx="2639.46" cy="1794.01" r="39.4" style=""/>
<circle cx="2937.86" cy="1791.81" r="39.4" style=""/>
<circle cx="2937.86" cy="1991.81" r="39.4" style=""/>
<circle cx="2639.46" cy="1994.01" r="39.4" style=""/>
<circle cx="2639.46" cy="2194.01" r="39.4" style=""/>
<circle cx="2937.86" cy="2191.81" r="39.4" style=""/>
<circle cx="2937.86" cy="2391.81" r="39.4" style=""/>
<circle cx="2639.46" cy="2394.01" r="39.4" style=""/>
<circle cx="2639.46" cy="2594.01" r="39.4" style=""/>
<circle cx="2639.46" cy="2794.01" r="39.4" style=""/>
<circle cx="2639.46" cy="2994.01" r="39.4" style=""/>
<circle cx="2639.46" cy="3194.01" r="39.4" style=""/>
<circle cx="2639.46" cy="3394.01" r="39.4" style=""/>
<circle cx="2639.26" cy="3593.81" r="39.4" style=""/>
<circle cx="2639.26" cy="3793.81" r="39.4" style=""/>
<circle cx="2937.86" cy="3591.81" r="39.4" style=""/>
<circle cx="2937.86" cy="3391.81" r="39.4" style=""/>
<circle cx="2937.86" cy="3191.81" r="39.4" style=""/>
<circle cx="2937.86" cy="2991.81" r="39.4" style=""/>
<circle cx="2937.86" cy="2791.81" r="39.4" style=""/>
<circle cx="2937.86" cy="2591.81" r="39.4" style=""/>
<circle cx="3407.26" cy="3118.01" r="39.4" style=""/>
<circle cx="3407.26" cy="3315.01" r="39.4" style=""/>
<circle cx="2937.86" cy="3791.81" r="39.4" style=""/>
<circle cx="3407.26" cy="4318.81" r="39.4" style=""/>
<circle cx="3407.26" cy="4515.81" r="39.4" style=""/>
<circle cx="2651.26" cy="4601.01" r="39.4" style=""/>
<circle cx="2651.26" cy="4876.61" r="39.4" style=""/>
<circle cx="1651.26" cy="5338.81" r="39.4" style=""/>
<circle cx="1651.26" cy="5138.81" r="39.4" style=""/>
<circle cx="1651.26" cy="4938.81" r="39.4" style=""/>
<circle cx="1651.26" cy="4738.81" r="39.4" style=""/>
<circle cx="1651.26" cy="4538.81" r="39.4" style=""/>
<circle cx="1651.26" cy="4338.81" r="39.4" style=""/>
<circle cx="1651.26" cy="4138.81" r="39.4" style=""/>
<circle cx="1350.46" cy="4736.21" r="39.4" style=""/>
<circle cx="750.46" cy="4736.21" r="39.4" style=""/>
<circle cx="639.46" cy="3794.01" r="39.4" style=""/>
<circle cx="639.46" cy="3594.01" r="39.4" style=""/>
<circle cx="639.46" cy="3394.01" r="39.4" style=""/>
<circle cx="639.46" cy="3194.01" r="39.4" style=""/>
<circle cx="639.46" cy="2994.01" r="39.4" style=""/>
<circle cx="639.46" cy="2794.01" r="39.4" style=""/>
<circle cx="639.46" cy="2594.01" r="39.4" style=""/>
<circle cx="639.46" cy="2394.01" r="39.4" style=""/>
<circle cx="639.46" cy="2194.01" r="39.4" style=""/>
<circle cx="639.46" cy="1994.01" r="39.4" style=""/>
<circle cx="639.46" cy="1794.01" r="39.4" style=""/>
<circle cx="639.46" cy="1594.01" r="39.4" style=""/>
<circle cx="639.46" cy="1394.01" r="39.4" style=""/>
<circle cx="639.46" cy="1194.01" r="39.4" style=""/>
<circle cx="639.46" cy="994.011" r="39.4" style=""/>
<circle cx="639.46" cy="794.011" r="39.4" style=""/>
<circle cx="639.46" cy="594.011" r="39.4" style=""/>
<circle cx="639.46" cy="394.011" r="39.4" style=""/>
<circle cx="639.46" cy="194.011" r="39.4" style=""/>
<circle cx="337.86" cy="192.211" r="39.4" style=""/>
<circle cx="337.86" cy="392.211" r="39.4" style=""/>
<circle cx="337.86" cy="592.211" r="39.4" style=""/>
<circle cx="337.86" cy="792.211" r="39.4" style=""/>
<circle cx="337.86" cy="992.211" r="39.4" style=""/>
<circle cx="337.86" cy="1192.21" r="39.4" style=""/>
<circle cx="337.86" cy="1392.21" r="39.4" style=""/>
<circle cx="337.86" cy="1592.21" r="39.4" style=""/>
<circle cx="337.86" cy="1792.21" r="39.4" style=""/>
<circle cx="337.86" cy="1992.21" r="39.4" style=""/>
<circle cx="337.86" cy="2192.21" r="39.4" style=""/>
<circle cx="337.86" cy="2392.21" r="39.4" style=""/>
<circle cx="337.86" cy="2592.21" r="39.4" style=""/>
<circle cx="337.86" cy="2792.21" r="39.4" style=""/>
<circle cx="337.86" cy="2992.21" r="39.4" style=""/>
<circle cx="337.86" cy="3192.21" r="39.4" style=""/>
<circle cx="337.86" cy="3392.21" r="39.4" style=""/>
<circle cx="337.86" cy="3592.21" r="39.4" style=""/>
<circle cx="337.86" cy="3792.21" r="39.4" style=""/>
<circle cx="3454.66" cy="397.611" r="122" style=""/>
<circle cx="391.26" cy="5201.81" r="122" style=""/>
<circle cx="3451.26" cy="5201.81" r="122" style=""/>
</svg>
