<?xml version="1.0" standalone="no"?>
<!DOCTYPE svg PUBLIC "-//W3C//DTD SVG 1.1//EN"
"http://www.w3.org/Graphics/SVG/1.1/DTD/svg11.dtd">
<svg width="187.654" height="270.803" viewBox="0 0 3909.45 5641.73" version="1.1"
xmlns="http://www.w3.org/2000/svg"
xmlns:xlink="http://www.w3.org/1999/xlink">
<g fill-rule="evenodd"><path d="M 64.9598,5532.26 L 64.9598,5201.81 L 64.9598,109.469 L 66.4978,99.761 L 70.9598,91.003 L 74.1618,87.253 L 87.2538,74.161 L 95.2058,68.383 L 104.554,65.347 L 109.47,64.959 L 156.812,64.959 L 166.52,66.497 L 175.278,70.959 L 182.228,77.911 L 186.692,86.669 L 188.23,96.377 L 186.692,106.085 L 182.228,114.843 L 175.46,124.159 L 166.174,142.385 L 159.852,161.841 L 158.252,171.943 L 156.652,182.045 L 156.652,202.501 L 157.48,207.727 L 159.852,222.705 L 166.174,242.161 L 175.46,260.387 L 185.21,273.807 L 189.674,282.565 L 191.21,292.273 L 189.674,301.981 L 185.21,310.739 L 175.46,324.159 L 166.174,342.385 L 159.852,361.841 L 158.252,371.943 L 156.652,382.045 L 156.652,402.501 L 159.052,417.655 L 159.852,422.705 L 166.174,442.161 L 175.46,460.387 L 185.21,473.807 L 189.674,482.565 L 191.21,492.273 L 189.674,501.981 L 185.21,510.739 L 175.46,524.159 L 166.174,542.385 L 159.852,561.841 L 158.252,571.943 L 156.652,582.045 L 156.652,602.501 L 158.544,614.445 L 159.852,622.705 L 166.174,642.161 L 175.46,660.387 L 185.21,673.807 L 189.674,682.565 L 191.21,692.273 L 189.674,701.981 L 185.21,710.739 L 175.46,724.159 L 166.174,742.385 L 159.852,761.841 L 158.252,771.943 L 156.652,782.045 L 156.652,802.501 L 159.052,817.655 L 159.852,822.705 L 166.174,842.161 L 175.46,860.387 L 185.21,873.807 L 189.674,882.565 L 191.21,892.273 L 189.674,901.981 L 185.21,910.739 L 175.46,924.159 L 166.174,942.385 L 159.852,961.841 L 159.11,966.527 L 156.652,982.045 L 156.652,1002.5 L 157.394,1007.19 L 159.852,1022.71 L 166.174,1042.16 L 175.46,1060.39 L 185.21,1073.81 L 189.674,1082.57 L 191.21,1092.27 L 189.674,1101.98 L 185.21,1110.74 L 175.46,1124.16 L 166.174,1142.39 L 159.852,1161.84 L 158.252,1171.94 L 156.652,1182.05 L 156.652,1202.5 L 159.052,1217.66 L 159.852,1222.71 L 166.174,1242.16 L 175.46,1260.39 L 185.21,1273.81 L 189.674,1282.57 L 191.21,1292.27 L 189.674,1301.98 L 185.21,1310.74 L 175.46,1324.16 L 166.174,1342.39 L 159.852,1361.84 L 158.344,1371.37 L 156.652,1382.05 L 156.652,1402.5 L 157.716,1409.22 L 159.852,1422.71 L 166.174,1442.16 L 175.46,1460.39 L 185.21,1473.81 L 189.674,1482.57 L 191.21,1492.27 L 189.674,1501.98 L 185.21,1510.74 L 175.46,1524.16 L 166.174,1542.39 L 159.852,1561.84 L 158.252,1571.94 L 156.652,1582.05 L 156.652,1602.5 L 158.108,1611.69 L 159.852,1622.71 L 166.174,1642.16 L 175.46,1660.39 L 185.21,1673.81 L 189.674,1682.57 L 191.21,1692.27 L 189.674,1701.98 L 185.21,1710.74 L 175.46,1724.16 L 166.174,1742.39 L 159.852,1761.84 L 158.252,1771.94 L 156.652,1782.05 L 156.652,1802.5 L 158.22,1812.39 L 159.852,1822.71 L 166.174,1842.16 L 175.46,1860.39 L 185.21,1873.81 L 189.674,1882.57 L 191.21,1892.27 L 189.674,1901.98 L 185.21,1910.74 L 175.46,1924.16 L 166.174,1942.39 L 159.852,1961.84 L 158.252,1971.94 L 156.652,1982.05 L 156.652,2002.5 L 159.052,2017.66 L 159.852,2022.71 L 166.174,2042.16 L 175.46,2060.39 L 185.21,2073.81 L 189.674,2082.57 L 191.21,2092.27 L 189.674,2101.98 L 185.21,2110.74 L 175.46,2124.16 L 166.174,2142.39 L 159.852,2161.84 L 158.252,2171.94 L 156.652,2182.05 L 156.652,2202.5 L 159.052,2217.66 L 159.852,2222.71 L 166.174,2242.16 L 175.46,2260.39 L 185.21,2273.81 L 189.674,2282.57 L 191.21,2292.27 L 189.674,2301.98 L 185.21,2310.74 L 175.46,2324.16 L 166.174,2342.39 L 159.852,2361.84 L 158.252,2371.94 L 156.652,2382.05 L 156.652,2402.5 L 159.052,2417.66 L 159.852,2422.71 L 166.174,2442.16 L 175.46,2460.39 L 185.21,2473.81 L 189.674,2482.57 L 191.21,2492.27 L 189.674,2501.98 L 185.21,2510.74 L 175.46,2524.16 L 166.174,2542.39 L 159.852,2561.84 L 158.252,2571.94 L 156.652,2582.05 L 156.652,2602.5 L 159.052,2617.66 L 159.852,2622.71 L 166.174,2642.16 L 175.46,2660.39 L 185.234,2673.84 L 189.698,2682.6 L 191.236,2692.31 L 189.698,2702.02 L 185.236,2710.77 L 175.494,2724.18 L 166.21,2742.4 L 160.24,2760.78 L 227.925,2760.78 L 230.965,2755.09 L 239.288,2744.95 L 249.43,2736.62 L 261.002,2730.44 L 273.557,2726.63 L 286.614,2725.34 L 388.976,2725.34 L 402.034,2726.63 L 414.589,2730.44 L 426.16,2736.62 L 436.302,2744.95 L 444.626,2755.09 L 447.666,2760.78 L 507.518,2760.78 L 517.226,2762.32 L 517.646,2762.53 L 529.679,2762.53 L 532.719,2756.84 L 541.042,2746.7 L 551.185,2738.38 L 562.756,2732.19 L 575.311,2728.38 L 588.369,2727.1 L 690.731,2727.1 L 703.788,2728.38 L 716.343,2732.19 L 727.915,2738.38 L 738.057,2746.7 L 746.38,2756.84 L 749.42,2762.53 L 817.104,2762.53 L 811.132,2744.15 L 801.848,2725.93 L 792.108,2712.53 L 787.646,2703.77 L 786.108,2694.06 L 787.646,2684.35 L 792.108,2675.59 L 801.882,2662.14 L 811.17,2643.91 L 817.49,2624.46 L 820.69,2604.25 L 820.69,2583.8 L 817.49,2563.59 L 811.17,2544.14 L 801.882,2525.91 L 792.132,2512.49 L 787.67,2503.73 L 786.132,2494.03 L 787.67,2484.32 L 792.132,2475.56 L 801.882,2462.14 L 811.17,2443.91 L 817.49,2424.46 L 820.69,2404.25 L 820.69,2383.8 L 817.49,2363.59 L 811.17,2344.14 L 801.882,2325.91 L 792.132,2312.49 L 787.67,2303.73 L 786.132,2294.03 L 787.67,2284.32 L 792.132,2275.56 L 801.882,2262.14 L 811.17,2243.91 L 817.49,2224.46 L 820.69,2204.25 L 820.69,2183.8 L 817.49,2163.59 L 811.17,2144.14 L 801.882,2125.91 L 792.132,2112.49 L 787.67,2103.73 L 786.132,2094.03 L 787.67,2084.32 L 792.132,2075.56 L 801.882,2062.14 L 811.17,2043.91 L 817.49,2024.46 L 820.69,2004.25 L 820.69,1983.8 L 817.49,1963.59 L 811.17,1944.14 L 801.882,1925.91 L 792.132,1912.49 L 787.67,1903.73 L 786.132,1894.03 L 787.67,1884.32 L 792.132,1875.56 L 801.882,1862.14 L 811.17,1843.91 L 812.864,1838.69 L 817.328,1829.94 L 820.53,1826.19 L 825.122,1821.59 L 833.074,1815.82 L 842.422,1812.78 L 847.338,1812.39 L 1494.4,1812.39 L 1504.11,1813.93 L 1512.86,1818.39 L 1516.61,1821.59 L 1738.79,2043.77 L 1744.57,2051.72 L 1747.6,2061.07 L 1747.99,2065.99 L 1747.99,3977.75 L 1746.45,3987.46 L 1741.99,3996.21 L 1735.04,4003.16 L 1726.28,4007.63 L 1716.57,4009.16 L 1713.9,4008.95 L 1713.9,4009.03 L 1712.67,4008.94 L 1589.85,4008.94 L 1577.73,4010.86 L 1569.65,4012.14 L 1550.19,4018.46 L 1531.96,4027.75 L 1515.41,4039.77 L 1500.95,4054.23 L 1488.93,4070.78 L 1479.64,4089.01 L 1473.32,4108.47 L 1470.12,4128.67 L 1470.12,4149.13 L 1472.52,4164.28 L 1473.32,4169.33 L 1479.64,4188.79 L 1488.93,4207.01 L 1498.68,4220.43 L 1503.14,4229.19 L 1504.68,4238.9 L 1503.14,4248.61 L 1498.68,4257.36 L 1488.93,4270.78 L 1479.64,4289.01 L 1473.32,4308.46 L 1470.12,4328.67 L 1470.12,4349.13 L 1473.32,4369.33 L 1479.64,4388.79 L 1488.93,4407.01 L 1498.68,4420.43 L 1503.14,4429.19 L 1504.68,4438.9 L 1503.14,4448.61 L 1498.68,4457.36 L 1488.93,4470.78 L 1479.64,4489.01 L 1473.32,4508.47 L 1470.12,4528.67 L 1470.12,4549.13 L 1473.32,4569.33 L 1473.7,4570.5 L 1475.24,4580.21 L 1473.7,4589.92 L 1469.24,4598.68 L 1462.29,4605.63 L 1453.53,4610.09 L 1443.82,4611.63 L 1434.11,4610.09 L 1432.16,4609.46 L 1411.96,4606.26 L 1289.14,4606.26 L 1277.02,4608.18 L 1268.94,4609.46 L 1249.48,4615.78 L 1231.25,4625.07 L 1214.71,4637.09 L 1200.24,4651.56 L 1188.22,4668.11 L 1178.93,4686.33 L 1172.61,4705.79 L 1169.41,4725.99 L 1169.41,4746.45 L 1170.96,4756.25 L 1172.61,4766.65 L 1178.93,4786.11 L 1188.21,4804.31 L 1188.22,4804.33 L 1200.24,4820.88 L 1214.71,4835.35 L 1231.25,4847.37 L 1249.48,4856.66 L 1268.94,4862.98 L 1289.14,4866.18 L 1411.96,4866.18 L 1432.16,4862.98 L 1436.06,4861.72 L 1445.76,4860.18 L 1455.47,4861.72 L 1464.23,4866.18 L 1471.18,4873.13 L 1475.64,4881.89 L 1477.18,4891.6 L 1475.64,4901.3 L 1473.32,4908.46 L 1470.12,4928.67 L 1470.12,4949.13 L 1473.32,4969.33 L 1479.64,4988.79 L 1488.93,5007.01 L 1498.7,5020.46 L 1503.16,5029.22 L 1504.7,5038.93 L 1503.16,5048.64 L 1498.7,5057.4 L 1488.96,5070.8 L 1479.68,5089.02 L 1473.7,5107.4 L 1541.39,5107.4 L 1544.43,5101.71 L 1552.75,5091.57 L 1562.89,5083.25 L 1574.47,5077.06 L 1587.02,5073.25 L 1600.08,5071.97 L 1702.44,5071.97 L 1715.5,5073.25 L 1728.05,5077.06 L 1739.62,5083.25 L 1749.77,5091.57 L 1758.09,5101.71 L 1761.13,5107.4 L 1828.81,5107.4 L 1822.84,5089.02 L 1813.56,5070.8 L 1803.82,5057.4 L 1799.36,5048.64 L 1797.82,5038.93 L 1799.36,5029.22 L 1803.82,5020.46 L 1813.59,5007.01 L 1822.88,4988.79 L 1829.2,4969.33 L 1832.4,4949.13 L 1832.4,4928.67 L 1829.2,4908.47 L 1822.88,4889.01 L 1813.59,4870.78 L 1803.84,4857.36 L 1799.38,4848.61 L 1797.84,4838.9 L 1799.38,4829.19 L 1803.84,4820.43 L 1813.59,4807.01 L 1822.88,4788.79 L 1829.2,4769.33 L 1832.4,4749.13 L 1832.4,4728.67 L 1829.2,4708.47 L 1822.88,4689.01 L 1813.59,4670.78 L 1803.84,4657.36 L 1799.38,4648.61 L 1797.84,4638.9 L 1799.38,4629.19 L 1803.84,4620.43 L 1813.59,4607.01 L 1822.88,4588.79 L 1824.58,4583.57 L 1829.04,4574.81 L 1832.24,4571.06 L 2166.59,4236.71 L 2166.74,4236.5 L 2168.43,4234.17 L 2173.1,4227.75 L 2173.63,4227.01 L 2175.33,4224.67 L 2182.09,4211.41 L 2182.89,4208.94 L 2186.69,4197.26 L 2189.01,4182.57 L 2189.01,1902.01 L 2186.69,1887.31 L 2182.09,1873.16 L 2175.33,1859.91 L 2166.59,1847.87 L 2156.07,1837.35 L 1712.51,1393.79 L 1700.48,1385.05 L 1687.22,1378.29 L 1673.07,1373.7 L 1658.37,1371.37 L 843.438,1371.37 L 833.73,1369.83 L 824.972,1365.37 L 821.222,1362.17 L 820.342,1361.29 L 814.564,1353.33 L 812.678,1348.78 L 811.678,1345.7 L 811.17,1344.14 L 801.882,1325.91 L 792.132,1312.49 L 787.67,1303.73 L 786.132,1294.03 L 787.67,1284.32 L 792.132,1275.56 L 801.882,1262.14 L 811.17,1243.91 L 817.49,1224.46 L 820.69,1204.25 L 820.69,1183.8 L 817.49,1163.59 L 811.17,1144.14 L 801.882,1125.91 L 792.132,1112.49 L 787.67,1103.73 L 786.132,1094.03 L 787.67,1084.32 L 792.132,1075.56 L 801.882,1062.14 L 811.17,1043.91 L 817.49,1024.46 L 820.69,1004.25 L 820.69,983.797 L 817.49,963.591 L 811.17,944.137 L 801.882,925.909 L 792.132,912.491 L 787.67,903.733 L 786.132,894.025 L 787.67,884.315 L 792.132,875.557 L 801.882,862.139 L 811.17,843.911 L 817.49,824.457 L 820.69,804.253 L 820.69,783.797 L 817.49,763.591 L 811.17,744.137 L 801.882,725.909 L 792.132,712.491 L 787.67,703.733 L 786.132,694.025 L 787.67,684.315 L 792.132,675.557 L 801.882,662.139 L 811.17,643.911 L 817.49,624.457 L 820.69,604.253 L 820.69,583.797 L 817.49,563.591 L 811.17,544.137 L 801.882,525.909 L 792.132,512.491 L 787.67,503.733 L 786.132,494.025 L 787.67,484.315 L 792.132,475.557 L 801.882,462.139 L 811.17,443.911 L 817.49,424.457 L 820.69,404.253 L 820.69,383.797 L 817.49,363.591 L 811.17,344.137 L 801.882,325.909 L 792.132,312.491 L 787.67,303.733 L 786.132,294.025 L 787.67,284.315 L 792.132,275.557 L 801.882,262.139 L 811.17,243.911 L 817.49,224.457 L 820.69,204.253 L 820.69,183.797 L 817.49,163.591 L 811.17,144.137 L 801.882,125.909 L 800.34,123.785 L 793.842,114.843 L 789.38,106.085 L 787.842,96.377 L 789.38,86.669 L 793.842,77.911 L 800.792,70.959 L 809.55,66.497 L 819.26,64.959 L 2459.89,64.959 L 2469.6,66.497 L 2478.35,70.959 L 2485.3,77.911 L 2489.77,86.669 L 2491.3,96.377 L 2489.77,106.085 L 2485.3,114.843 L 2477.25,125.931 L 2467.96,144.151 L 2461.99,162.529 L 2529.68,162.529 L 2532.72,156.841 L 2541.04,146.699 L 2551.18,138.376 L 2562.76,132.191 L 2575.31,128.382 L 2588.37,127.096 L 2690.73,127.096 L 2703.79,128.382 L 2716.34,132.191 L 2727.91,138.376 L 2738.06,146.699 L 2746.38,156.841 L 2749.42,162.529 L 2758.14,162.529 L 2763.55,160.771 L 2768.46,160.383 L 2827.93,160.383 L 2830.96,154.696 L 2839.29,144.554 L 2849.43,136.231 L 2861,130.046 L 2873.56,126.237 L 2886.61,124.951 L 2988.98,124.951 L 3002.03,126.237 L 3014.59,130.046 L 3026.16,136.231 L 3036.3,144.554 L 3044.63,154.696 L 3047.67,160.383 L 3115.35,160.383 L 3109.38,142.007 L 3100.09,123.785 L 3093.6,114.843 L 3089.13,106.085 L 3087.6,96.377 L 3089.13,86.669 L 3093.6,77.911 L 3100.55,70.959 L 3109.31,66.497 L 3119.01,64.959 L 3799.98,64.959 L 3809.69,66.497 L 3818.44,70.959 L 3822.19,74.161 L 3835.29,87.253 L 3841.06,95.207 L 3844.1,104.555 L 3844.49,109.469 L 3844.49,5532.26 L 3842.95,5541.97 L 3838.49,5550.73 L 3835.29,5554.48 L 3822.19,5567.57 L 3814.24,5573.35 L 3804.89,5576.38 L 3799.98,5576.77 L 109.47,5576.77 L 99.7598,5575.23 L 91.0018,5570.77 L 87.2538,5567.57 L 74.1618,5554.48 L 68.3838,5546.53 L 65.3458,5537.18 L 64.9598,5532.26M 156.652,3802.5 L 159.052,3817.66 L 159.852,3822.71 L 166.174,3842.16 L 175.46,3860.39 L 176.734,3862.14 L 187.484,3876.94 L 201.95,3891.4 L 218.5,3903.43 L 226.112,3907.31 L 234.064,3913.08 L 239.842,3921.04 L 242.88,3930.38 L 243.266,3935.3 L 243.266,4625.63 L 243.266,4640.51 L 245.594,4655.21 L 250.192,4669.36 L 256.948,4682.61 L 265.692,4694.65 L 984.954,5413.91 L 996.992,5422.66 L 1010.25,5429.41 L 1024.4,5434.01 L 1039.1,5436.34 L 1053.97,5436.34 L 1068.67,5434.01 L 1069.89,5433.82 L 1069.92,5434.01 L 1074.83,5433.43 L 1498.87,5433.43 L 1508.58,5434.96 L 1517.34,5439.43 L 1531.96,5450.05 L 1550.19,5459.34 L 1569.65,5465.66 L 1589.85,5468.86 L 1712.67,5468.86 L 1732.87,5465.66 L 1752.33,5459.34 L 1770.55,5450.05 L 1785.18,5439.43 L 1793.94,5434.96 L 1803.64,5433.43 L 2881.61,5433.43 L 2896.31,5431.1 L 2910.46,5426.5 L 2923.72,5419.74 L 2935.75,5411 L 3208.52,5138.23 L 3216.47,5132.46 L 3225.82,5129.42 L 3235.65,5129.42 L 3245,5132.46 L 3252.95,5138.23 L 3258.73,5146.19 L 3261.76,5155.54 L 3261.76,5165.36 L 3261.59,5166.34 L 3259.45,5177.58 L 3257.92,5201.81 L 3259.45,5226.04 L 3264,5249.89 L 3267.68,5261.22 L 3271.5,5272.98 L 3281.84,5294.95 L 3294.85,5315.45 L 3310.32,5334.16 L 3319.83,5343.09 L 3328.02,5350.78 L 3347.66,5365.05 L 3368.94,5376.75 L 3387.82,5384.22 L 3391.52,5385.68 L 3415.03,5391.72 L 3439.12,5394.76 L 3463.4,5394.76 L 3487.49,5391.72 L 3511,5385.68 L 3533.58,5376.75 L 3554.85,5365.05 L 3555.07,5364.89 L 3574.49,5350.78 L 3592.19,5334.16 L 3607.67,5315.45 L 3620.68,5294.95 L 3631.02,5272.98 L 3638.52,5249.89 L 3643.07,5226.04 L 3644.59,5201.81 L 3643.07,5177.58 L 3638.52,5153.73 L 3631.02,5130.64 L 3620.68,5108.67 L 3619.87,5107.39 L 3614.88,5099.53 L 3607.67,5088.17 L 3601.55,5080.77 L 3592.19,5069.46 L 3579.34,5057.4 L 3574.49,5052.84 L 3554.85,5038.57 L 3553.86,5038.03 L 3545.97,5033.69 L 3533.58,5026.88 L 3511,5017.94 L 3487.49,5011.9 L 3463.4,5008.86 L 3439.12,5008.86 L 3429,5010.14 L 3414.3,5011.99 L 3404.47,5011.69 L 3395.22,5008.36 L 3387.46,5002.33 L 3381.93,4994.2 L 3379.19,4984.76 L 3379.5,4974.94 L 3382.83,4965.69 L 3388.14,4958.61 L 3691.96,4654.79 L 3700.7,4642.76 L 3707.46,4629.5 L 3712.06,4615.35 L 3714.38,4600.65 L 3714.38,4585.77 L 3714.38,3490.37 L 3712.06,3475.68 L 3707.46,3461.53 L 3700.7,3448.27 L 3697.54,3443.91 L 3691.96,3436.23 L 3597.6,3341.87 L 3591.82,3333.92 L 3588.79,3324.57 L 3588.4,3319.66 L 3588.4,3304.73 L 3588.24,3303.73 L 3585.2,3284.53 L 3578.88,3265.07 L 3569.59,3246.85 L 3560.96,3234.97 L 3556.5,3226.21 L 3554.96,3216.5 L 3556.5,3206.79 L 3560.96,3198.04 L 3569.56,3186.2 L 3578.84,3167.98 L 3584.81,3149.61 L 3517.13,3149.61 L 3514.09,3155.29 L 3505.77,3165.44 L 3495.62,3173.76 L 3484.05,3179.94 L 3471.5,3183.75 L 3458.44,3185.04 L 3356.08,3185.04 L 3343.02,3183.75 L 3330.47,3179.94 L 3318.89,3173.76 L 3308.75,3165.44 L 3300.43,3155.29 L 3297.39,3149.61 L 3229.7,3149.61 L 3235.68,3167.98 L 3244.96,3186.2 L 3253.56,3198.04 L 3258.02,3206.79 L 3259.56,3216.5 L 3258.02,3226.21 L 3253.56,3234.97 L 3244.93,3246.85 L 3235.64,3265.07 L 3229.32,3284.53 L 3228.09,3292.27 L 3226.12,3304.73 L 3226.12,3325.19 L 3227.5,3333.92 L 3229.32,3345.39 L 3235.64,3364.85 L 3244.93,3383.07 L 3256.95,3399.62 L 3271.41,3414.09 L 3287.96,3426.11 L 3306.19,3435.4 L 3325.65,3441.72 L 3345.85,3444.92 L 3420.27,3444.92 L 3429.98,3446.46 L 3438.74,3450.92 L 3442.49,3454.12 L 3516.13,3527.76 L 3521.91,3535.72 L 3524.94,3545.06 L 3525.33,3549.98 L 3525.33,4161.13 L 3523.79,4170.83 L 3519.33,4179.59 L 3512.38,4186.54 L 3503.62,4191.01 L 3493.91,4192.54 L 3489,4192.16 L 3481.73,4191.01 L 3468.67,4188.94 L 3345.85,4188.94 L 3333.73,4190.86 L 3325.65,4192.14 L 3306.19,4198.46 L 3287.96,4207.75 L 3271.41,4219.77 L 3256.95,4234.23 L 3244.93,4250.78 L 3235.64,4269.01 L 3235.46,4269.56 L 3235.19,4270.08 L 3235.16,4270.15 L 3231,4278.32 L 3227.79,4282.07 L 3223.83,4286.03 L 3215.88,4291.81 L 3206.53,4294.85 L 3201.62,4295.24 L 2971.33,4295.24 L 2956.45,4295.24 L 2941.75,4297.56 L 2927.6,4302.16 L 2914.35,4308.92 L 2902.31,4317.66 L 2755.2,4464.77 L 2747.25,4470.54 L 2737.9,4473.58 L 2728.07,4473.58 L 2712.67,4471.14 L 2589.85,4471.14 L 2577.73,4473.06 L 2569.65,4474.34 L 2550.19,4480.66 L 2531.96,4489.95 L 2515.41,4501.97 L 2500.95,4516.44 L 2488.93,4532.99 L 2479.64,4551.21 L 2473.32,4570.67 L 2470.12,4590.87 L 2470.12,4611.33 L 2472.29,4625.07 L 2473.32,4631.53 L 2479.64,4650.99 L 2488.93,4669.22 L 2494.67,4677.13 L 2500.95,4685.77 L 2515.41,4700.23 L 2521.6,4704.72 L 2532.96,4712.98 L 2532.88,4713.09 L 2539.2,4718.49 L 2544.34,4726.88 L 2546.63,4736.43 L 2545.86,4746.23 L 2542.1,4755.31 L 2535.72,4762.79 L 2532.95,4764.8 L 2532.96,4764.82 L 2515.41,4777.56 L 2500.95,4792.03 L 2488.93,4808.58 L 2479.64,4826.81 L 2473.32,4846.26 L 2472.17,4853.48 L 2470.12,4866.46 L 2470.12,4886.92 L 2471.02,4892.64 L 2473.32,4907.13 L 2479.64,4926.58 L 2480.7,4928.67 L 2488.93,4944.81 L 2500.95,4961.36 L 2515.41,4975.82 L 2531.96,4987.85 L 2550.19,4997.13 L 2569.65,5003.45 L 2589.85,5006.65 L 2712.67,5006.65 L 2732.87,5003.45 L 2752.33,4997.13 L 2770.55,4987.85 L 2787.1,4975.82 L 2801.57,4961.36 L 2813.59,4944.81 L 2822.88,4926.58 L 2829.2,4907.13 L 2832.4,4886.92 L 2832.4,4866.46 L 2830.34,4853.47 L 2830.34,4843.65 L 2833.38,4834.3 L 2839.16,4826.34 L 3046.03,4619.48 L 3053.98,4613.7 L 3063.33,4610.66 L 3068.24,4610.28 L 3254.87,4610.28 L 3264.58,4611.81 L 3273.34,4616.28 L 3287.96,4626.9 L 3306.19,4636.19 L 3325.65,4642.51 L 3345.85,4645.71 L 3357.83,4645.71 L 3367.54,4647.25 L 3376.3,4651.71 L 3383.25,4658.66 L 3387.71,4667.42 L 3389.25,4677.13 L 3387.71,4686.83 L 3383.25,4695.59 L 3380.05,4699.34 L 2844.22,5235.17 L 2836.27,5240.95 L 2826.92,5243.98 L 2822,5244.37 L 1845.78,5244.37 L 1836.07,5242.83 L 1827.32,5238.37 L 1820.36,5231.42 L 1815.9,5222.66 L 1814.36,5212.95 L 1815.9,5203.24 L 1817.79,5198.69 L 1822.84,5188.77 L 1828.81,5170.39 L 1761.13,5170.39 L 1758.09,5176.08 L 1749.77,5186.22 L 1739.62,5194.55 L 1728.05,5200.73 L 1715.5,5204.54 L 1702.44,5205.83 L 1600.08,5205.83 L 1587.02,5204.54 L 1574.47,5200.73 L 1562.89,5194.55 L 1552.75,5186.22 L 1544.43,5176.08 L 1541.39,5170.39 L 1473.7,5170.39 L 1479.68,5188.77 L 1484.73,5198.69 L 1487.77,5208.04 L 1487.77,5217.87 L 1484.73,5227.22 L 1478.95,5235.17 L 1471,5240.95 L 1461.65,5243.98 L 1456.74,5244.37 L 1095.79,5244.37 L 1086.08,5242.83 L 1077.32,5238.37 L 1073.57,5235.17 L 758.18,4919.77 L 752.402,4911.82 L 749.366,4902.47 L 749.366,4892.64 L 752.402,4883.3 L 758.18,4875.34 L 766.132,4869.57 L 775.48,4866.53 L 780.396,4866.14 L 811.956,4866.14 L 832.154,4862.94 L 851.604,4856.62 L 869.824,4847.34 L 886.37,4835.32 L 900.83,4820.86 L 912.85,4804.31 L 922.134,4786.09 L 928.104,4767.72 L 860.423,4767.71 L 857.382,4773.4 L 849.058,4783.55 L 838.916,4791.87 L 827.345,4798.05 L 814.79,4801.86 L 801.732,4803.15 L 699.37,4803.15 L 686.313,4801.86 L 673.757,4798.05 L 662.186,4791.87 L 652.044,4783.55 L 643.721,4773.4 L 637.536,4761.83 L 633.727,4749.28 L 632.441,4736.22 L 633.727,4723.16 L 637.536,4710.61 L 643.721,4699.04 L 652.044,4688.89 L 662.186,4680.57 L 673.757,4674.39 L 686.313,4670.58 L 699.37,4669.29 L 719.054,4669.29 L 719.054,4606.3 L 689.144,4606.3 L 668.946,4609.5 L 649.496,4615.82 L 631.276,4625.1 L 614.732,4637.12 L 600.27,4651.58 L 588.25,4668.13 L 580.3,4683.73 L 574.522,4691.68 L 566.57,4697.46 L 557.22,4700.5 L 547.392,4700.5 L 538.042,4697.46 L 530.09,4691.68 L 441.524,4603.12 L 435.746,4595.17 L 432.708,4585.82 L 432.322,4580.9 L 432.322,3935.3 L 433.86,3925.59 L 438.322,3916.83 L 445.272,3909.88 L 449.476,3907.31 L 457.09,3903.43 L 469,3894.77 L 477.758,3890.31 L 487.466,3888.77 L 497.174,3890.31 L 505.932,3894.77 L 520.254,3905.18 L 538.48,3914.46 L 557.936,3920.79 L 578.14,3923.99 L 700.958,3923.99 L 721.162,3920.79 L 740.618,3914.46 L 758.844,3905.18 L 775.394,3893.15 L 789.858,3878.69 L 801.882,3862.14 L 811.17,3843.91 L 817.49,3824.46 L 820.69,3804.25 L 820.69,3783.8 L 817.49,3763.59 L 811.17,3744.14 L 801.882,3725.91 L 792.132,3712.49 L 787.67,3703.73 L 786.132,3694.03 L 787.67,3684.32 L 792.132,3675.56 L 801.882,3662.14 L 811.17,3643.91 L 817.49,3624.46 L 820.69,3604.25 L 820.69,3583.8 L 817.49,3563.59 L 811.17,3544.14 L 801.882,3525.91 L 792.132,3512.49 L 787.67,3503.73 L 786.132,3494.03 L 787.67,3484.32 L 792.132,3475.56 L 801.882,3462.14 L 811.17,3443.91 L 817.49,3424.46 L 820.69,3404.25 L 820.69,3383.8 L 817.49,3363.59 L 811.17,3344.14 L 801.882,3325.91 L 792.132,3312.49 L 787.67,3303.73 L 786.132,3294.03 L 787.67,3284.32 L 792.132,3275.56 L 801.882,3262.14 L 811.17,3243.91 L 817.49,3224.46 L 820.69,3204.25 L 820.69,3183.8 L 817.49,3163.59 L 811.17,3144.14 L 801.882,3125.91 L 792.132,3112.49 L 787.67,3103.73 L 786.132,3094.03 L 787.67,3084.32 L 792.132,3075.56 L 801.882,3062.14 L 811.17,3043.91 L 817.49,3024.46 L 820.69,3004.25 L 820.69,2983.8 L 817.49,2963.59 L 811.17,2944.14 L 801.882,2925.91 L 792.108,2912.46 L 787.646,2903.7 L 786.108,2893.99 L 787.646,2884.28 L 792.108,2875.53 L 801.848,2862.12 L 811.132,2843.9 L 817.104,2825.52 L 749.421,2825.52 L 746.38,2831.21 L 738.057,2841.35 L 727.915,2849.67 L 716.343,2855.86 L 703.788,2859.67 L 690.731,2860.95 L 588.369,2860.95 L 575.311,2859.67 L 562.756,2855.86 L 551.185,2849.67 L 541.042,2841.35 L 532.719,2831.21 L 529.679,2825.52 L 469.826,2825.52 L 460.116,2823.98 L 459.698,2823.77 L 447.667,2823.77 L 444.626,2829.46 L 436.302,2839.6 L 426.16,2847.92 L 414.589,2854.11 L 402.034,2857.92 L 388.976,2859.2 L 286.614,2859.2 L 273.557,2857.92 L 261.002,2854.11 L 249.43,2847.92 L 239.288,2839.6 L 230.965,2829.46 L 227.924,2823.77 L 160.24,2823.77 L 166.21,2842.15 L 175.494,2860.37 L 185.234,2873.77 L 189.698,2882.53 L 191.236,2892.24 L 189.698,2901.95 L 185.234,2910.71 L 175.46,2924.16 L 166.174,2942.39 L 159.852,2961.84 L 158.252,2971.94 L 156.652,2982.05 L 156.652,3002.5 L 159.052,3017.66 L 159.852,3022.71 L 166.174,3042.16 L 175.46,3060.39 L 185.21,3073.81 L 189.674,3082.57 L 191.21,3092.27 L 189.674,3101.98 L 185.21,3110.74 L 175.46,3124.16 L 166.174,3142.39 L 159.852,3161.84 L 158.88,3167.98 L 156.652,3182.05 L 156.652,3202.5 L 157.332,3206.79 L 159.852,3222.71 L 166.174,3242.16 L 175.46,3260.39 L 185.21,3273.81 L 189.674,3282.57 L 191.21,3292.27 L 189.674,3301.98 L 185.21,3310.74 L 175.46,3324.16 L 166.174,3342.39 L 159.852,3361.84 L 159.376,3364.85 L 156.652,3382.05 L 156.652,3402.5 L 158.488,3414.09 L 159.852,3422.71 L 166.174,3442.16 L 175.46,3460.39 L 185.21,3473.81 L 189.674,3482.57 L 191.21,3492.27 L 189.674,3501.98 L 185.21,3510.74 L 175.46,3524.16 L 166.174,3542.39 L 159.852,3561.84 L 158.252,3571.94 L 156.652,3582.05 L 156.652,3602.5 L 159.052,3617.66 L 159.852,3622.71 L 166.174,3642.16 L 175.46,3660.39 L 185.21,3673.81 L 189.674,3682.57 L 191.21,3692.27 L 189.674,3701.98 L 185.21,3710.74 L 175.46,3724.16 L 166.174,3742.39 L 159.852,3761.84 L 158.252,3771.94 L 156.652,3782.05 L 156.652,3802.5M 197.924,5201.81 L 199.45,5226.04 L 203.998,5249.89 L 207.678,5261.22 L 211.502,5272.98 L 221.84,5294.95 L 234.848,5315.45 L 250.324,5334.16 L 259.834,5343.09 L 268.024,5350.78 L 287.664,5365.05 L 308.942,5376.75 L 327.82,5384.22 L 331.516,5385.68 L 355.032,5391.72 L 379.12,5394.76 L 403.398,5394.76 L 427.486,5391.72 L 451.002,5385.68 L 473.576,5376.75 L 494.852,5365.05 L 495.066,5364.89 L 514.494,5350.78 L 532.194,5334.16 L 547.67,5315.45 L 560.68,5294.95 L 571.016,5272.98 L 578.52,5249.89 L 583.068,5226.04 L 584.594,5201.81 L 583.068,5177.58 L 578.52,5153.73 L 571.016,5130.64 L 560.68,5108.67 L 559.868,5107.39 L 554.876,5099.53 L 547.67,5088.17 L 541.548,5080.77 L 532.194,5069.46 L 519.344,5057.4 L 514.494,5052.84 L 494.854,5038.57 L 493.856,5038.03 L 485.974,5033.69 L 473.576,5026.88 L 451.002,5017.94 L 427.486,5011.9 L 403.398,5008.86 L 379.12,5008.86 L 356.74,5011.69 L 355.032,5011.9 L 331.514,5017.94 L 308.942,5026.88 L 287.664,5038.57 L 268.024,5052.84 L 250.324,5069.46 L 234.848,5088.17 L 221.84,5108.67 L 211.502,5130.64 L 203.998,5153.73 L 199.45,5177.58 L 197.924,5201.81M 782.046,4669.29 L 801.732,4669.29 L 814.79,4670.58 L 827.345,4674.39 L 838.916,4680.57 L 849.058,4688.89 L 857.382,4699.04 L 860.421,4704.72 L 928.104,4704.72 L 922.134,4686.35 L 912.85,4668.13 L 900.83,4651.58 L 886.37,4637.12 L 869.824,4625.1 L 851.604,4615.82 L 832.154,4609.5 L 811.956,4606.3 L 782.046,4606.3 L 782.046,4669.29M 2458.12,3804.04 L 2458.15,3804.25 L 2461.32,3824.24 L 2467.64,3843.7 L 2476.14,3860.39 L 2476.93,3861.93 L 2488.95,3878.47 L 2503.41,3892.94 L 2519.96,3904.96 L 2538.19,3914.25 L 2557.65,3920.57 L 2577.85,3923.77 L 2700.67,3923.77 L 2720.87,3920.57 L 2740.33,3914.25 L 2758.55,3904.96 L 2771.39,3895.64 L 2780.15,3891.18 L 2789.86,3889.64 L 2799.56,3891.18 L 2808.32,3895.64 L 2818.5,3903.03 L 2836.73,3912.32 L 2856.18,3918.64 L 2876.39,3921.84 L 2999.2,3921.84 L 3019.41,3918.64 L 3038.86,3912.32 L 3057.09,3903.03 L 3073.64,3891.01 L 3088.1,3876.54 L 3100.13,3859.99 L 3109.41,3841.77 L 3115.74,3822.31 L 3118.94,3802.11 L 3118.94,3781.65 L 3115.74,3761.45 L 3109.41,3741.99 L 3100.13,3723.77 L 3090.38,3710.35 L 3085.92,3701.59 L 3084.38,3691.88 L 3085.92,3682.17 L 3090.38,3673.41 L 3100.13,3659.99 L 3109.41,3641.77 L 3115.74,3622.31 L 3118.94,3602.11 L 3118.94,3581.65 L 3115.74,3561.45 L 3109.41,3541.99 L 3100.13,3523.77 L 3090.38,3510.35 L 3085.92,3501.59 L 3084.38,3491.88 L 3085.92,3482.17 L 3090.38,3473.41 L 3100.13,3459.99 L 3109.41,3441.77 L 3115.74,3422.31 L 3118.94,3402.11 L 3118.94,3381.65 L 3115.74,3361.45 L 3109.41,3341.99 L 3100.13,3323.77 L 3090.38,3310.35 L 3085.92,3301.59 L 3084.38,3291.88 L 3085.92,3282.17 L 3090.38,3273.41 L 3100.13,3259.99 L 3109.41,3241.77 L 3115.74,3222.31 L 3118.94,3202.11 L 3118.94,3181.65 L 3115.74,3161.45 L 3109.41,3141.99 L 3100.13,3123.77 L 3090.38,3110.35 L 3085.92,3101.59 L 3084.38,3091.88 L 3085.21,3086.61 L 3085.92,3082.17 L 3090.38,3073.41 L 3100.13,3059.99 L 3109.41,3041.77 L 3115.74,3022.31 L 3118.94,3002.11 L 3118.94,2981.65 L 3115.74,2961.45 L 3109.41,2941.99 L 3100.13,2923.77 L 3090.38,2910.35 L 3085.92,2901.59 L 3084.38,2891.88 L 3085.92,2882.17 L 3090.38,2873.41 L 3100.13,2859.99 L 3109.41,2841.77 L 3115.74,2822.31 L 3118.94,2802.11 L 3118.94,2781.65 L 3115.74,2761.45 L 3109.41,2741.99 L 3100.13,2723.77 L 3090.38,2710.35 L 3085.92,2701.59 L 3084.38,2691.88 L 3085.92,2682.17 L 3090.38,2673.41 L 3100.13,2659.99 L 3109.41,2641.77 L 3115.74,2622.31 L 3118.94,2602.11 L 3118.94,2581.65 L 3115.74,2561.45 L 3109.41,2541.99 L 3100.13,2523.77 L 3090.38,2510.35 L 3085.92,2501.59 L 3084.38,2491.88 L 3085.92,2482.17 L 3090.38,2473.41 L 3100.13,2459.99 L 3109.41,2441.77 L 3115.74,2422.31 L 3118.94,2402.11 L 3118.94,2381.65 L 3115.74,2361.45 L 3109.41,2341.99 L 3100.13,2323.77 L 3090.38,2310.35 L 3085.92,2301.59 L 3084.38,2291.88 L 3085.92,2282.17 L 3090.38,2273.41 L 3100.13,2259.99 L 3109.41,2241.77 L 3115.74,2222.31 L 3118.94,2202.11 L 3118.94,2181.65 L 3115.74,2161.45 L 3109.41,2141.99 L 3100.13,2123.77 L 3090.38,2110.35 L 3085.92,2101.59 L 3084.38,2091.88 L 3085.92,2082.17 L 3090.38,2073.41 L 3100.13,2059.99 L 3109.41,2041.77 L 3115.74,2022.31 L 3118.94,2002.11 L 3118.94,1981.65 L 3115.74,1961.45 L 3109.41,1941.99 L 3100.13,1923.77 L 3090.38,1910.35 L 3085.92,1901.59 L 3084.38,1891.88 L 3085.92,1882.17 L 3090.38,1873.41 L 3100.13,1859.99 L 3109.41,1841.77 L 3115.74,1822.31 L 3118.94,1802.11 L 3118.94,1781.65 L 3115.74,1761.45 L 3109.41,1741.99 L 3100.13,1723.77 L 3090.38,1710.35 L 3085.92,1701.59 L 3084.38,1691.88 L 3085.92,1682.17 L 3090.38,1673.41 L 3100.13,1659.99 L 3109.41,1641.77 L 3115.74,1622.31 L 3116.26,1619.01 L 3118.94,1602.11 L 3118.94,1581.65 L 3115.74,1561.45 L 3109.41,1541.99 L 3100.13,1523.77 L 3090.35,1510.31 L 3085.89,1501.56 L 3084.35,1491.85 L 3085.89,1482.14 L 3090.35,1473.38 L 3100.09,1459.97 L 3109.38,1441.75 L 3115.35,1423.38 L 3047.67,1423.38 L 3044.63,1429.06 L 3036.3,1439.21 L 3026.16,1447.53 L 3014.59,1453.71 L 3002.03,1457.52 L 2988.98,1458.81 L 2886.61,1458.81 L 2873.56,1457.52 L 2861,1453.71 L 2849.43,1447.53 L 2839.29,1439.21 L 2830.96,1429.06 L 2827.92,1423.38 L 2819.2,1423.38 L 2813.79,1425.13 L 2808.88,1425.52 L 2749.42,1425.52 L 2746.38,1431.21 L 2738.06,1441.35 L 2727.91,1449.67 L 2716.34,1455.86 L 2703.79,1459.67 L 2690.73,1460.95 L 2588.37,1460.95 L 2575.31,1459.67 L 2562.76,1455.86 L 2551.18,1449.67 L 2541.04,1441.35 L 2532.72,1431.21 L 2529.68,1425.52 L 2461.99,1425.52 L 2467.96,1443.9 L 2477.25,1462.12 L 2486.99,1475.53 L 2491.45,1484.28 L 2492.99,1493.99 L 2491.45,1503.7 L 2486.99,1512.46 L 2477.22,1525.91 L 2467.93,1544.14 L 2461.61,1563.59 L 2460.01,1573.69 L 2458.68,1582.05 L 2458.41,1583.8 L 2458.41,1604.25 L 2461.61,1624.46 L 2467.93,1643.91 L 2477.22,1662.14 L 2486.96,1675.56 L 2491.43,1684.32 L 2492.97,1694.03 L 2491.43,1703.73 L 2486.96,1712.49 L 2477.22,1725.91 L 2467.93,1744.14 L 2461.61,1763.59 L 2458.68,1782.05 L 2458.41,1783.8 L 2458.41,1804.25 L 2461.61,1824.46 L 2467.93,1843.91 L 2477.22,1862.14 L 2486.96,1875.56 L 2491.43,1884.32 L 2492.97,1894.03 L 2491.43,1903.73 L 2486.96,1912.49 L 2477.22,1925.91 L 2467.93,1944.14 L 2461.61,1963.59 L 2458.68,1982.05 L 2458.41,1983.8 L 2458.41,2004.25 L 2461.61,2024.46 L 2467.93,2043.91 L 2477.22,2062.14 L 2486.96,2075.56 L 2491.43,2084.32 L 2492.97,2094.03 L 2491.43,2103.73 L 2486.96,2112.49 L 2477.22,2125.91 L 2467.93,2144.14 L 2461.61,2163.59 L 2458.68,2182.05 L 2458.41,2183.8 L 2458.41,2204.25 L 2461.61,2224.46 L 2467.93,2243.91 L 2477.22,2262.14 L 2486.96,2275.56 L 2491.43,2284.32 L 2492.97,2294.03 L 2491.43,2303.73 L 2486.96,2312.49 L 2477.22,2325.91 L 2467.93,2344.14 L 2461.61,2363.59 L 2458.68,2382.05 L 2458.41,2383.8 L 2458.41,2404.25 L 2461.61,2424.46 L 2467.93,2443.91 L 2477.22,2462.14 L 2486.96,2475.56 L 2491.43,2484.32 L 2492.97,2494.03 L 2491.43,2503.73 L 2486.96,2512.49 L 2477.22,2525.91 L 2467.93,2544.14 L 2461.61,2563.59 L 2458.68,2582.05 L 2458.41,2583.8 L 2458.41,2604.25 L 2461.61,2624.46 L 2467.93,2643.91 L 2477.22,2662.14 L 2486.96,2675.56 L 2491.43,2684.32 L 2492.97,2694.03 L 2491.43,2703.73 L 2486.96,2712.49 L 2477.22,2725.91 L 2467.93,2744.14 L 2461.61,2763.59 L 2458.41,2783.8 L 2458.41,2804.25 L 2460.34,2816.45 L 2461.61,2824.46 L 2467.93,2843.91 L 2477.22,2862.14 L 2486.96,2875.56 L 2491.43,2884.32 L 2492.97,2894.03 L 2491.43,2903.73 L 2486.96,2912.49 L 2477.22,2925.91 L 2467.93,2944.14 L 2461.61,2963.59 L 2458.41,2983.8 L 2458.41,3004.25 L 2458.84,3006.99 L 2461.61,3024.46 L 2467.93,3043.91 L 2477.22,3062.14 L 2486.96,3075.56 L 2491.43,3084.32 L 2492.97,3094.03 L 2491.43,3103.73 L 2486.96,3112.49 L 2477.22,3125.91 L 2467.93,3144.14 L 2461.61,3163.59 L 2458.41,3183.8 L 2458.41,3204.25 L 2458.81,3206.79 L 2461.61,3224.46 L 2467.93,3243.91 L 2477.22,3262.14 L 2486.96,3275.56 L 2491.43,3284.32 L 2492.97,3294.03 L 2491.43,3303.73 L 2486.96,3312.49 L 2477.22,3325.91 L 2467.93,3344.14 L 2461.61,3363.59 L 2461.41,3364.85 L 2458.68,3382.05 L 2458.41,3383.8 L 2458.41,3404.25 L 2461.61,3424.46 L 2467.93,3443.91 L 2477.22,3462.14 L 2486.74,3475.25 L 2491.2,3484.01 L 2492.74,3493.72 L 2491.2,3503.43 L 2486.74,3512.19 L 2476.93,3525.7 L 2467.64,3543.92 L 2461.32,3563.38 L 2461.28,3563.59 L 2458.12,3583.58 L 2458.12,3604.04 L 2458.15,3604.25 L 2461.32,3624.24 L 2467.64,3643.7 L 2476.93,3661.93 L 2486.68,3675.34 L 2491.14,3684.1 L 2492.68,3693.81 L 2491.14,3703.52 L 2486.68,3712.28 L 2476.93,3725.7 L 2467.64,3743.92 L 2461.32,3763.38 L 2461.28,3763.59 L 2458.12,3783.58 L 2458.12,3804.04M 2458.41,1204.25 L 2461.61,1224.46 L 2467.93,1243.91 L 2477.22,1262.14 L 2486.99,1275.59 L 2491.45,1284.35 L 2492.99,1294.06 L 2491.45,1303.77 L 2486.99,1312.53 L 2477.25,1325.93 L 2467.96,1344.15 L 2461.99,1362.53 L 2529.68,1362.53 L 2532.72,1356.84 L 2541.04,1346.7 L 2551.18,1338.38 L 2562.76,1332.19 L 2575.31,1328.38 L 2588.37,1327.1 L 2690.73,1327.1 L 2703.79,1328.38 L 2716.34,1332.19 L 2727.91,1338.38 L 2738.06,1346.7 L 2746.38,1356.84 L 2749.42,1362.53 L 2758.14,1362.53 L 2763.55,1360.77 L 2768.46,1360.38 L 2827.93,1360.38 L 2830.96,1354.7 L 2839.29,1344.55 L 2849.43,1336.23 L 2861,1330.05 L 2873.56,1326.24 L 2886.61,1324.95 L 2988.98,1324.95 L 3002.03,1326.24 L 3014.59,1330.05 L 3026.16,1336.23 L 3036.3,1344.55 L 3044.63,1354.7 L 3047.67,1360.38 L 3116.31,1360.38 L 3119.76,1356.93 L 3128.52,1352.47 L 3138.22,1350.93 L 3147.93,1352.47 L 3156.69,1356.93 L 3160.44,1360.13 L 3227.79,1427.49 L 3233.57,1435.44 L 3235.46,1439.99 L 3235.64,1440.55 L 3244.93,1458.78 L 3253.56,1470.65 L 3258.02,1479.41 L 3259.56,1489.12 L 3258.02,1498.83 L 3253.56,1507.59 L 3244.96,1519.42 L 3235.68,1537.64 L 3229.7,1556.02 L 3297.39,1556.02 L 3300.43,1550.33 L 3308.75,1540.19 L 3318.89,1531.86 L 3330.47,1525.68 L 3343.02,1521.87 L 3356.08,1520.58 L 3458.44,1520.58 L 3471.5,1521.87 L 3484.05,1525.68 L 3495.62,1531.86 L 3505.77,1540.19 L 3514.09,1550.33 L 3517.13,1556.02 L 3584.81,1556.02 L 3578.84,1537.64 L 3569.56,1519.42 L 3560.96,1507.59 L 3556.5,1498.83 L 3554.96,1489.12 L 3556.5,1479.41 L 3560.96,1470.65 L 3569.59,1458.78 L 3578.88,1440.55 L 3585.2,1421.09 L 3588.4,1400.89 L 3588.4,1380.43 L 3585.2,1360.23 L 3578.88,1340.77 L 3571.31,1325.91 L 3569.59,1322.55 L 3560.99,1310.7 L 3556.52,1301.94 L 3554.99,1292.24 L 3556.52,1282.53 L 3560.99,1273.77 L 3569.59,1261.93 L 3578.88,1243.7 L 3585.2,1224.24 L 3588.4,1204.04 L 3588.4,1183.58 L 3585.2,1163.38 L 3578.88,1143.92 L 3569.7,1125.91 L 3569.59,1125.7 L 3568.48,1124.16 L 3560.99,1113.85 L 3556.52,1105.09 L 3554.99,1095.39 L 3556.52,1085.68 L 3560.99,1076.92 L 3569.59,1065.07 L 3578.88,1046.85 L 3585.2,1027.39 L 3588.4,1007.19 L 3588.4,986.731 L 3585.2,966.527 L 3578.88,947.073 L 3569.59,928.845 L 3557.57,912.295 L 3543.1,897.831 L 3535.45,892.273 L 3526.55,885.807 L 3508.33,876.521 L 3488.87,870.199 L 3483.82,869.399 L 3468.67,866.999 L 3402.32,866.999 L 3392.61,865.461 L 3383.86,860.999 L 3376.9,854.049 L 3372.44,845.291 L 3370.9,835.581 L 3370.9,643.563 L 3368.58,628.867 L 3367.05,624.153 L 3365.51,614.445 L 3367.05,604.735 L 3371.51,595.977 L 3378.46,589.027 L 3387.22,584.565 L 3396.92,583.027 L 3404.74,584.013 L 3418.5,587.547 L 3442.58,590.589 L 3466.86,590.589 L 3490.95,587.547 L 3514.47,581.509 L 3537.04,572.571 L 3558.32,560.875 L 3558.53,560.719 L 3577.96,546.605 L 3595.66,529.983 L 3611.13,511.275 L 3624.14,490.777 L 3634.48,468.807 L 3641.98,445.717 L 3646.53,421.867 L 3648.06,397.637 L 3646.53,373.405 L 3641.98,349.557 L 3634.48,326.465 L 3624.14,304.497 L 3611.13,283.997 L 3602.7,273.807 L 3595.66,265.291 L 3585.49,255.741 L 3577.96,248.669 L 3558.32,234.399 L 3537.04,222.703 L 3514.47,213.765 L 3490.95,207.727 L 3466.86,204.685 L 3442.58,204.685 L 3418.5,207.727 L 3394.98,213.765 L 3372.41,222.703 L 3351.13,234.399 L 3331.49,248.669 L 3313.79,265.291 L 3298.31,283.997 L 3285.3,304.497 L 3274.97,326.465 L 3269.92,341.991 L 3267.46,349.557 L 3266.54,354.385 L 3262.91,373.405 L 3261.39,397.637 L 3262.91,421.869 L 3263.1,422.871 L 3263.41,432.695 L 3260.67,442.133 L 3255.15,450.263 L 3247.38,456.287 L 3238.13,459.617 L 3228.31,459.925 L 3218.87,457.183 L 3210.74,451.657 L 3210.03,450.971 L 3118.77,359.717 L 3113,351.765 L 3111.11,347.211 L 3109.41,341.991 L 3106.24,335.761 L 3100.13,323.765 L 3090.35,310.313 L 3085.89,301.555 L 3084.35,291.845 L 3085.89,282.137 L 3090.35,273.379 L 3100.09,259.973 L 3109.38,241.753 L 3115.35,223.375 L 3047.67,223.375 L 3044.63,229.064 L 3036.3,239.206 L 3026.16,247.53 L 3014.59,253.715 L 3002.03,257.523 L 2988.98,258.809 L 2886.61,258.809 L 2873.56,257.523 L 2861,253.715 L 2849.43,247.53 L 2839.29,239.206 L 2830.96,229.064 L 2827.92,223.375 L 2819.2,223.375 L 2813.79,225.133 L 2808.88,225.521 L 2749.42,225.521 L 2746.38,231.209 L 2738.06,241.351 L 2727.91,249.675 L 2716.34,255.86 L 2703.79,259.668 L 2690.73,260.954 L 2588.37,260.954 L 2575.31,259.668 L 2562.76,255.86 L 2551.18,249.675 L 2541.04,241.351 L 2532.72,231.209 L 2529.68,225.521 L 2461.99,225.521 L 2467.96,243.897 L 2477.25,262.117 L 2486.99,275.525 L 2491.45,284.283 L 2492.99,293.991 L 2491.45,303.699 L 2486.99,312.457 L 2477.22,325.911 L 2467.93,344.137 L 2461.61,363.591 L 2458.68,382.045 L 2458.41,383.797 L 2458.41,404.253 L 2461.61,424.457 L 2467.93,443.911 L 2477.22,462.139 L 2486.96,475.557 L 2491.43,484.315 L 2492.97,494.025 L 2491.43,503.733 L 2486.96,512.491 L 2477.22,525.909 L 2467.93,544.137 L 2461.61,563.591 L 2458.68,582.045 L 2458.41,583.797 L 2458.41,604.253 L 2461.61,624.457 L 2467.93,643.911 L 2477.22,662.139 L 2486.96,675.557 L 2491.43,684.315 L 2492.97,694.025 L 2491.43,703.733 L 2486.96,712.491 L 2477.22,725.909 L 2467.93,744.137 L 2461.61,763.591 L 2458.68,782.045 L 2458.41,783.797 L 2458.41,804.253 L 2461.61,824.457 L 2467.93,843.911 L 2477.22,862.139 L 2486.96,875.557 L 2491.43,884.315 L 2492.97,894.025 L 2491.43,903.733 L 2486.96,912.491 L 2477.22,925.909 L 2467.93,944.137 L 2461.61,963.591 L 2460.01,973.693 L 2458.41,983.797 L 2458.41,1004.25 L 2460.81,1019.41 L 2461.61,1024.46 L 2467.93,1043.91 L 2477.22,1062.14 L 2486.96,1075.56 L 2491.43,1084.32 L 2492.97,1094.03 L 2491.43,1103.73 L 2486.96,1112.49 L 2477.22,1125.91 L 2467.93,1144.14 L 2461.61,1163.59 L 2458.44,1183.58 L 2458.41,1183.8 L 2458.41,1204.25M 3229.7,3086.61 L 3297.39,3086.61 L 3300.43,3080.93 L 3308.75,3070.78 L 3318.89,3062.46 L 3330.47,3056.28 L 3343.02,3052.47 L 3356.08,3051.18 L 3375.76,3051.18 L 3375.76,2988.19 L 3345.85,2988.19 L 3325.65,2991.39 L 3306.21,2997.71 L 3287.98,3006.99 L 3271.44,3019.01 L 3256.98,3033.47 L 3244.96,3050.02 L 3235.68,3068.24 L 3229.7,3086.61M 3229.7,1619.01 L 3235.68,1637.38 L 3244.96,1655.61 L 3256.98,1672.15 L 3271.44,1686.61 L 3287.98,1698.63 L 3306.21,1707.91 L 3325.65,1714.23 L 3345.85,1717.43 L 3375.76,1717.43 L 3375.76,1654.44 L 3356.08,1654.44 L 3343.02,1653.15 L 3330.47,1649.35 L 3318.89,1643.16 L 3308.75,1634.84 L 3300.43,1624.7 L 3297.39,1619.01 L 3229.7,1619.01M 3438.76,3051.18 L 3458.44,3051.18 L 3471.5,3052.47 L 3484.05,3056.28 L 3495.62,3062.46 L 3505.77,3070.78 L 3514.09,3080.93 L 3517.13,3086.61 L 3584.81,3086.61 L 3578.84,3068.24 L 3569.56,3050.02 L 3557.54,3033.47 L 3543.08,3019.01 L 3526.53,3006.99 L 3508.31,2997.71 L 3488.86,2991.39 L 3468.66,2988.19 L 3438.76,2988.19 L 3438.76,3051.18M 3438.76,1717.43 L 3468.66,1717.43 L 3488.86,1714.23 L 3508.31,1707.91 L 3526.53,1698.63 L 3543.08,1686.61 L 3557.54,1672.15 L 3569.56,1655.61 L 3578.84,1637.38 L 3584.81,1619.01 L 3517.13,1619.01 L 3514.09,1624.7 L 3505.77,1634.84 L 3495.62,1643.16 L 3484.05,1649.35 L 3471.5,1653.15 L 3458.44,1654.44 L 3438.76,1654.44 L 3438.76,1717.43 z " style="fill-opacity:1.000000;fill:rgb(103,198,105);stroke:rgb(0,0,0);stroke-width:2"/></g>
<g fill-rule="evenodd"><path d="M 219.685,3792.27 L 220.971,3779.22 L 224.78,3766.66 L 230.965,3755.09 L 239.288,3744.95 L 249.43,3736.62 L 261.002,3730.44 L 273.557,3726.63 L 286.614,3725.34 L 388.976,3725.34 L 402.034,3726.63 L 414.589,3730.44 L 426.16,3736.62 L 436.302,3744.95 L 444.626,3755.09 L 447.665,3760.78 L 530.615,3760.78 L 532.719,3756.84 L 541.042,3746.7 L 551.185,3738.38 L 562.756,3732.19 L 575.311,3728.38 L 588.369,3727.1 L 690.731,3727.1 L 703.788,3728.38 L 716.343,3732.19 L 727.915,3738.38 L 738.057,3746.7 L 746.38,3756.84 L 752.565,3768.41 L 756.374,3780.97 L 757.66,3794.03 L 756.374,3807.08 L 752.565,3819.64 L 746.38,3831.21 L 738.057,3841.35 L 727.915,3849.67 L 716.343,3855.86 L 703.788,3859.67 L 690.731,3860.95 L 588.369,3860.95 L 575.311,3859.67 L 562.756,3855.86 L 551.185,3849.67 L 541.042,3841.35 L 532.719,3831.21 L 528.742,3823.77 L 447.667,3823.77 L 444.626,3829.46 L 436.302,3839.6 L 426.16,3847.92 L 414.589,3854.11 L 402.034,3857.92 L 388.976,3859.2 L 369.29,3859.2 L 369.29,4620.02 L 1056.67,5307.4 L 1541.39,5307.4 L 1544.43,5301.71 L 1552.75,5291.57 L 1562.89,5283.25 L 1574.47,5277.06 L 1587.02,5273.25 L 1600.08,5271.97 L 1702.44,5271.97 L 1715.5,5273.25 L 1728.05,5277.06 L 1739.62,5283.25 L 1749.77,5291.57 L 1758.09,5301.71 L 1761.13,5307.4 L 2861.13,5307.4 L 3588.36,4580.16 L 3588.36,3510.86 L 3459.31,3381.8 L 3458.44,3381.89 L 3356.08,3381.89 L 3343.02,3380.6 L 3330.47,3376.8 L 3318.89,3370.61 L 3308.75,3362.29 L 3300.43,3352.14 L 3294.24,3340.57 L 3290.44,3328.02 L 3289.15,3314.96 L 3290.44,3301.9 L 3294.24,3289.35 L 3300.43,3277.78 L 3308.75,3267.63 L 3318.89,3259.31 L 3330.47,3253.13 L 3343.02,3249.32 L 3356.08,3248.03 L 3458.44,3248.03 L 3471.5,3249.32 L 3484.05,3253.13 L 3495.62,3259.31 L 3505.77,3267.63 L 3514.09,3277.78 L 3520.28,3289.35 L 3524.08,3301.9 L 3525.37,3314.96 L 3524.08,3328.02 L 3520.28,3340.57 L 3515.71,3349.12 L 3642.13,3475.54 L 3646.05,3480.31 L 3648.96,3485.76 L 3650.75,3491.67 L 3651.35,3497.81 L 3651.35,4593.21 L 3650.75,4599.36 L 3648.96,4605.26 L 3646.05,4610.71 L 3642.13,4615.48 L 2896.44,5361.17 L 2891.67,5365.09 L 2886.22,5368 L 2880.32,5369.79 L 2874.17,5370.39 L 1761.13,5370.39 L 1758.09,5376.08 L 1749.77,5386.22 L 1739.62,5394.55 L 1728.05,5400.73 L 1715.5,5404.54 L 1702.44,5405.83 L 1600.08,5405.83 L 1587.02,5404.54 L 1574.47,5400.73 L 1562.89,5394.55 L 1552.75,5386.22 L 1544.43,5376.08 L 1541.39,5370.39 L 1059.74,5370.39 L 1054.69,5372.23 L 1049.28,5373.19 L 1043.79,5373.19 L 1038.38,5372.23 L 1033.22,5370.36 L 1028.47,5367.61 L 1024.26,5364.08 L 315.523,4655.34 L 311.606,4650.57 L 308.695,4645.12 L 306.903,4639.21 L 306.298,4633.07 L 306.298,3859.2 L 286.614,3859.2 L 273.557,3857.92 L 261.002,3854.11 L 249.43,3847.92 L 239.288,3839.6 L 230.965,3829.46 L 224.78,3817.89 L 220.971,3805.33 L 219.685,3792.27 z " style="fill-opacity:1.000000;fill:rgb(115,81,255);stroke:rgb(0,0,0);stroke-width:2"/></g>
<g fill-rule="evenodd"><path d="M 219.685,3592.27 L 220.971,3579.22 L 224.78,3566.66 L 230.965,3555.09 L 239.288,3544.95 L 249.43,3536.62 L 261.002,3530.44 L 273.557,3526.63 L 286.614,3525.34 L 388.976,3525.34 L 402.034,3526.63 L 414.589,3530.44 L 426.16,3536.62 L 436.302,3544.95 L 444.626,3555.09 L 447.665,3560.78 L 530.615,3560.78 L 532.719,3556.84 L 541.042,3546.7 L 551.185,3538.38 L 562.756,3532.19 L 575.311,3528.38 L 588.369,3527.1 L 690.731,3527.1 L 703.788,3528.38 L 716.343,3532.19 L 727.915,3538.38 L 738.057,3546.7 L 746.38,3556.84 L 752.565,3568.41 L 756.374,3580.97 L 757.66,3594.03 L 756.374,3607.08 L 752.565,3619.64 L 746.38,3631.21 L 738.057,3641.35 L 727.915,3649.67 L 716.343,3655.86 L 703.788,3659.67 L 690.731,3660.95 L 588.369,3660.95 L 575.311,3659.67 L 562.756,3655.86 L 551.185,3649.67 L 541.042,3641.35 L 532.719,3631.21 L 528.742,3623.77 L 447.667,3623.77 L 444.626,3629.46 L 436.302,3639.6 L 426.16,3647.92 L 414.589,3654.11 L 402.034,3657.92 L 388.976,3659.2 L 286.614,3659.2 L 273.557,3657.92 L 261.002,3654.11 L 249.43,3647.92 L 239.288,3639.6 L 230.965,3629.46 L 224.78,3617.89 L 220.971,3605.33 L 219.685,3592.27 z " style="fill-opacity:1.000000;fill:rgb(74,236,41);stroke:rgb(0,0,0);stroke-width:2"/></g>
<g fill-rule="evenodd"><path d="M 219.685,3392.27 L 220.971,3379.22 L 224.78,3366.66 L 230.965,3355.09 L 239.288,3344.95 L 249.43,3336.62 L 261.002,3330.44 L 273.557,3326.63 L 286.614,3325.34 L 388.976,3325.34 L 402.034,3326.63 L 414.589,3330.44 L 426.16,3336.62 L 436.302,3344.95 L 444.626,3355.09 L 447.665,3360.78 L 530.615,3360.78 L 532.719,3356.84 L 541.042,3346.7 L 551.185,3338.38 L 562.756,3332.19 L 575.311,3328.38 L 588.369,3327.1 L 690.731,3327.1 L 703.788,3328.38 L 716.343,3332.19 L 727.915,3338.38 L 738.057,3346.7 L 746.38,3356.84 L 752.565,3368.41 L 756.374,3380.97 L 757.66,3394.03 L 756.374,3407.08 L 752.565,3419.64 L 746.38,3431.21 L 738.057,3441.35 L 727.915,3449.67 L 716.343,3455.86 L 703.788,3459.67 L 690.731,3460.95 L 588.369,3460.95 L 575.311,3459.67 L 562.756,3455.86 L 551.185,3449.67 L 541.042,3441.35 L 532.719,3431.21 L 528.742,3423.77 L 447.667,3423.77 L 444.626,3429.46 L 436.302,3439.6 L 426.16,3447.92 L 414.589,3454.11 L 402.034,3457.92 L 388.976,3459.2 L 286.614,3459.2 L 273.557,3457.92 L 261.002,3454.11 L 249.43,3447.92 L 239.288,3439.6 L 230.965,3429.46 L 224.78,3417.89 L 220.971,3405.33 L 219.685,3392.27 z " style="fill-opacity:1.000000;fill:rgb(205,186,171);stroke:rgb(0,0,0);stroke-width:2"/></g>
<g fill-rule="evenodd"><path d="M 219.685,3192.27 L 220.971,3179.22 L 224.78,3166.66 L 230.965,3155.09 L 239.288,3144.95 L 249.43,3136.62 L 261.002,3130.44 L 273.557,3126.63 L 286.614,3125.34 L 388.976,3125.34 L 402.034,3126.63 L 414.589,3130.44 L 426.16,3136.62 L 436.302,3144.95 L 444.626,3155.09 L 447.665,3160.78 L 530.615,3160.78 L 532.719,3156.84 L 541.042,3146.7 L 551.185,3138.38 L 562.756,3132.19 L 575.311,3128.38 L 588.369,3127.1 L 690.731,3127.1 L 703.788,3128.38 L 716.343,3132.19 L 727.915,3138.38 L 738.057,3146.7 L 746.38,3156.84 L 752.565,3168.41 L 756.374,3180.97 L 757.66,3194.03 L 756.374,3207.08 L 752.565,3219.64 L 746.38,3231.21 L 738.057,3241.35 L 727.915,3249.67 L 716.343,3255.86 L 703.788,3259.67 L 690.731,3260.95 L 588.369,3260.95 L 575.311,3259.67 L 562.756,3255.86 L 551.185,3249.67 L 541.042,3241.35 L 532.719,3231.21 L 528.742,3223.77 L 447.667,3223.77 L 444.626,3229.46 L 436.302,3239.6 L 426.16,3247.92 L 414.589,3254.11 L 402.034,3257.92 L 388.976,3259.2 L 286.614,3259.2 L 273.557,3257.92 L 261.002,3254.11 L 249.43,3247.92 L 239.288,3239.6 L 230.965,3229.46 L 224.78,3217.89 L 220.971,3205.33 L 219.685,3192.27 z " style="fill-opacity:1.000000;fill:rgb(242,251,227);stroke:rgb(0,0,0);stroke-width:2"/></g>
<g fill-rule="evenodd"><path d="M 219.685,2992.27 L 220.971,2979.22 L 224.78,2966.66 L 230.965,2955.09 L 239.288,2944.95 L 249.43,2936.62 L 261.002,2930.44 L 273.557,2926.63 L 286.614,2925.34 L 388.976,2925.34 L 402.034,2926.63 L 414.589,2930.44 L 426.16,2936.62 L 436.302,2944.95 L 444.626,2955.09 L 447.666,2960.78 L 530.615,2960.78 L 532.719,2956.84 L 541.042,2946.7 L 551.185,2938.38 L 562.756,2932.19 L 575.311,2928.38 L 588.369,2927.1 L 690.731,2927.1 L 703.788,2928.38 L 716.343,2932.19 L 727.915,2938.38 L 738.057,2946.7 L 746.38,2956.84 L 752.565,2968.41 L 756.374,2980.97 L 757.66,2994.03 L 756.374,3007.08 L 752.565,3019.64 L 746.38,3031.21 L 738.057,3041.35 L 727.915,3049.67 L 716.343,3055.86 L 703.788,3059.67 L 690.731,3060.95 L 588.369,3060.95 L 575.311,3059.67 L 562.756,3055.86 L 551.185,3049.67 L 541.042,3041.35 L 532.719,3031.21 L 528.742,3023.77 L 447.667,3023.77 L 444.626,3029.46 L 436.302,3039.6 L 426.16,3047.92 L 414.589,3054.11 L 402.034,3057.92 L 388.976,3059.2 L 286.614,3059.2 L 273.557,3057.92 L 261.002,3054.11 L 249.43,3047.92 L 239.288,3039.6 L 230.965,3029.46 L 224.78,3017.89 L 220.971,3005.33 L 219.685,2992.27 z " style="fill-opacity:1.000000;fill:rgb(70,124,194);stroke:rgb(0,0,0);stroke-width:2"/></g>
<g fill-rule="evenodd"><path d="M 219.685,2592.27 L 220.971,2579.22 L 224.78,2566.66 L 230.965,2555.09 L 239.288,2544.95 L 249.43,2536.62 L 261.002,2530.44 L 273.557,2526.63 L 286.614,2525.34 L 388.976,2525.34 L 402.034,2526.63 L 414.589,2530.44 L 426.16,2536.62 L 436.302,2544.95 L 444.626,2555.09 L 447.666,2560.78 L 530.615,2560.78 L 532.719,2556.84 L 541.042,2546.7 L 551.185,2538.38 L 562.756,2532.19 L 575.311,2528.38 L 588.369,2527.1 L 690.731,2527.1 L 703.788,2528.38 L 716.343,2532.19 L 727.915,2538.38 L 738.057,2546.7 L 746.38,2556.84 L 752.565,2568.41 L 756.374,2580.97 L 757.66,2594.03 L 756.374,2607.08 L 752.565,2619.64 L 746.38,2631.21 L 738.057,2641.35 L 727.915,2649.67 L 716.343,2655.86 L 703.788,2659.67 L 690.731,2660.95 L 588.369,2660.95 L 575.311,2659.67 L 562.756,2655.86 L 551.185,2649.67 L 541.042,2641.35 L 532.719,2631.21 L 528.742,2623.77 L 447.667,2623.77 L 444.626,2629.46 L 436.302,2639.6 L 426.16,2647.92 L 414.589,2654.11 L 402.034,2657.92 L 388.976,2659.2 L 286.614,2659.2 L 273.557,2657.92 L 261.002,2654.11 L 249.43,2647.92 L 239.288,2639.6 L 230.965,2629.46 L 224.78,2617.89 L 220.971,2605.33 L 219.685,2592.27 z " style="fill-opacity:1.000000;fill:rgb(84,248,27);stroke:rgb(0,0,0);stroke-width:2"/></g>
<g fill-rule="evenodd"><path d="M 219.685,2392.27 L 220.971,2379.22 L 224.78,2366.66 L 230.965,2355.09 L 239.288,2344.95 L 249.43,2336.62 L 261.002,2330.44 L 273.557,2326.63 L 286.614,2325.34 L 388.976,2325.34 L 402.034,2326.63 L 414.589,2330.44 L 426.16,2336.62 L 436.302,2344.95 L 444.626,2355.09 L 447.666,2360.78 L 530.615,2360.78 L 532.719,2356.84 L 541.042,2346.7 L 551.185,2338.38 L 562.756,2332.19 L 575.311,2328.38 L 588.369,2327.1 L 690.731,2327.1 L 703.788,2328.38 L 716.343,2332.19 L 727.915,2338.38 L 738.057,2346.7 L 746.38,2356.84 L 752.565,2368.41 L 756.374,2380.97 L 757.66,2394.03 L 756.374,2407.08 L 752.565,2419.64 L 746.38,2431.21 L 738.057,2441.35 L 727.915,2449.67 L 716.343,2455.86 L 703.788,2459.67 L 690.731,2460.95 L 588.369,2460.95 L 575.311,2459.67 L 562.756,2455.86 L 551.185,2449.67 L 541.042,2441.35 L 532.719,2431.21 L 528.742,2423.77 L 447.667,2423.77 L 444.626,2429.46 L 436.302,2439.6 L 426.16,2447.92 L 414.589,2454.11 L 402.034,2457.92 L 388.976,2459.2 L 286.614,2459.2 L 273.557,2457.92 L 261.002,2454.11 L 249.43,2447.92 L 239.288,2439.6 L 230.965,2429.46 L 224.78,2417.89 L 220.971,2405.33 L 219.685,2392.27 z " style="fill-opacity:1.000000;fill:rgb(232,231,141);stroke:rgb(0,0,0);stroke-width:2"/></g>
<g fill-rule="evenodd"><path d="M 219.685,2192.27 L 220.971,2179.22 L 224.78,2166.66 L 230.965,2155.09 L 239.288,2144.95 L 249.43,2136.62 L 261.002,2130.44 L 273.557,2126.63 L 286.614,2125.34 L 388.976,2125.34 L 402.034,2126.63 L 414.589,2130.44 L 426.16,2136.62 L 436.302,2144.95 L 444.626,2155.09 L 447.666,2160.78 L 530.615,2160.78 L 532.719,2156.84 L 541.042,2146.7 L 551.185,2138.38 L 562.756,2132.19 L 575.311,2128.38 L 588.369,2127.1 L 690.731,2127.1 L 703.788,2128.38 L 716.343,2132.19 L 727.915,2138.38 L 738.057,2146.7 L 746.38,2156.84 L 752.565,2168.41 L 756.374,2180.97 L 757.66,2194.03 L 756.374,2207.08 L 752.565,2219.64 L 746.38,2231.21 L 738.057,2241.35 L 727.915,2249.67 L 716.343,2255.86 L 703.788,2259.67 L 690.731,2260.95 L 588.369,2260.95 L 575.311,2259.67 L 562.756,2255.86 L 551.185,2249.67 L 541.042,2241.35 L 532.719,2231.21 L 528.742,2223.77 L 447.667,2223.77 L 444.626,2229.46 L 436.302,2239.6 L 426.16,2247.92 L 414.589,2254.11 L 402.034,2257.92 L 388.976,2259.2 L 286.614,2259.2 L 273.557,2257.92 L 261.002,2254.11 L 249.43,2247.92 L 239.288,2239.6 L 230.965,2229.46 L 224.78,2217.89 L 220.971,2205.33 L 219.685,2192.27 z " style="fill-opacity:1.000000;fill:rgb(118,90,46);stroke:rgb(0,0,0);stroke-width:2"/></g>
<g fill-rule="evenodd"><path d="M 219.685,1992.27 L 220.971,1979.22 L 224.78,1966.66 L 230.965,1955.09 L 239.288,1944.95 L 249.43,1936.62 L 261.002,1930.44 L 273.557,1926.63 L 286.614,1925.34 L 388.976,1925.34 L 402.034,1926.63 L 414.589,1930.44 L 426.16,1936.62 L 436.302,1944.95 L 444.626,1955.09 L 447.665,1960.78 L 530.615,1960.78 L 532.719,1956.84 L 541.042,1946.7 L 551.185,1938.38 L 562.756,1932.19 L 575.311,1928.38 L 588.369,1927.1 L 690.731,1927.1 L 703.788,1928.38 L 716.343,1932.19 L 727.915,1938.38 L 738.057,1946.7 L 746.38,1956.84 L 752.565,1968.41 L 756.374,1980.97 L 757.66,1994.03 L 756.374,2007.08 L 752.565,2019.64 L 746.38,2031.21 L 738.057,2041.35 L 727.915,2049.67 L 716.343,2055.86 L 703.788,2059.67 L 690.731,2060.95 L 588.369,2060.95 L 575.311,2059.67 L 562.756,2055.86 L 551.185,2049.67 L 541.042,2041.35 L 532.719,2031.21 L 528.742,2023.77 L 447.667,2023.77 L 444.626,2029.46 L 436.302,2039.6 L 426.16,2047.92 L 414.589,2054.11 L 402.034,2057.92 L 388.976,2059.2 L 286.614,2059.2 L 273.557,2057.92 L 261.002,2054.11 L 249.43,2047.92 L 239.288,2039.6 L 230.965,2029.46 L 224.78,2017.89 L 220.971,2005.33 L 219.685,1992.27 z " style="fill-opacity:1.000000;fill:rgb(99,51,159);stroke:rgb(0,0,0);stroke-width:2"/></g>
<g fill-rule="evenodd"><path d="M 219.685,1792.27 L 220.971,1779.22 L 224.78,1766.66 L 230.965,1755.09 L 239.288,1744.95 L 249.43,1736.62 L 261.002,1730.44 L 273.557,1726.63 L 286.614,1725.34 L 388.976,1725.34 L 402.034,1726.63 L 414.589,1730.44 L 426.16,1736.62 L 436.302,1744.95 L 444.626,1755.09 L 447.665,1760.78 L 530.615,1760.78 L 532.719,1756.84 L 541.042,1746.7 L 551.185,1738.38 L 562.756,1732.19 L 575.311,1728.38 L 588.369,1727.1 L 690.731,1727.1 L 703.788,1728.38 L 716.343,1732.19 L 727.915,1738.38 L 729.123,1739.37 L 772.899,1695.59 L 776.657,1692.38 L 780.871,1689.8 L 785.437,1687.91 L 790.243,1686.75 L 795.17,1686.37 L 1546.57,1686.37 L 1551.49,1686.75 L 1556.3,1687.91 L 1560.86,1689.8 L 1565.08,1692.38 L 1568.84,1695.59 L 1864.79,1991.55 L 1868.71,1996.32 L 1871.62,2001.76 L 1873.41,2007.67 L 1874.01,2013.82 L 1874.01,4052.38 L 1873.41,4058.53 L 1871.62,4064.43 L 1868.71,4069.88 L 1864.79,4074.65 L 1778.28,4161.17 L 1774.52,4164.38 L 1770.3,4166.96 L 1765.74,4168.85 L 1761.4,4169.89 L 1758.09,4176.08 L 1749.77,4186.22 L 1739.62,4194.55 L 1728.05,4200.73 L 1715.5,4204.54 L 1702.44,4205.83 L 1600.08,4205.83 L 1587.02,4204.54 L 1574.47,4200.73 L 1562.89,4194.55 L 1552.75,4186.22 L 1544.43,4176.08 L 1538.24,4164.51 L 1534.44,4151.95 L 1533.15,4138.9 L 1534.44,4125.84 L 1538.24,4113.28 L 1544.43,4101.71 L 1552.75,4091.57 L 1562.89,4083.25 L 1574.47,4077.06 L 1587.02,4073.25 L 1600.08,4071.97 L 1702.44,4071.97 L 1715.5,4073.25 L 1728.05,4077.06 L 1739.62,4083.25 L 1749.77,4091.57 L 1753.83,4096.53 L 1811.02,4039.34 L 1811.02,2026.86 L 1533.52,1749.36 L 808.216,1749.36 L 757.016,1800.56 L 756.374,1807.08 L 752.565,1819.64 L 746.38,1831.21 L 738.057,1841.35 L 727.915,1849.67 L 716.343,1855.86 L 703.788,1859.67 L 690.731,1860.95 L 588.369,1860.95 L 575.311,1859.67 L 562.756,1855.86 L 551.185,1849.67 L 541.042,1841.35 L 532.719,1831.21 L 528.742,1823.77 L 447.667,1823.77 L 444.626,1829.46 L 436.302,1839.6 L 426.16,1847.92 L 414.589,1854.11 L 402.034,1857.92 L 388.976,1859.2 L 286.614,1859.2 L 273.557,1857.92 L 261.002,1854.11 L 249.43,1847.92 L 239.288,1839.6 L 230.965,1829.46 L 224.78,1817.89 L 220.971,1805.33 L 219.685,1792.27 z " style="fill-opacity:1.000000;fill:rgb(201,154,102);stroke:rgb(0,0,0);stroke-width:2"/></g>
<g fill-rule="evenodd"><path d="M 219.685,1592.27 L 220.971,1579.22 L 224.78,1566.66 L 230.965,1555.09 L 239.288,1544.95 L 249.43,1536.62 L 261.002,1530.44 L 273.557,1526.63 L 286.614,1525.34 L 388.976,1525.34 L 402.034,1526.63 L 414.589,1530.44 L 426.16,1536.62 L 436.302,1544.95 L 444.626,1555.09 L 447.665,1560.78 L 530.615,1560.78 L 532.719,1556.84 L 541.042,1546.7 L 551.185,1538.38 L 562.756,1532.19 L 575.311,1528.38 L 588.369,1527.1 L 690.731,1527.1 L 703.788,1528.38 L 716.343,1532.19 L 727.915,1538.38 L 738.057,1546.7 L 746.38,1556.84 L 748.273,1560.38 L 1598.75,1560.38 L 1603.68,1560.77 L 1608.48,1561.92 L 1613.05,1563.82 L 1617.26,1566.4 L 1621.02,1569.61 L 1990.77,1939.36 L 1994.69,1944.13 L 1997.6,1949.58 L 1999.39,1955.49 L 2000,1961.63 L 2000,4104.57 L 1999.39,4110.71 L 1997.6,4116.62 L 1994.69,4122.06 L 1990.77,4126.84 L 1768.35,4349.26 L 1768.08,4351.95 L 1764.28,4364.51 L 1758.09,4376.08 L 1749.77,4386.22 L 1739.62,4394.55 L 1728.05,4400.73 L 1715.5,4404.54 L 1702.44,4405.83 L 1600.08,4405.83 L 1587.02,4404.54 L 1574.47,4400.73 L 1562.89,4394.55 L 1552.75,4386.22 L 1544.43,4376.08 L 1538.24,4364.51 L 1534.44,4351.95 L 1533.15,4338.9 L 1534.44,4325.84 L 1538.24,4313.28 L 1544.43,4301.71 L 1552.75,4291.57 L 1562.89,4283.25 L 1574.47,4277.06 L 1587.02,4273.25 L 1600.08,4271.97 L 1702.44,4271.97 L 1715.5,4273.25 L 1728.05,4277.06 L 1739.62,4283.25 L 1742.73,4285.8 L 1937.01,4091.52 L 1937.01,1974.68 L 1585.7,1623.38 L 750.568,1623.37 L 746.38,1631.21 L 738.057,1641.35 L 727.915,1649.67 L 716.343,1655.86 L 703.788,1659.67 L 690.731,1660.95 L 588.369,1660.95 L 575.311,1659.67 L 562.756,1655.86 L 551.185,1649.67 L 541.042,1641.35 L 532.719,1631.21 L 528.742,1623.77 L 447.667,1623.77 L 444.626,1629.46 L 436.302,1639.6 L 426.16,1647.92 L 414.589,1654.11 L 402.034,1657.92 L 388.976,1659.2 L 286.614,1659.2 L 273.557,1657.92 L 261.002,1654.11 L 249.43,1647.92 L 239.288,1639.6 L 230.965,1629.46 L 224.78,1617.89 L 220.971,1605.33 L 219.685,1592.27 z " style="fill-opacity:1.000000;fill:rgb(50,13,183);stroke:rgb(0,0,0);stroke-width:2"/></g>
<g fill-rule="evenodd"><path d="M 219.685,1392.27 L 220.971,1379.22 L 224.78,1366.66 L 230.965,1355.09 L 239.288,1344.95 L 249.43,1336.62 L 261.002,1330.44 L 273.557,1326.63 L 286.614,1325.34 L 388.976,1325.34 L 402.034,1326.63 L 414.589,1330.44 L 426.16,1336.62 L 436.302,1344.95 L 444.626,1355.09 L 447.665,1360.78 L 530.615,1360.78 L 532.719,1356.84 L 541.042,1346.7 L 551.185,1338.38 L 562.756,1332.19 L 575.311,1328.38 L 588.369,1327.1 L 690.731,1327.1 L 703.788,1328.38 L 716.343,1332.19 L 727.915,1338.38 L 738.057,1346.7 L 746.38,1356.84 L 752.565,1368.41 L 756.374,1380.97 L 756.973,1387.06 L 804.316,1434.4 L 1650.93,1434.4 L 1657.08,1435 L 1662.99,1436.8 L 1668.43,1439.71 L 1673.2,1443.62 L 2116.76,1887.18 L 2119.97,1890.93 L 2122.55,1895.15 L 2124.44,1899.71 L 2125.6,1904.52 L 2125.98,1909.45 L 2125.98,4175.13 L 2125.38,4181.27 L 2123.59,4187.18 L 2120.68,4192.63 L 2116.76,4197.4 L 1768.73,4545.43 L 1768.08,4551.95 L 1764.28,4564.51 L 1758.09,4576.08 L 1749.77,4586.22 L 1739.62,4594.55 L 1728.05,4600.73 L 1715.5,4604.54 L 1702.44,4605.83 L 1600.08,4605.83 L 1587.02,4604.54 L 1574.47,4600.73 L 1562.89,4594.55 L 1552.75,4586.22 L 1544.43,4576.08 L 1538.24,4564.51 L 1534.44,4551.95 L 1533.15,4538.9 L 1534.44,4525.84 L 1538.24,4513.28 L 1544.43,4501.71 L 1552.75,4491.57 L 1562.89,4483.25 L 1574.47,4477.06 L 1587.02,4473.25 L 1600.08,4471.97 L 1702.44,4471.97 L 1715.5,4473.25 L 1728.05,4477.06 L 1739.62,4483.25 L 1740.83,4484.24 L 2062.99,4162.08 L 2062.99,1922.49 L 1637.89,1497.39 L 791.27,1497.39 L 786.343,1497 L 781.537,1495.85 L 776.971,1493.96 L 772.757,1491.38 L 768.999,1488.17 L 729.339,1448.51 L 727.915,1449.67 L 716.343,1455.86 L 703.788,1459.67 L 690.731,1460.95 L 588.369,1460.95 L 575.311,1459.67 L 562.756,1455.86 L 551.185,1449.67 L 541.042,1441.35 L 532.719,1431.21 L 528.742,1423.77 L 447.667,1423.77 L 444.626,1429.46 L 436.302,1439.6 L 426.16,1447.92 L 414.589,1454.11 L 402.034,1457.92 L 388.976,1459.2 L 286.614,1459.2 L 273.557,1457.92 L 261.002,1454.11 L 249.43,1447.92 L 239.288,1439.6 L 230.965,1429.46 L 224.78,1417.89 L 220.971,1405.33 L 219.685,1392.27 z " style="fill-opacity:1.000000;fill:rgb(49,88,163);stroke:rgb(0,0,0);stroke-width:2"/></g>
<g fill-rule="evenodd"><path d="M 219.685,1192.27 L 220.971,1179.22 L 224.78,1166.66 L 230.965,1155.09 L 239.288,1144.95 L 249.43,1136.62 L 261.002,1130.44 L 273.557,1126.63 L 286.614,1125.34 L 388.976,1125.34 L 402.034,1126.63 L 414.589,1130.44 L 426.16,1136.62 L 436.302,1144.95 L 444.626,1155.09 L 447.665,1160.78 L 530.615,1160.78 L 532.719,1156.84 L 541.042,1146.7 L 551.185,1138.38 L 562.756,1132.19 L 575.311,1128.38 L 588.369,1127.1 L 690.731,1127.1 L 703.788,1128.38 L 716.343,1132.19 L 727.915,1138.38 L 738.057,1146.7 L 746.38,1156.84 L 752.565,1168.41 L 756.374,1180.97 L 757.66,1194.03 L 756.374,1207.08 L 752.565,1219.64 L 746.38,1231.21 L 738.057,1241.35 L 727.915,1249.67 L 716.343,1255.86 L 703.788,1259.67 L 690.731,1260.95 L 588.369,1260.95 L 575.311,1259.67 L 562.756,1255.86 L 551.185,1249.67 L 541.042,1241.35 L 532.719,1231.21 L 528.742,1223.77 L 447.667,1223.77 L 444.626,1229.46 L 436.302,1239.6 L 426.16,1247.92 L 414.589,1254.11 L 402.034,1257.92 L 388.976,1259.2 L 286.614,1259.2 L 273.557,1257.92 L 261.002,1254.11 L 249.43,1247.92 L 239.288,1239.6 L 230.965,1229.46 L 224.78,1217.89 L 220.971,1205.33 L 219.685,1192.27 z " style="fill-opacity:1.000000;fill:rgb(90,37,93);stroke:rgb(0,0,0);stroke-width:2"/></g>
<g fill-rule="evenodd"><path d="M 219.685,992.274 L 220.971,979.217 L 224.78,966.661 L 230.965,955.09 L 239.288,944.948 L 249.43,936.624 L 261.002,930.44 L 273.557,926.631 L 286.614,925.345 L 388.976,925.345 L 402.034,926.631 L 414.589,930.44 L 426.16,936.624 L 436.302,944.948 L 444.626,955.09 L 447.666,960.777 L 530.615,960.777 L 532.719,956.841 L 541.042,946.699 L 551.185,938.376 L 562.756,932.191 L 575.311,928.382 L 588.369,927.096 L 690.731,927.096 L 703.788,928.382 L 716.343,932.191 L 727.915,938.376 L 738.057,946.699 L 746.38,956.841 L 752.565,968.413 L 756.374,980.968 L 757.66,994.025 L 756.374,1007.08 L 752.565,1019.64 L 746.38,1031.21 L 738.057,1041.35 L 727.915,1049.67 L 716.343,1055.86 L 703.788,1059.67 L 690.731,1060.95 L 588.369,1060.95 L 575.311,1059.67 L 562.756,1055.86 L 551.185,1049.67 L 541.042,1041.35 L 532.719,1031.21 L 528.742,1023.77 L 447.667,1023.77 L 444.626,1029.46 L 436.302,1039.6 L 426.16,1047.92 L 414.589,1054.11 L 402.034,1057.92 L 388.976,1059.2 L 286.614,1059.2 L 273.557,1057.92 L 261.002,1054.11 L 249.43,1047.92 L 239.288,1039.6 L 230.965,1029.46 L 224.78,1017.89 L 220.971,1005.33 L 219.685,992.274 z " style="fill-opacity:1.000000;fill:rgb(5,23,88);stroke:rgb(0,0,0);stroke-width:2"/></g>
<g fill-rule="evenodd"><path d="M 219.685,792.274 L 220.971,779.217 L 224.78,766.661 L 230.965,755.09 L 239.288,744.948 L 249.43,736.624 L 261.002,730.44 L 273.557,726.631 L 286.614,725.345 L 388.976,725.345 L 402.034,726.631 L 414.589,730.44 L 426.16,736.624 L 436.302,744.948 L 444.626,755.09 L 447.666,760.777 L 530.615,760.777 L 532.719,756.841 L 541.042,746.699 L 551.185,738.376 L 562.756,732.191 L 575.311,728.382 L 588.369,727.096 L 690.731,727.096 L 703.788,728.382 L 716.343,732.191 L 727.915,738.376 L 738.057,746.699 L 746.38,756.841 L 752.565,768.413 L 756.374,780.968 L 757.66,794.025 L 756.374,807.082 L 752.565,819.638 L 746.38,831.209 L 738.057,841.351 L 727.915,849.675 L 716.343,855.86 L 703.788,859.668 L 690.731,860.954 L 588.369,860.954 L 575.311,859.668 L 562.756,855.86 L 551.185,849.675 L 541.042,841.351 L 532.719,831.209 L 528.742,823.769 L 447.667,823.769 L 444.626,829.458 L 436.302,839.6 L 426.16,847.924 L 414.589,854.108 L 402.034,857.917 L 388.976,859.203 L 286.614,859.203 L 273.557,857.917 L 261.002,854.108 L 249.43,847.924 L 239.288,839.6 L 230.965,829.458 L 224.78,817.887 L 220.971,805.331 L 219.685,792.274 z " style="fill-opacity:1.000000;fill:rgb(233,94,212);stroke:rgb(0,0,0);stroke-width:2"/></g>
<g fill-rule="evenodd"><path d="M 219.685,592.274 L 220.971,579.217 L 224.78,566.661 L 230.965,555.09 L 239.288,544.948 L 249.43,536.624 L 261.002,530.44 L 273.557,526.631 L 286.614,525.345 L 388.976,525.345 L 402.034,526.631 L 414.589,530.44 L 426.16,536.624 L 436.302,544.948 L 444.626,555.09 L 447.666,560.777 L 530.615,560.777 L 532.719,556.841 L 541.042,546.699 L 551.185,538.376 L 562.756,532.191 L 575.311,528.382 L 588.369,527.096 L 690.731,527.096 L 703.788,528.382 L 716.343,532.191 L 727.915,538.376 L 738.057,546.699 L 746.38,556.841 L 752.565,568.413 L 756.374,580.968 L 757.66,594.025 L 756.374,607.082 L 752.565,619.638 L 746.38,631.209 L 738.057,641.351 L 727.915,649.675 L 716.343,655.86 L 703.788,659.668 L 690.731,660.954 L 588.369,660.954 L 575.311,659.668 L 562.756,655.86 L 551.185,649.675 L 541.042,641.351 L 532.719,631.209 L 528.742,623.769 L 447.667,623.769 L 444.626,629.458 L 436.302,639.6 L 426.16,647.924 L 414.589,654.108 L 402.034,657.917 L 388.976,659.203 L 286.614,659.203 L 273.557,657.917 L 261.002,654.108 L 249.43,647.924 L 239.288,639.6 L 230.965,629.458 L 224.78,617.887 L 220.971,605.331 L 219.685,592.274 z " style="fill-opacity:1.000000;fill:rgb(171,178,205);stroke:rgb(0,0,0);stroke-width:2"/></g>
<g fill-rule="evenodd"><path d="M 219.685,392.274 L 220.971,379.217 L 224.78,366.661 L 230.965,355.09 L 239.288,344.948 L 249.43,336.624 L 261.002,330.44 L 273.557,326.631 L 286.614,325.345 L 388.976,325.345 L 402.034,326.631 L 414.589,330.44 L 426.16,336.624 L 436.302,344.948 L 444.626,355.09 L 447.666,360.777 L 530.615,360.777 L 532.719,356.841 L 541.042,346.699 L 551.185,338.376 L 562.756,332.191 L 575.311,328.382 L 588.369,327.096 L 690.731,327.096 L 703.788,328.382 L 716.343,332.191 L 727.915,338.376 L 738.057,346.699 L 746.38,356.841 L 752.565,368.413 L 756.374,380.968 L 757.66,394.025 L 756.374,407.082 L 752.565,419.638 L 746.38,431.209 L 738.057,441.351 L 727.915,449.675 L 716.343,455.86 L 703.788,459.668 L 690.731,460.954 L 588.369,460.954 L 575.311,459.668 L 562.756,455.86 L 551.185,449.675 L 541.042,441.351 L 532.719,431.209 L 528.742,423.769 L 447.667,423.769 L 444.626,429.458 L 436.302,439.6 L 426.16,447.924 L 414.589,454.108 L 402.034,457.917 L 388.976,459.203 L 286.614,459.203 L 273.557,457.917 L 261.002,454.108 L 249.43,447.924 L 239.288,439.6 L 230.965,429.458 L 224.78,417.887 L 220.971,405.331 L 219.685,392.274 z " style="fill-opacity:1.000000;fill:rgb(198,155,180);stroke:rgb(0,0,0);stroke-width:2"/></g>
<g fill-rule="evenodd"><path d="M 219.685,192.274 L 220.971,179.217 L 224.78,166.661 L 230.965,155.09 L 239.288,144.948 L 249.43,136.624 L 261.002,130.44 L 273.557,126.631 L 286.614,125.345 L 388.976,125.345 L 402.034,126.631 L 414.589,130.44 L 426.16,136.624 L 436.302,144.948 L 444.626,155.09 L 447.666,160.777 L 530.615,160.777 L 532.719,156.841 L 541.042,146.699 L 551.185,138.376 L 562.756,132.191 L 575.311,128.382 L 588.369,127.096 L 690.731,127.096 L 703.788,128.382 L 716.343,132.191 L 727.915,138.376 L 738.057,146.699 L 746.38,156.841 L 752.565,168.413 L 756.374,180.968 L 757.66,194.025 L 756.374,207.082 L 752.565,219.638 L 746.38,231.209 L 738.057,241.351 L 727.915,249.675 L 716.343,255.86 L 703.788,259.668 L 690.731,260.954 L 588.369,260.954 L 575.311,259.668 L 562.756,255.86 L 551.185,249.675 L 541.042,241.351 L 532.719,231.209 L 528.742,223.769 L 447.667,223.769 L 444.626,229.458 L 436.302,239.6 L 426.16,247.924 L 414.589,254.108 L 402.034,257.917 L 388.976,259.203 L 286.614,259.203 L 273.557,257.917 L 261.002,254.108 L 249.43,247.924 L 239.288,239.6 L 230.965,229.458 L 224.78,217.887 L 220.971,205.331 L 219.685,192.274 z " style="fill-opacity:1.000000;fill:rgb(84,17,14);stroke:rgb(0,0,0);stroke-width:2"/></g>
<g fill-rule="evenodd"><path d="M 261.339,5201.81 L 263.835,5176.46 L 271.228,5152.09 L 283.234,5129.63 L 299.392,5109.94 L 319.079,5093.79 L 341.541,5081.78 L 365.913,5074.39 L 391.26,5071.89 L 416.606,5074.39 L 440.979,5081.78 L 463.44,5093.79 L 483.128,5109.94 L 499.285,5129.63 L 511.291,5152.09 L 518.685,5176.46 L 521.181,5201.81 L 518.685,5227.16 L 511.291,5251.53 L 499.285,5273.99 L 483.128,5293.68 L 463.44,5309.84 L 440.979,5321.84 L 416.606,5329.24 L 391.26,5331.73 L 365.913,5329.24 L 341.541,5321.84 L 319.079,5309.84 L 299.392,5293.68 L 283.234,5273.99 L 271.228,5251.53 L 263.835,5227.16 L 261.339,5201.81 z " style="fill-opacity:1.000000;fill:rgb(130,116,65);stroke:rgb(0,0,0);stroke-width:2"/></g>
<g fill-rule="evenodd"><path d="M 1232.44,4736.22 L 1233.73,4723.16 L 1237.54,4710.61 L 1243.72,4699.04 L 1252.04,4688.89 L 1262.19,4680.57 L 1273.76,4674.39 L 1286.31,4670.58 L 1299.37,4669.29 L 1401.73,4669.29 L 1414.79,4670.58 L 1427.34,4674.39 L 1438.92,4680.57 L 1449.06,4688.89 L 1457.38,4699.04 L 1461.85,4707.4 L 1541.39,4707.4 L 1544.43,4701.71 L 1552.75,4691.57 L 1562.89,4683.25 L 1574.47,4677.06 L 1587.02,4673.25 L 1600.08,4671.97 L 1702.44,4671.97 L 1715.5,4673.25 L 1728.05,4677.06 L 1739.62,4683.25 L 1749.77,4691.57 L 1758.09,4701.71 L 1764.28,4713.28 L 1768.08,4725.84 L 1769.37,4738.9 L 1768.08,4751.95 L 1764.28,4764.51 L 1758.09,4776.08 L 1749.77,4786.22 L 1739.62,4794.55 L 1728.05,4800.73 L 1715.5,4804.54 L 1702.44,4805.83 L 1600.08,4805.83 L 1587.02,4804.54 L 1574.47,4800.73 L 1562.89,4794.55 L 1552.75,4786.22 L 1544.43,4776.08 L 1541.39,4770.39 L 1458.99,4770.39 L 1457.38,4773.4 L 1449.06,4783.55 L 1438.92,4791.87 L 1427.34,4798.05 L 1414.79,4801.86 L 1401.73,4803.15 L 1299.37,4803.15 L 1286.31,4801.86 L 1273.76,4798.05 L 1262.19,4791.87 L 1252.04,4783.55 L 1243.72,4773.4 L 1237.54,4761.83 L 1233.73,4749.28 L 1232.44,4736.22 z " style="fill-opacity:1.000000;fill:rgb(33,61,220);stroke:rgb(0,0,0);stroke-width:2"/></g>
<g fill-rule="evenodd"><path d="M 1533.15,4938.9 L 1534.44,4925.84 L 1538.24,4913.28 L 1544.43,4901.71 L 1552.75,4891.57 L 1562.89,4883.25 L 1574.47,4877.06 L 1587.02,4873.25 L 1600.08,4871.97 L 1702.44,4871.97 L 1715.5,4873.25 L 1728.05,4877.06 L 1739.62,4883.25 L 1749.77,4891.57 L 1758.09,4901.71 L 1764.28,4913.28 L 1768.08,4925.84 L 1769.37,4938.9 L 1768.08,4951.95 L 1764.28,4964.51 L 1758.09,4976.08 L 1749.77,4986.22 L 1739.62,4994.55 L 1728.05,5000.73 L 1715.5,5004.54 L 1702.44,5005.83 L 1702.44,5005.83 L 1600.08,5005.83 L 1587.02,5004.54 L 1574.47,5000.73 L 1562.89,4994.55 L 1552.75,4986.22 L 1544.43,4976.08 L 1538.24,4964.51 L 1534.44,4951.95 L 1533.15,4938.9 z " style="fill-opacity:1.000000;fill:rgb(135,112,233);stroke:rgb(0,0,0);stroke-width:2"/></g>
<g fill-rule="evenodd"><path d="M 2521.15,3793.81 L 2522.44,3780.75 L 2526.24,3768.2 L 2532.43,3756.63 L 2540.75,3746.48 L 2550.89,3738.16 L 2562.47,3731.98 L 2575.02,3728.17 L 2588.08,3726.88 L 2690.44,3726.88 L 2703.5,3728.17 L 2716.05,3731.98 L 2727.62,3738.16 L 2737.77,3746.48 L 2746.09,3756.63 L 2747.98,3760.17 L 2828.04,3760.17 L 2830.96,3754.7 L 2839.29,3744.55 L 2849.43,3736.23 L 2861,3730.05 L 2873.56,3726.24 L 2886.61,3724.95 L 2988.98,3724.95 L 3002.03,3726.24 L 3014.59,3730.05 L 3026.16,3736.23 L 3036.3,3744.55 L 3044.63,3754.7 L 3050.81,3766.27 L 3054.62,3778.82 L 3055.91,3791.88 L 3054.62,3804.94 L 3050.81,3817.49 L 3044.63,3829.06 L 3036.3,3839.21 L 3026.16,3847.53 L 3014.59,3853.71 L 3002.03,3857.52 L 2988.98,3858.81 L 2886.61,3858.81 L 2873.56,3857.52 L 2861,3853.71 L 2849.43,3847.53 L 2839.29,3839.21 L 2830.96,3829.06 L 2827.81,3823.16 L 2750.28,3823.16 L 2746.09,3830.99 L 2737.77,3841.14 L 2727.62,3849.46 L 2716.05,3855.65 L 2703.5,3859.45 L 2690.44,3860.74 L 2588.08,3860.74 L 2575.02,3859.45 L 2562.47,3855.65 L 2550.89,3849.46 L 2540.75,3841.14 L 2532.43,3830.99 L 2526.24,3819.42 L 2522.44,3806.87 L 2521.15,3793.81 z " style="fill-opacity:1.000000;fill:rgb(62,161,65);stroke:rgb(0,0,0);stroke-width:2"/></g>
<g fill-rule="evenodd"><path d="M 2521.15,3593.81 L 2522.44,3580.75 L 2526.24,3568.2 L 2532.43,3556.63 L 2540.75,3546.48 L 2550.89,3538.16 L 2562.47,3531.98 L 2575.02,3528.17 L 2588.08,3526.88 L 2690.44,3526.88 L 2703.5,3528.17 L 2716.05,3531.98 L 2727.62,3538.16 L 2737.77,3546.48 L 2746.09,3556.63 L 2747.98,3560.17 L 2828.04,3560.17 L 2830.96,3554.7 L 2839.29,3544.55 L 2849.43,3536.23 L 2861,3530.05 L 2873.56,3526.24 L 2886.61,3524.95 L 2988.98,3524.95 L 3002.03,3526.24 L 3014.59,3530.05 L 3026.16,3536.23 L 3036.3,3544.55 L 3044.63,3554.7 L 3050.81,3566.27 L 3054.62,3578.82 L 3055.91,3591.88 L 3054.62,3604.94 L 3050.81,3617.49 L 3044.63,3629.06 L 3036.3,3639.21 L 3026.16,3647.53 L 3014.59,3653.71 L 3002.03,3657.52 L 2988.98,3658.81 L 2886.61,3658.81 L 2873.56,3657.52 L 2861,3653.71 L 2849.43,3647.53 L 2839.29,3639.21 L 2830.96,3629.06 L 2827.81,3623.16 L 2750.28,3623.16 L 2746.09,3630.99 L 2737.77,3641.14 L 2727.62,3649.46 L 2716.05,3655.65 L 2703.5,3659.45 L 2690.44,3660.74 L 2588.08,3660.74 L 2575.02,3659.45 L 2562.47,3655.65 L 2550.89,3649.46 L 2540.75,3641.14 L 2532.43,3630.99 L 2526.24,3619.42 L 2522.44,3606.87 L 2521.15,3593.81 z " style="fill-opacity:1.000000;fill:rgb(225,252,103);stroke:rgb(0,0,0);stroke-width:2"/></g>
<g fill-rule="evenodd"><path d="M 2521.44,3394.03 L 2522.73,3380.97 L 2526.53,3368.41 L 2532.72,3356.84 L 2541.04,3346.7 L 2551.18,3338.38 L 2562.76,3332.19 L 2575.31,3328.38 L 2588.37,3327.1 L 2690.73,3327.1 L 2703.79,3328.38 L 2716.34,3332.19 L 2727.91,3338.38 L 2738.06,3346.7 L 2746.38,3356.84 L 2748.27,3360.38 L 2827.93,3360.38 L 2830.96,3354.7 L 2839.29,3344.55 L 2849.43,3336.23 L 2861,3330.05 L 2873.56,3326.24 L 2886.61,3324.95 L 2988.98,3324.95 L 3002.03,3326.24 L 3014.59,3330.05 L 3026.16,3336.23 L 3036.3,3344.55 L 3044.63,3354.7 L 3050.81,3366.27 L 3054.62,3378.82 L 3055.91,3391.88 L 3054.62,3404.94 L 3050.81,3417.49 L 3044.63,3429.06 L 3036.3,3439.21 L 3026.16,3447.53 L 3014.59,3453.71 L 3002.03,3457.52 L 2988.98,3458.81 L 2886.61,3458.81 L 2873.56,3457.52 L 2861,3453.71 L 2849.43,3447.53 L 2839.29,3439.21 L 2830.96,3429.06 L 2827.92,3423.38 L 2750.57,3423.37 L 2746.38,3431.21 L 2738.06,3441.35 L 2727.91,3449.67 L 2716.34,3455.86 L 2703.79,3459.67 L 2690.73,3460.95 L 2588.37,3460.95 L 2575.31,3459.67 L 2562.76,3455.86 L 2551.18,3449.67 L 2541.04,3441.35 L 2532.72,3431.21 L 2526.53,3419.64 L 2522.73,3407.08 L 2521.44,3394.03 z " style="fill-opacity:1.000000;fill:rgb(62,1,126);stroke:rgb(0,0,0);stroke-width:2"/></g>
<g fill-rule="evenodd"><path d="M 2521.44,3194.03 L 2522.73,3180.97 L 2526.53,3168.41 L 2532.72,3156.84 L 2541.04,3146.7 L 2551.18,3138.38 L 2562.76,3132.19 L 2575.31,3128.38 L 2588.37,3127.1 L 2690.73,3127.1 L 2703.79,3128.38 L 2716.34,3132.19 L 2727.91,3138.38 L 2738.06,3146.7 L 2746.38,3156.84 L 2748.27,3160.38 L 2827.93,3160.38 L 2830.96,3154.7 L 2839.29,3144.55 L 2849.43,3136.23 L 2861,3130.05 L 2873.56,3126.24 L 2886.61,3124.95 L 2988.98,3124.95 L 3002.03,3126.24 L 3014.59,3130.05 L 3026.16,3136.23 L 3036.3,3144.55 L 3044.63,3154.7 L 3050.81,3166.27 L 3054.62,3178.82 L 3055.91,3191.88 L 3054.62,3204.94 L 3050.81,3217.49 L 3044.63,3229.06 L 3036.3,3239.21 L 3026.16,3247.53 L 3014.59,3253.71 L 3002.03,3257.52 L 2988.98,3258.81 L 2886.61,3258.81 L 2873.56,3257.52 L 2861,3253.71 L 2849.43,3247.53 L 2839.29,3239.21 L 2830.96,3229.06 L 2827.92,3223.38 L 2750.57,3223.38 L 2746.38,3231.21 L 2738.06,3241.35 L 2727.91,3249.67 L 2716.34,3255.86 L 2703.79,3259.67 L 2690.73,3260.95 L 2588.37,3260.95 L 2575.31,3259.67 L 2562.76,3255.86 L 2551.18,3249.67 L 2541.04,3241.35 L 2532.72,3231.21 L 2526.53,3219.64 L 2522.73,3207.08 L 2521.44,3194.03 z " style="fill-opacity:1.000000;fill:rgb(151,234,220);stroke:rgb(0,0,0);stroke-width:2"/></g>
<g fill-rule="evenodd"><path d="M 2521.44,2994.03 L 2522.73,2980.97 L 2526.53,2968.41 L 2532.72,2956.84 L 2541.04,2946.7 L 2551.18,2938.38 L 2562.76,2932.19 L 2575.31,2928.38 L 2588.37,2927.1 L 2690.73,2927.1 L 2703.79,2928.38 L 2716.34,2932.19 L 2727.91,2938.38 L 2738.06,2946.7 L 2746.38,2956.84 L 2748.27,2960.38 L 2827.93,2960.38 L 2830.96,2954.7 L 2839.29,2944.55 L 2849.43,2936.23 L 2861,2930.05 L 2873.56,2926.24 L 2886.61,2924.95 L 2988.98,2924.95 L 3002.03,2926.24 L 3014.59,2930.05 L 3026.16,2936.23 L 3036.3,2944.55 L 3044.63,2954.7 L 3050.81,2966.27 L 3054.62,2978.82 L 3055.91,2991.88 L 3054.62,3004.94 L 3050.81,3017.49 L 3044.63,3029.06 L 3036.3,3039.21 L 3026.16,3047.53 L 3014.59,3053.71 L 3002.03,3057.52 L 2988.98,3058.81 L 2886.61,3058.81 L 2873.56,3057.52 L 2861,3053.71 L 2849.43,3047.53 L 2839.29,3039.21 L 2830.96,3029.06 L 2827.92,3023.38 L 2750.57,3023.38 L 2746.38,3031.21 L 2738.06,3041.35 L 2727.91,3049.67 L 2716.34,3055.86 L 2703.79,3059.67 L 2690.73,3060.95 L 2588.37,3060.95 L 2575.31,3059.67 L 2562.76,3055.86 L 2551.18,3049.67 L 2541.04,3041.35 L 2532.72,3031.21 L 2526.53,3019.64 L 2522.73,3007.08 L 2521.44,2994.03 z " style="fill-opacity:1.000000;fill:rgb(107,150,143);stroke:rgb(0,0,0);stroke-width:2"/></g>
<g fill-rule="evenodd"><path d="M 2521.44,2794.03 L 2522.73,2780.97 L 2526.53,2768.41 L 2532.72,2756.84 L 2541.04,2746.7 L 2551.18,2738.38 L 2562.76,2732.19 L 2575.31,2728.38 L 2588.37,2727.1 L 2690.73,2727.1 L 2703.79,2728.38 L 2716.34,2732.19 L 2727.91,2738.38 L 2738.06,2746.7 L 2746.38,2756.84 L 2748.27,2760.38 L 2827.93,2760.38 L 2830.96,2754.7 L 2839.29,2744.55 L 2849.43,2736.23 L 2861,2730.05 L 2873.56,2726.24 L 2886.61,2724.95 L 2988.98,2724.95 L 3002.03,2726.24 L 3014.59,2730.05 L 3026.16,2736.23 L 3036.3,2744.55 L 3044.63,2754.7 L 3050.81,2766.27 L 3054.62,2778.82 L 3055.91,2791.88 L 3054.62,2804.94 L 3050.81,2817.49 L 3044.63,2829.06 L 3036.3,2839.21 L 3026.16,2847.53 L 3014.59,2853.71 L 3002.03,2857.52 L 2988.98,2858.81 L 2886.61,2858.81 L 2873.56,2857.52 L 2861,2853.71 L 2849.43,2847.53 L 2839.29,2839.21 L 2830.96,2829.06 L 2827.92,2823.38 L 2750.57,2823.38 L 2746.38,2831.21 L 2738.06,2841.35 L 2727.91,2849.67 L 2716.34,2855.86 L 2703.79,2859.67 L 2690.73,2860.95 L 2588.37,2860.95 L 2575.31,2859.67 L 2562.76,2855.86 L 2551.18,2849.67 L 2541.04,2841.35 L 2532.72,2831.21 L 2526.53,2819.64 L 2522.73,2807.08 L 2521.44,2794.03 z " style="fill-opacity:1.000000;fill:rgb(56,92,42);stroke:rgb(0,0,0);stroke-width:2"/></g>
<g fill-rule="evenodd"><path d="M 2521.44,2594.03 L 2522.73,2580.97 L 2526.53,2568.41 L 2532.72,2556.84 L 2541.04,2546.7 L 2551.18,2538.38 L 2562.76,2532.19 L 2575.31,2528.38 L 2588.37,2527.1 L 2690.73,2527.1 L 2703.79,2528.38 L 2716.34,2532.19 L 2727.91,2538.38 L 2738.06,2546.7 L 2746.38,2556.84 L 2748.27,2560.38 L 2827.93,2560.38 L 2830.96,2554.7 L 2839.29,2544.55 L 2849.43,2536.23 L 2861,2530.05 L 2873.56,2526.24 L 2886.61,2524.95 L 2988.98,2524.95 L 3002.03,2526.24 L 3014.59,2530.05 L 3026.16,2536.23 L 3036.3,2544.55 L 3044.63,2554.7 L 3050.81,2566.27 L 3054.62,2578.82 L 3055.91,2591.88 L 3054.62,2604.94 L 3050.81,2617.49 L 3044.63,2629.06 L 3036.3,2639.21 L 3026.16,2647.53 L 3014.59,2653.71 L 3002.03,2657.52 L 2988.98,2658.81 L 2886.61,2658.81 L 2873.56,2657.52 L 2861,2653.71 L 2849.43,2647.53 L 2839.29,2639.21 L 2830.96,2629.06 L 2827.92,2623.38 L 2750.57,2623.38 L 2746.38,2631.21 L 2738.06,2641.35 L 2727.91,2649.67 L 2716.34,2655.86 L 2703.79,2659.67 L 2690.73,2660.95 L 2588.37,2660.95 L 2575.31,2659.67 L 2562.76,2655.86 L 2551.18,2649.67 L 2541.04,2641.35 L 2532.72,2631.21 L 2526.53,2619.64 L 2522.73,2607.08 L 2521.44,2594.03 z " style="fill-opacity:1.000000;fill:rgb(236,176,59);stroke:rgb(0,0,0);stroke-width:2"/></g>
<g fill-rule="evenodd"><path d="M 2521.44,2394.03 L 2522.73,2380.97 L 2526.53,2368.41 L 2532.72,2356.84 L 2541.04,2346.7 L 2551.18,2338.38 L 2562.76,2332.19 L 2575.31,2328.38 L 2588.37,2327.1 L 2690.73,2327.1 L 2703.79,2328.38 L 2716.34,2332.19 L 2727.91,2338.38 L 2738.06,2346.7 L 2746.38,2356.84 L 2748.27,2360.38 L 2827.93,2360.38 L 2830.96,2354.7 L 2839.29,2344.55 L 2849.43,2336.23 L 2861,2330.05 L 2873.56,2326.24 L 2886.61,2324.95 L 2988.98,2324.95 L 3002.03,2326.24 L 3014.59,2330.05 L 3026.16,2336.23 L 3036.3,2344.55 L 3044.63,2354.7 L 3050.81,2366.27 L 3054.62,2378.82 L 3055.91,2391.88 L 3054.62,2404.94 L 3050.81,2417.49 L 3044.63,2429.06 L 3036.3,2439.21 L 3026.16,2447.53 L 3014.59,2453.71 L 3002.03,2457.52 L 2988.98,2458.81 L 2886.61,2458.81 L 2873.56,2457.52 L 2861,2453.71 L 2849.43,2447.53 L 2839.29,2439.21 L 2830.96,2429.06 L 2827.92,2423.37 L 2750.57,2423.37 L 2746.38,2431.21 L 2738.06,2441.35 L 2727.91,2449.67 L 2716.34,2455.86 L 2703.79,2459.67 L 2690.73,2460.95 L 2588.37,2460.95 L 2575.31,2459.67 L 2562.76,2455.86 L 2551.18,2449.67 L 2541.04,2441.35 L 2532.72,2431.21 L 2526.53,2419.64 L 2522.73,2407.08 L 2521.44,2394.03 z " style="fill-opacity:1.000000;fill:rgb(251,50,175);stroke:rgb(0,0,0);stroke-width:2"/></g>
<g fill-rule="evenodd"><path d="M 2521.44,2194.03 L 2522.73,2180.97 L 2526.53,2168.41 L 2532.72,2156.84 L 2541.04,2146.7 L 2551.18,2138.38 L 2562.76,2132.19 L 2575.31,2128.38 L 2588.37,2127.1 L 2690.73,2127.1 L 2703.79,2128.38 L 2716.34,2132.19 L 2727.91,2138.38 L 2738.06,2146.7 L 2746.38,2156.84 L 2748.27,2160.38 L 2827.93,2160.38 L 2830.96,2154.7 L 2839.29,2144.55 L 2849.43,2136.23 L 2861,2130.05 L 2873.56,2126.24 L 2886.61,2124.95 L 2988.98,2124.95 L 3002.03,2126.24 L 3014.59,2130.05 L 3026.16,2136.23 L 3036.3,2144.55 L 3044.63,2154.7 L 3050.81,2166.27 L 3054.62,2178.82 L 3055.91,2191.88 L 3054.62,2204.94 L 3050.81,2217.49 L 3044.63,2229.06 L 3036.3,2239.21 L 3026.16,2247.53 L 3014.59,2253.71 L 3002.03,2257.52 L 2988.98,2258.81 L 2886.61,2258.81 L 2873.56,2257.52 L 2861,2253.71 L 2849.43,2247.53 L 2839.29,2239.21 L 2830.96,2229.06 L 2827.92,2223.37 L 2750.57,2223.37 L 2746.38,2231.21 L 2738.06,2241.35 L 2727.91,2249.67 L 2716.34,2255.86 L 2703.79,2259.67 L 2690.73,2260.95 L 2588.37,2260.95 L 2575.31,2259.67 L 2562.76,2255.86 L 2551.18,2249.67 L 2541.04,2241.35 L 2532.72,2231.21 L 2526.53,2219.64 L 2522.73,2207.08 L 2521.44,2194.03 z " style="fill-opacity:1.000000;fill:rgb(60,84,236);stroke:rgb(0,0,0);stroke-width:2"/></g>
<g fill-rule="evenodd"><path d="M 2521.44,1994.03 L 2522.73,1980.97 L 2526.53,1968.41 L 2532.72,1956.84 L 2541.04,1946.7 L 2551.18,1938.38 L 2562.76,1932.19 L 2575.31,1928.38 L 2588.37,1927.1 L 2690.73,1927.1 L 2703.79,1928.38 L 2716.34,1932.19 L 2727.91,1938.38 L 2738.06,1946.7 L 2746.38,1956.84 L 2748.27,1960.38 L 2827.93,1960.38 L 2830.96,1954.7 L 2839.29,1944.55 L 2849.43,1936.23 L 2861,1930.05 L 2873.56,1926.24 L 2886.61,1924.95 L 2988.98,1924.95 L 3002.03,1926.24 L 3014.59,1930.05 L 3026.16,1936.23 L 3036.3,1944.55 L 3044.63,1954.7 L 3050.81,1966.27 L 3054.62,1978.82 L 3055.91,1991.88 L 3054.62,2004.94 L 3050.81,2017.49 L 3044.63,2029.06 L 3036.3,2039.21 L 3026.16,2047.53 L 3014.59,2053.71 L 3002.03,2057.52 L 2988.98,2058.81 L 2886.61,2058.81 L 2873.56,2057.52 L 2861,2053.71 L 2849.43,2047.53 L 2839.29,2039.21 L 2830.96,2029.06 L 2827.92,2023.38 L 2750.57,2023.37 L 2746.38,2031.21 L 2738.06,2041.35 L 2727.91,2049.67 L 2716.34,2055.86 L 2703.79,2059.67 L 2690.73,2060.95 L 2588.37,2060.95 L 2575.31,2059.67 L 2562.76,2055.86 L 2551.18,2049.67 L 2541.04,2041.35 L 2532.72,2031.21 L 2526.53,2019.64 L 2522.73,2007.08 L 2521.44,1994.03 z " style="fill-opacity:1.000000;fill:rgb(24,219,92);stroke:rgb(0,0,0);stroke-width:2"/></g>
<g fill-rule="evenodd"><path d="M 2521.44,1794.03 L 2522.73,1780.97 L 2526.53,1768.41 L 2532.72,1756.84 L 2541.04,1746.7 L 2551.18,1738.38 L 2562.76,1732.19 L 2575.31,1728.38 L 2588.37,1727.1 L 2690.73,1727.1 L 2703.79,1728.38 L 2716.34,1732.19 L 2727.91,1738.38 L 2738.06,1746.7 L 2746.38,1756.84 L 2748.27,1760.38 L 2827.93,1760.38 L 2830.96,1754.7 L 2839.29,1744.55 L 2849.43,1736.23 L 2861,1730.05 L 2873.56,1726.24 L 2886.61,1724.95 L 2988.98,1724.95 L 3002.03,1726.24 L 3014.59,1730.05 L 3026.16,1736.23 L 3036.3,1744.55 L 3044.63,1754.7 L 3050.81,1766.27 L 3054.62,1778.82 L 3055.91,1791.88 L 3054.62,1804.94 L 3050.81,1817.49 L 3044.63,1829.06 L 3036.3,1839.21 L 3026.16,1847.53 L 3014.59,1853.71 L 3002.03,1857.52 L 2988.98,1858.81 L 2886.61,1858.81 L 2873.56,1857.52 L 2861,1853.71 L 2849.43,1847.53 L 2839.29,1839.21 L 2830.96,1829.06 L 2827.92,1823.38 L 2750.57,1823.37 L 2746.38,1831.21 L 2738.06,1841.35 L 2727.91,1849.67 L 2716.34,1855.86 L 2703.79,1859.67 L 2690.73,1860.95 L 2588.37,1860.95 L 2575.31,1859.67 L 2562.76,1855.86 L 2551.18,1849.67 L 2541.04,1841.35 L 2532.72,1831.21 L 2526.53,1819.64 L 2522.73,1807.08 L 2521.44,1794.03 z " style="fill-opacity:1.000000;fill:rgb(2,26,254);stroke:rgb(0,0,0);stroke-width:2"/></g>
<g fill-rule="evenodd"><path d="M 2521.44,1594.03 L 2522.73,1580.97 L 2526.53,1568.41 L 2532.72,1556.84 L 2541.04,1546.7 L 2551.18,1538.38 L 2562.76,1532.19 L 2575.31,1528.38 L 2588.37,1527.1 L 2690.73,1527.1 L 2703.79,1528.38 L 2716.34,1532.19 L 2727.91,1538.38 L 2738.06,1546.7 L 2746.38,1556.84 L 2748.27,1560.38 L 2827.93,1560.38 L 2830.96,1554.7 L 2839.29,1544.55 L 2849.43,1536.23 L 2861,1530.05 L 2873.56,1526.24 L 2886.61,1524.95 L 2988.98,1524.95 L 3002.03,1526.24 L 3014.59,1530.05 L 3026.16,1536.23 L 3036.3,1544.55 L 3044.63,1554.7 L 3050.81,1566.27 L 3054.62,1578.82 L 3055.91,1591.88 L 3054.62,1604.94 L 3050.81,1617.49 L 3044.63,1629.06 L 3036.3,1639.21 L 3026.16,1647.53 L 3014.59,1653.71 L 3002.03,1657.52 L 2988.98,1658.81 L 2886.61,1658.81 L 2873.56,1657.52 L 2861,1653.71 L 2849.43,1647.53 L 2839.29,1639.21 L 2830.96,1629.06 L 2827.92,1623.38 L 2750.57,1623.37 L 2746.38,1631.21 L 2738.06,1641.35 L 2727.91,1649.67 L 2716.34,1655.86 L 2703.79,1659.67 L 2690.73,1660.95 L 2588.37,1660.95 L 2575.31,1659.67 L 2562.76,1655.86 L 2551.18,1649.67 L 2541.04,1641.35 L 2532.72,1631.21 L 2526.53,1619.64 L 2522.73,1607.08 L 2521.44,1594.03 z " style="fill-opacity:1.000000;fill:rgb(67,251,250);stroke:rgb(0,0,0);stroke-width:2"/></g>
<g fill-rule="evenodd"><path d="M 2521.44,1194.03 L 2522.73,1180.97 L 2526.53,1168.41 L 2532.72,1156.84 L 2541.04,1146.7 L 2551.18,1138.38 L 2562.76,1132.19 L 2575.31,1128.38 L 2588.37,1127.1 L 2690.73,1127.1 L 2703.79,1128.38 L 2716.34,1132.19 L 2727.91,1138.38 L 2738.06,1146.7 L 2746.38,1156.84 L 2748.27,1160.38 L 2827.93,1160.38 L 2830.96,1154.7 L 2839.29,1144.55 L 2849.43,1136.23 L 2861,1130.05 L 2873.56,1126.24 L 2886.61,1124.95 L 2988.98,1124.95 L 3002.03,1126.24 L 3014.59,1130.05 L 3026.16,1136.23 L 3036.3,1144.55 L 3044.63,1154.7 L 3047.67,1160.38 L 3125.87,1160.38 L 3130.79,1160.77 L 3135.6,1161.92 L 3140.17,1163.82 L 3144.38,1166.4 L 3148.14,1169.61 L 3315.96,1337.42 L 3318.89,1335.01 L 3330.47,1328.83 L 3343.02,1325.02 L 3356.08,1323.73 L 3458.44,1323.73 L 3471.5,1325.02 L 3484.05,1328.83 L 3495.62,1335.01 L 3505.77,1343.34 L 3514.09,1353.48 L 3520.28,1365.05 L 3524.08,1377.6 L 3525.37,1390.66 L 3524.08,1403.72 L 3520.28,1416.27 L 3514.09,1427.85 L 3505.77,1437.99 L 3495.62,1446.31 L 3484.05,1452.5 L 3471.5,1456.3 L 3458.44,1457.59 L 3356.08,1457.59 L 3343.02,1456.3 L 3330.47,1452.5 L 3318.89,1446.31 L 3308.75,1437.99 L 3300.43,1427.85 L 3294.24,1416.27 L 3290.44,1403.72 L 3290.14,1400.69 L 3112.82,1223.38 L 3047.67,1223.38 L 3044.63,1229.06 L 3036.3,1239.21 L 3026.16,1247.53 L 3014.59,1253.71 L 3002.03,1257.52 L 2988.98,1258.81 L 2886.61,1258.81 L 2873.56,1257.52 L 2861,1253.71 L 2849.43,1247.53 L 2839.29,1239.21 L 2830.96,1229.06 L 2827.92,1223.38 L 2750.57,1223.38 L 2746.38,1231.21 L 2738.06,1241.35 L 2727.91,1249.67 L 2716.34,1255.86 L 2703.79,1259.67 L 2690.73,1260.95 L 2588.37,1260.95 L 2575.31,1259.67 L 2562.76,1255.86 L 2551.18,1249.67 L 2541.04,1241.35 L 2532.72,1231.21 L 2526.53,1219.64 L 2522.73,1207.08 L 2521.44,1194.03 z " style="fill-opacity:1.000000;fill:rgb(170,58,251);stroke:rgb(0,0,0);stroke-width:2"/></g>
<g fill-rule="evenodd"><path d="M 2521.44,994.025 L 2522.73,980.968 L 2526.53,968.413 L 2532.72,956.841 L 2541.04,946.699 L 2551.18,938.376 L 2562.76,932.191 L 2575.31,928.382 L 2588.37,927.096 L 2690.73,927.096 L 2703.79,928.382 L 2716.34,932.191 L 2727.91,938.376 L 2738.06,946.699 L 2746.38,956.841 L 2748.27,960.383 L 2827.93,960.383 L 2830.96,954.696 L 2839.29,944.554 L 2849.43,936.231 L 2861,930.046 L 2873.56,926.237 L 2886.61,924.951 L 2988.98,924.951 L 3002.03,926.237 L 3014.59,930.046 L 3026.16,936.231 L 3036.3,944.554 L 3044.63,954.696 L 3050.81,966.268 L 3054.62,978.823 L 3055.91,991.88 L 3054.62,1004.94 L 3050.81,1017.49 L 3044.63,1029.06 L 3036.3,1039.21 L 3026.16,1047.53 L 3014.59,1053.71 L 3002.03,1057.52 L 2988.98,1058.81 L 2886.61,1058.81 L 2873.56,1057.52 L 2861,1053.71 L 2849.43,1047.53 L 2839.29,1039.21 L 2830.96,1029.06 L 2827.92,1023.38 L 2750.57,1023.38 L 2746.38,1031.21 L 2738.06,1041.35 L 2727.91,1049.67 L 2716.34,1055.86 L 2703.79,1059.67 L 2690.73,1060.95 L 2588.37,1060.95 L 2575.31,1059.67 L 2562.76,1055.86 L 2551.18,1049.67 L 2541.04,1041.35 L 2532.72,1031.21 L 2526.53,1019.64 L 2522.73,1007.08 L 2521.44,994.025 z " style="fill-opacity:1.000000;fill:rgb(41,209,230);stroke:rgb(0,0,0);stroke-width:2"/></g>
<g fill-rule="evenodd"><path d="M 2521.44,794.025 L 2522.73,780.968 L 2526.53,768.413 L 2532.72,756.841 L 2541.04,746.699 L 2551.18,738.376 L 2562.76,732.191 L 2575.31,728.382 L 2588.37,727.096 L 2690.73,727.096 L 2703.79,728.382 L 2716.34,732.191 L 2727.91,738.376 L 2738.06,746.699 L 2746.38,756.841 L 2748.27,760.383 L 2827.93,760.383 L 2830.96,754.696 L 2839.29,744.554 L 2849.43,736.231 L 2861,730.046 L 2873.56,726.237 L 2886.61,724.951 L 2988.98,724.951 L 3002.03,726.237 L 3014.59,730.046 L 3026.16,736.231 L 3036.3,744.554 L 3044.63,754.696 L 3050.81,766.268 L 3054.62,778.823 L 3055.91,791.88 L 3054.62,804.938 L 3050.81,817.493 L 3044.63,829.064 L 3036.3,839.206 L 3026.16,847.53 L 3014.59,853.715 L 3002.03,857.523 L 2988.98,858.809 L 2886.61,858.809 L 2873.56,857.523 L 2861,853.715 L 2849.43,847.53 L 2839.29,839.206 L 2830.96,829.064 L 2827.92,823.375 L 2750.57,823.375 L 2746.38,831.209 L 2738.06,841.351 L 2727.91,849.675 L 2716.34,855.86 L 2703.79,859.668 L 2690.73,860.954 L 2588.37,860.954 L 2575.31,859.668 L 2562.76,855.86 L 2551.18,849.675 L 2541.04,841.351 L 2532.72,831.209 L 2526.53,819.638 L 2522.73,807.082 L 2521.44,794.025 z " style="fill-opacity:1.000000;fill:rgb(5,60,124);stroke:rgb(0,0,0);stroke-width:2"/></g>
<g fill-rule="evenodd"><path d="M 2521.44,594.025 L 2522.73,580.968 L 2526.53,568.413 L 2532.72,556.841 L 2541.04,546.699 L 2551.18,538.376 L 2562.76,532.191 L 2575.31,528.382 L 2588.37,527.096 L 2690.73,527.096 L 2703.79,528.382 L 2716.34,532.191 L 2727.91,538.376 L 2738.06,546.699 L 2746.38,556.841 L 2748.27,560.383 L 2827.93,560.383 L 2830.96,554.696 L 2839.29,544.554 L 2849.43,536.231 L 2861,530.046 L 2873.56,526.237 L 2886.61,524.951 L 2988.98,524.951 L 3002.03,526.237 L 3014.59,530.046 L 3026.16,536.231 L 3036.3,544.554 L 3044.63,554.696 L 3050.81,566.268 L 3054.62,578.823 L 3055.26,585.345 L 3172.66,702.748 L 3176.58,707.521 L 3179.49,712.966 L 3181.28,718.875 L 3181.89,725.019 L 3181.89,1025.19 L 3306.24,1149.54 L 3308.75,1146.48 L 3318.89,1138.16 L 3330.47,1131.98 L 3343.02,1128.17 L 3356.08,1126.88 L 3458.44,1126.88 L 3471.5,1128.17 L 3484.05,1131.98 L 3495.62,1138.16 L 3505.77,1146.48 L 3514.09,1156.63 L 3520.28,1168.2 L 3524.08,1180.75 L 3525.37,1193.81 L 3524.08,1206.87 L 3520.28,1219.42 L 3514.09,1230.99 L 3505.77,1241.14 L 3495.62,1249.46 L 3484.05,1255.65 L 3471.5,1259.45 L 3458.44,1260.74 L 3356.08,1260.74 L 3343.02,1259.45 L 3330.47,1255.65 L 3318.89,1249.46 L 3308.75,1241.14 L 3300.43,1230.99 L 3296.61,1223.86 L 3296.24,1223.77 L 3291.67,1221.87 L 3287.45,1219.29 L 3283.7,1216.08 L 3128.12,1060.51 L 3124.2,1055.73 L 3121.29,1050.29 L 3119.5,1044.38 L 3118.9,1038.24 L 3118.9,738.065 L 3027.37,646.537 L 3026.16,647.53 L 3014.59,653.715 L 3002.03,657.523 L 2988.98,658.809 L 2886.61,658.809 L 2873.56,657.523 L 2861,653.715 L 2849.43,647.53 L 2839.29,639.206 L 2830.96,629.064 L 2827.92,623.375 L 2750.57,623.375 L 2746.38,631.209 L 2738.06,641.351 L 2727.91,649.675 L 2716.34,655.86 L 2703.79,659.668 L 2690.73,660.954 L 2588.37,660.954 L 2575.31,659.668 L 2562.76,655.86 L 2551.18,649.675 L 2541.04,641.351 L 2532.72,631.209 L 2526.53,619.638 L 2522.73,607.082 L 2521.44,594.025 z " style="fill-opacity:1.000000;fill:rgb(148,117,216);stroke:rgb(0,0,0);stroke-width:2"/></g>
<g fill-rule="evenodd"><path d="M 2521.44,394.025 L 2522.73,380.968 L 2526.53,368.413 L 2532.72,356.841 L 2541.04,346.699 L 2551.18,338.376 L 2562.76,332.191 L 2575.31,328.382 L 2588.37,327.096 L 2690.73,327.096 L 2703.79,328.382 L 2716.34,332.191 L 2727.91,338.376 L 2738.06,346.699 L 2746.38,356.841 L 2748.27,360.383 L 2827.93,360.383 L 2830.96,354.696 L 2839.29,344.554 L 2849.43,336.231 L 2861,330.046 L 2873.56,326.237 L 2886.61,324.951 L 2988.98,324.951 L 3002.03,326.237 L 3014.59,330.046 L 3026.16,336.231 L 3036.3,344.554 L 3044.63,354.696 L 3050.81,366.268 L 3054.62,378.823 L 3055.26,385.345 L 3298.65,628.732 L 3302.57,633.505 L 3305.48,638.95 L 3307.27,644.858 L 3307.87,651.003 L 3307.87,893.883 L 3345.1,931.112 L 3356.08,930.031 L 3458.44,930.031 L 3471.5,931.318 L 3484.05,935.126 L 3495.62,941.311 L 3505.77,949.635 L 3514.09,959.777 L 3520.28,971.348 L 3524.08,983.903 L 3525.37,996.961 L 3524.08,1010.02 L 3520.28,1022.57 L 3514.09,1034.14 L 3505.77,1044.29 L 3495.62,1052.61 L 3484.05,1058.8 L 3471.5,1062.6 L 3458.44,1063.89 L 3356.08,1063.89 L 3343.02,1062.6 L 3330.47,1058.8 L 3318.89,1052.61 L 3308.75,1044.29 L 3300.43,1034.14 L 3294.24,1022.57 L 3290.44,1010.02 L 3289.15,996.961 L 3290.44,983.903 L 3294.24,971.348 L 3294.94,970.038 L 3254.11,929.2 L 3250.19,924.427 L 3247.28,918.982 L 3245.49,913.074 L 3244.88,906.929 L 3244.88,664.049 L 3027.37,446.537 L 3026.16,447.53 L 3014.59,453.715 L 3002.03,457.523 L 2988.98,458.809 L 2886.61,458.809 L 2873.56,457.523 L 2861,453.715 L 2849.43,447.53 L 2839.29,439.206 L 2830.96,429.064 L 2827.92,423.375 L 2750.57,423.375 L 2746.38,431.209 L 2738.06,441.351 L 2727.91,449.675 L 2716.34,455.86 L 2703.79,459.668 L 2690.73,460.954 L 2588.37,460.954 L 2575.31,459.668 L 2562.76,455.86 L 2551.18,449.675 L 2541.04,441.351 L 2532.72,431.209 L 2526.53,419.638 L 2522.73,407.082 L 2521.44,394.025 z " style="fill-opacity:1.000000;fill:rgb(190,97,137);stroke:rgb(0,0,0);stroke-width:2"/></g>
<g fill-rule="evenodd"><path d="M 2533.15,4876.69 L 2534.44,4863.64 L 2538.24,4851.08 L 2544.43,4839.51 L 2552.75,4829.37 L 2562.89,4821.04 L 2574.47,4814.86 L 2587.02,4811.05 L 2600.08,4809.76 L 2677.51,4809.76 L 2993.8,4493.48 L 2998.58,4489.56 L 3004.02,4486.65 L 3009.93,4484.86 L 3016.07,4484.25 L 3297.39,4484.25 L 3300.43,4478.56 L 3308.75,4468.42 L 3318.89,4460.1 L 3330.47,4453.91 L 3343.02,4450.1 L 3356.08,4448.82 L 3458.44,4448.82 L 3471.5,4450.1 L 3484.05,4453.91 L 3495.62,4460.1 L 3505.77,4468.42 L 3514.09,4478.56 L 3520.28,4490.14 L 3524.08,4502.69 L 3525.37,4515.75 L 3524.08,4528.81 L 3520.28,4541.36 L 3514.09,4552.93 L 3505.77,4563.07 L 3495.62,4571.4 L 3484.05,4577.58 L 3471.5,4581.39 L 3458.44,4582.68 L 3356.08,4582.68 L 3343.02,4581.39 L 3330.47,4577.58 L 3318.89,4571.4 L 3308.75,4563.07 L 3300.43,4552.93 L 3297.39,4547.24 L 3029.12,4547.24 L 2748.24,4828.12 L 2749.77,4829.37 L 2758.09,4839.51 L 2764.28,4851.08 L 2768.08,4863.64 L 2769.37,4876.69 L 2768.08,4889.75 L 2764.28,4902.31 L 2758.09,4913.88 L 2749.77,4924.02 L 2739.62,4932.34 L 2728.05,4938.53 L 2715.5,4942.34 L 2702.44,4943.62 L 2600.08,4943.62 L 2587.02,4942.34 L 2574.47,4938.53 L 2562.89,4932.34 L 2552.75,4924.02 L 2544.43,4913.88 L 2538.24,4902.31 L 2534.44,4889.75 L 2533.15,4876.69 z " style="fill-opacity:1.000000;fill:rgb(249,92,187);stroke:rgb(0,0,0);stroke-width:2"/></g>
<g fill-rule="evenodd"><path d="M 2533.15,4601.1 L 2534.44,4588.05 L 2538.24,4575.49 L 2544.43,4563.92 L 2552.75,4553.78 L 2562.89,4545.45 L 2574.47,4539.27 L 2587.02,4535.46 L 2600.08,4534.17 L 2702.44,4534.17 L 2715.5,4535.46 L 2728.05,4539.27 L 2739.62,4545.45 L 2749.77,4553.78 L 2752.28,4556.83 L 2941.62,4367.49 L 2946.39,4363.58 L 2951.83,4360.66 L 2957.74,4358.87 L 2963.89,4358.27 L 3240.74,4358.27 L 3290.14,4308.87 L 3290.44,4305.84 L 3294.24,4293.28 L 3300.43,4281.71 L 3308.75,4271.57 L 3318.89,4263.25 L 3330.47,4257.06 L 3343.02,4253.25 L 3356.08,4251.97 L 3458.44,4251.97 L 3471.5,4253.25 L 3484.05,4257.06 L 3495.62,4263.25 L 3505.77,4271.57 L 3514.09,4281.71 L 3520.28,4293.28 L 3524.08,4305.84 L 3525.37,4318.9 L 3524.08,4331.95 L 3520.28,4344.51 L 3514.09,4356.08 L 3505.77,4366.22 L 3495.62,4374.55 L 3484.05,4380.73 L 3471.5,4384.54 L 3458.44,4385.83 L 3356.08,4385.83 L 3343.02,4384.54 L 3330.47,4380.73 L 3318.89,4374.55 L 3315.95,4372.13 L 3276.05,4412.03 L 3271.28,4415.95 L 3265.84,4418.86 L 3259.93,4420.65 L 3253.78,4421.26 L 2976.93,4421.26 L 2774.82,4623.37 L 2770.05,4627.29 L 2764.6,4630.2 L 2761.99,4630.99 L 2758.09,4638.29 L 2749.77,4648.43 L 2739.62,4656.75 L 2728.05,4662.94 L 2715.5,4666.75 L 2702.44,4668.03 L 2600.08,4668.03 L 2587.02,4666.75 L 2574.47,4662.94 L 2562.89,4656.75 L 2552.75,4648.43 L 2544.43,4638.29 L 2538.24,4626.72 L 2534.44,4614.16 L 2533.15,4601.1 z " style="fill-opacity:1.000000;fill:rgb(168,153,15);stroke:rgb(0,0,0);stroke-width:2"/></g>
<g fill-rule="evenodd"><path d="M 3321.34,5201.81 L 3323.83,5176.46 L 3331.23,5152.09 L 3343.23,5129.63 L 3359.39,5109.94 L 3379.08,5093.79 L 3401.54,5081.78 L 3425.91,5074.39 L 3451.26,5071.89 L 3476.61,5074.39 L 3500.98,5081.78 L 3523.44,5093.79 L 3543.13,5109.94 L 3559.29,5129.63 L 3571.29,5152.09 L 3578.68,5176.46 L 3581.18,5201.81 L 3578.68,5227.16 L 3571.29,5251.53 L 3559.29,5273.99 L 3543.13,5293.68 L 3523.44,5309.84 L 3500.98,5321.84 L 3476.61,5329.24 L 3451.26,5331.73 L 3425.91,5329.24 L 3401.54,5321.84 L 3379.08,5309.84 L 3359.39,5293.68 L 3343.23,5273.99 L 3331.23,5251.53 L 3323.83,5227.16 L 3321.34,5201.81 z " style="fill-opacity:1.000000;fill:rgb(149,177,235);stroke:rgb(0,0,0);stroke-width:2"/></g>
<g fill-rule="evenodd"><path d="M 3324.8,397.638 L 3327.3,372.291 L 3334.69,347.919 L 3346.7,325.457 L 3362.86,305.77 L 3382.54,289.612 L 3405.01,277.606 L 3429.38,270.213 L 3454.72,267.717 L 3480.07,270.213 L 3504.44,277.606 L 3526.9,289.612 L 3546.59,305.77 L 3562.75,325.457 L 3574.76,347.919 L 3582.15,372.291 L 3584.65,397.638 L 3582.15,422.984 L 3574.76,447.357 L 3562.75,469.818 L 3546.59,489.506 L 3526.9,505.663 L 3504.44,517.669 L 3480.07,525.063 L 3454.72,527.559 L 3429.38,525.063 L 3405.01,517.669 L 3382.54,505.663 L 3362.86,489.506 L 3346.7,469.818 L 3334.69,447.357 L 3327.3,422.984 L 3324.8,397.638 z " style="fill-opacity:1.000000;fill:rgb(241,179,5);stroke:rgb(0,0,0);stroke-width:2"/></g>
</svg>
