<?xml version="1.0" standalone="no"?>
<!DOCTYPE svg PUBLIC "-//W3C//DTD SVG 1.1//EN"
"http://www.w3.org/Graphics/SVG/1.1/DTD/svg11.dtd">
<svg width="187.654" height="270.803" viewBox="0 0 3909.45 5641.73" version="1.1"
xmlns="http://www.w3.org/2000/svg"
xmlns:xlink="http://www.w3.org/1999/xlink">
<g fill-rule="evenodd"><path d="M 0,5641.73 L 0,0 L 3909.45,0 L 3909.45,5641.73 L 0,5641.73 z " style="fill-opacity:0.200000;fill:rgb(103,198,105);"/></g>
<polyline points="33.4618,5576.77 33.4618,64.959 34.0678,58.813 35.8598,52.905 38.7698,47.459 42.6878,42.687 47.4598,38.769 52.9058,35.859 58.8138,34.067 64.9598,33.461 3844.49,33.461 3850.63,34.067 3856.54,35.859 3861.99,38.769 3866.76,42.687 3870.68,47.459 3873.59,52.905 3875.38,58.813 3875.98,64.959 3875.98,5576.77 3875.38,5582.92 3873.59,5588.82 3870.68,5594.27 3866.76,5599.04 3861.99,5602.96 3856.54,5605.87 3850.63,5607.66 3844.49,5608.27 64.9598,5608.27 58.8138,5607.66 52.9058,5605.87 47.4598,5602.96 42.6878,5599.04 38.7698,5594.27 35.8598,5588.82 34.0678,5582.92 33.4618,5576.77" style="stroke:rgb(103,198,105);stroke-width:62.992126;fill:none;stroke-opacity:0.5;stroke-linecap:round;stroke-linejoin:round;;fill:none"/>
<polyline points="33.4618,5576.77 33.4618,64.959 34.0678,58.813 35.8598,52.905 38.7698,47.459 42.6878,42.687 47.4598,38.769 52.9058,35.859 58.8138,34.067 64.9598,33.461 3844.49,33.461 3850.63,34.067 3856.54,35.859 3861.99,38.769 3866.76,42.687 3870.68,47.459 3873.59,52.905 3875.38,58.813 3875.98,64.959 3875.98,5576.77 3875.38,5582.92 3873.59,5588.82 3870.68,5594.27 3866.76,5599.04 3861.99,5602.96 3856.54,5605.87 3850.63,5607.66 3844.49,5608.27 64.9598,5608.27 58.8138,5607.66 52.9058,5605.87 47.4598,5602.96 42.6878,5599.04 38.7698,5594.27 35.8598,5588.82 34.0678,5582.92 33.4618,5576.77" style="stroke:rgb(0,0,0);stroke-width:1px;fill:none;stroke-opacity:1;stroke-linecap:round;stroke-linejoin:round;;fill:none"/>
<g fill-rule="evenodd"><path d="M 64.9598,5576.77 L 64.9598,64.959 L 3844.49,64.959 L 3844.49,5576.77 L 64.9598,5576.77 z " style="fill-opacity:1.000000;fill:rgb(103,198,105);stroke:rgb(0,0,0);stroke-width:2"/></g>
</svg>
